<svg width="30" height="30" viewBox="0 0 30 30" fill="none" xmlns="http://www.w3.org/2000/svg">
<mask id="mask0_2023_1500" style="mask-type:alpha" maskUnits="userSpaceOnUse" x="0" y="0" width="30" height="30">
<rect width="30" height="30" fill="#D9D9D9"/>
</mask>
<g mask="url(#mask0_2023_1500)">
<path d="M15.0001 16.3172L8.65889 22.6588C8.48576 22.8317 8.26816 22.9202 8.00607 22.9244C7.7442 22.9283 7.52264 22.8398 7.34139 22.6588C7.16035 22.4775 7.06982 22.2579 7.06982 22C7.06982 21.7421 7.16035 21.5225 7.34139 21.3413L13.6829 15L7.34139 8.65877C7.16847 8.48564 7.07993 8.26804 7.07576 8.00595C7.0718 7.74408 7.16035 7.52251 7.34139 7.34126C7.52264 7.16022 7.74222 7.0697 8.00014 7.0697C8.25805 7.0697 8.47764 7.16022 8.65889 7.34126L15.0001 13.6828L21.3414 7.34126C21.5145 7.16835 21.7321 7.07981 21.9942 7.07564C22.2561 7.07168 22.4776 7.16022 22.6589 7.34126C22.8399 7.52251 22.9305 7.7421 22.9305 8.00002C22.9305 8.25793 22.8399 8.47752 22.6589 8.65877L16.3173 15L22.6589 21.3413C22.8318 21.5144 22.9203 21.732 22.9245 21.9941C22.9285 22.256 22.8399 22.4775 22.6589 22.6588C22.4776 22.8398 22.2581 22.9303 22.0001 22.9303C21.7422 22.9303 21.5226 22.8398 21.3414 22.6588L15.0001 16.3172Z" fill="white"/>
</g>
</svg>
