<svg width="131" height="28" viewBox="0 0 131 28" fill="none" xmlns="http://www.w3.org/2000/svg">
<path d="M12.9817 13.6039L3.99805 23.1377C3.99805 23.1377 3.99805 23.1413 3.99805 23.143C4.27311 24.178 5.2182 24.9397 6.34138 24.9397C6.78924 24.9397 7.21065 24.8181 7.57212 24.6065L7.60033 24.5889L17.7125 18.7543L12.9799 13.6022L12.9817 13.6039Z" fill="#E63C27"/>
<path d="M22.0696 11.9797L22.0608 11.9744L17.695 9.44421L12.7773 13.8206L17.7126 18.7541L22.0555 16.2485C22.8172 15.8377 23.3338 15.0354 23.3338 14.1097C23.3338 13.184 22.8242 12.3923 22.0696 11.9797Z" fill="#F9C200"/>
<path d="M3.99889 5.04114C3.94423 5.24038 3.91602 5.45021 3.91602 5.66532V22.513C3.91602 22.7299 3.94423 22.9379 3.99889 23.1372L13.2911 13.8467L3.99889 5.04114Z" fill="#557ABD"/>
<path d="M13.0469 14.0907L17.6966 9.44279L7.5968 3.5871C7.23005 3.3667 6.80158 3.23975 6.34314 3.23975C5.21997 3.23975 4.27311 4.00323 3.99805 5.04001C3.99805 5.04001 3.99805 5.04001 3.99805 5.04177L13.0469 14.0907Z" fill="#0AA346"/>
<path d="M66.837 9.79969C64.2497 9.79969 62.1358 11.7705 62.1358 14.4789C62.1358 17.1874 64.2497 19.1582 66.837 19.1582C69.4244 19.1582 71.5383 17.1764 71.5383 14.4789C71.5383 11.7815 69.4244 9.79969 66.837 9.79969ZM66.837 17.3195C65.4168 17.3195 64.1946 16.1525 64.1946 14.4789C64.1946 12.8054 65.4168 11.6384 66.837 11.6384C68.2573 11.6384 69.4794 12.7944 69.4794 14.4789C69.4794 16.1635 68.2573 17.3195 66.837 17.3195ZM56.5757 9.79969C53.9884 9.79969 51.8745 11.7705 51.8745 14.4789C51.8745 17.1874 53.9884 19.1582 56.5757 19.1582C59.1631 19.1582 61.277 17.1764 61.277 14.4789C61.277 11.7815 59.1631 9.79969 56.5757 9.79969ZM56.5757 17.3195C55.1555 17.3195 53.9333 16.1525 53.9333 14.4789C53.9333 12.8054 55.1555 11.6384 56.5757 11.6384C57.996 11.6384 59.2181 12.7944 59.2181 14.4789C59.2181 16.1635 57.996 17.3195 56.5757 17.3195ZM44.3767 11.242V13.2238H49.133C48.9899 14.3358 48.6155 15.1616 48.054 15.7231C47.3604 16.4167 46.2814 17.1764 44.3877 17.1764C41.459 17.1764 39.169 14.8202 39.169 11.8916C39.169 8.96293 41.459 6.6068 44.3877 6.6068C45.9621 6.6068 47.1182 7.22336 47.9659 8.02708L49.3642 6.62882C48.1751 5.49479 46.6007 4.625 44.3767 4.625C40.3691 4.625 37 7.88395 37 11.9026C37 15.9212 40.3691 19.1802 44.3767 19.1802C46.5457 19.1802 48.1751 18.4756 49.4523 17.1433C50.7625 15.8332 51.1698 13.9835 51.1698 12.4971C51.1698 12.0347 51.1368 11.6053 51.0597 11.253H44.3767V11.242ZM94.2629 12.7834C93.8776 11.7374 92.6885 9.79969 90.2553 9.79969C87.8221 9.79969 85.8403 11.6934 85.8403 14.4789C85.8403 17.0993 87.8221 19.1582 90.4865 19.1582C92.6334 19.1582 93.8776 17.848 94.384 17.0883L92.7876 16.0203C92.2591 16.802 91.5324 17.3195 90.4865 17.3195C89.4405 17.3195 88.6919 16.8461 88.2184 15.8992L94.4831 13.3119L94.2739 12.7834H94.2629ZM87.8771 14.3468C87.8221 12.5412 89.2754 11.6163 90.3213 11.6163C91.1361 11.6163 91.8297 12.0237 92.0609 12.6072L87.8771 14.3468ZM82.7905 18.8829H84.8494V5.12045H82.7905V18.8829ZM79.4215 10.8456H79.3554C78.893 10.2951 78.0122 9.79969 76.8892 9.79969C74.544 9.79969 72.3971 11.8586 72.3971 14.501C72.3971 17.1433 74.544 19.1692 76.8892 19.1692C78.0012 19.1692 78.893 18.6737 79.3554 18.1012H79.4215V18.7728C79.4215 20.5675 78.4636 21.5253 76.9222 21.5253C75.6671 21.5253 74.8853 20.6225 74.5661 19.8628L72.7714 20.6115C73.2889 21.8556 74.6541 23.375 76.9222 23.375C79.3334 23.375 81.3702 21.9547 81.3702 18.4976V10.086H79.4215V10.8456ZM77.0543 17.3195C75.634 17.3195 74.4449 16.1304 74.4449 14.501C74.4449 12.8715 75.634 11.6494 77.0543 11.6494C78.4746 11.6494 79.5536 12.8605 79.5536 14.501C79.5536 16.1414 78.4526 17.3195 77.0543 17.3195ZM103.908 5.12045H98.9862V18.8829H101.045V13.6642H103.919C106.198 13.6642 108.433 12.0127 108.433 9.39232C108.433 6.77195 106.198 5.12045 103.919 5.12045H103.908ZM103.952 11.7485H101.034V7.02518H103.952C105.493 7.02518 106.363 8.30234 106.363 9.38131C106.363 10.4603 105.493 11.7374 103.952 11.7374V11.7485ZM116.657 9.77767C115.171 9.77767 113.629 10.4383 112.991 11.8806L114.819 12.6403C115.204 11.8806 115.931 11.6273 116.69 11.6273C117.747 11.6273 118.837 12.2659 118.848 13.4V13.5431C118.474 13.3339 117.681 13.0146 116.701 13.0146C114.73 13.0146 112.738 14.0936 112.738 16.1084C112.738 17.9471 114.345 19.1362 116.151 19.1362C117.527 19.1362 118.298 18.5196 118.771 17.7929H118.837V18.8499H120.819V13.5761C120.819 11.1319 118.991 9.76666 116.635 9.76666L116.657 9.77767ZM116.404 17.3195C115.732 17.3195 114.797 16.9782 114.797 16.1525C114.797 15.0955 115.964 14.6881 116.976 14.6881C117.879 14.6881 118.309 14.8863 118.848 15.1505C118.694 16.4277 117.593 17.3305 116.404 17.3305V17.3195ZM128.053 10.0749L125.696 16.0424H125.63L123.186 10.0749H120.973L124.639 18.4205L122.548 23.0557H124.694L130.343 10.0749H128.064H128.053ZM109.556 18.8829H111.615V5.12045H109.556V18.8829Z" fill="white"/>
</svg>
