<svg width="24" height="24" viewBox="0 0 24 24" fill="none" xmlns="http://www.w3.org/2000/svg">
<mask id="mask0_8_17611" style="mask-type:alpha" maskUnits="userSpaceOnUse" x="0" y="0" width="24" height="24">
<rect width="24" height="24" fill="#D9D9D9"/>
</mask>
<g mask="url(#mask0_8_17611)">
<path d="M21.2905 12L17.2173 7.92701C17.0789 7.78851 17.0081 7.61443 17.0048 7.40476C17.0016 7.19526 17.0724 7.01801 17.2173 6.87301C17.3623 6.72818 17.5379 6.65576 17.7442 6.65576C17.9506 6.65576 18.1262 6.72818 18.2712 6.87301L22.7655 11.3673C22.859 11.4609 22.925 11.5597 22.9635 11.6635C23.002 11.7673 23.0213 11.8795 23.0213 12C23.0213 12.1205 23.002 12.2327 22.9635 12.3365C22.925 12.4403 22.859 12.5391 22.7655 12.6328L18.2712 17.127C18.1327 17.2653 17.9587 17.3362 17.749 17.3395C17.5395 17.3427 17.3623 17.2718 17.2173 17.127C17.0724 16.982 17 16.8063 17 16.6C17 16.3937 17.0724 16.218 17.2173 16.073L21.2905 12Z" fill="white"/>
</g>
</svg>
