<svg width="30" height="30" viewBox="0 0 30 30" fill="none" xmlns="http://www.w3.org/2000/svg">
<mask id="mask0_4_10873" style="mask-type:alpha" maskUnits="userSpaceOnUse" x="0" y="0" width="30" height="30">
<rect width="30" height="30" fill="#D9D9D9"/>
</mask>
<g mask="url(#mask0_4_10873)">
<path d="M15 26.875C13.3719 26.875 11.8354 26.5629 10.3906 25.9387C8.94583 25.3146 7.68583 24.4648 6.61062 23.3894C5.53521 22.3142 4.68542 21.0542 4.06125 19.6094C3.43708 18.1646 3.125 16.6281 3.125 15C3.125 13.359 3.43708 11.8193 4.06125 10.3809C4.68542 8.9426 5.53521 7.68583 6.61062 6.61062C7.68583 5.53521 8.94583 4.68542 10.3906 4.06125C11.8354 3.43708 13.3719 3.125 15 3.125C16.641 3.125 18.1807 3.43708 19.6191 4.06125C21.0574 4.68542 22.3142 5.53521 23.3894 6.61062C24.4648 7.68583 25.3146 8.9426 25.9387 10.3809C26.5629 11.8193 26.875 13.359 26.875 15C26.875 16.6281 26.5629 18.1646 25.9387 19.6094C25.3146 21.0542 24.4648 22.3142 23.3894 23.3894C22.3142 24.4648 21.0574 25.3146 19.6191 25.9387C18.1807 26.5629 16.641 26.875 15 26.875ZM15 24.9734C15.6379 24.1274 16.1748 23.2741 16.6106 22.4134C17.0465 21.5528 17.4015 20.6121 17.6756 19.5913H12.3244C12.6146 20.6442 12.9736 21.6009 13.4016 22.4616C13.8293 23.3222 14.3621 24.1595 15 24.9734ZM12.5794 24.6297C12.1002 23.9422 11.6699 23.1606 11.2884 22.285C10.907 21.4092 10.6105 20.5113 10.3991 19.5913H6.15875C6.81896 20.8894 7.70437 21.98 8.815 22.8631C9.92562 23.746 11.1804 24.3349 12.5794 24.6297ZM17.4206 24.6297C18.8196 24.3349 20.0744 23.746 21.185 22.8631C22.2956 21.98 23.181 20.8894 23.8412 19.5913H19.6009C19.3493 20.5192 19.0327 21.421 18.6513 22.2969C18.27 23.1727 17.8598 23.9503 17.4206 24.6297ZM5.3725 17.7163H10.0194C9.94083 17.2517 9.88385 16.7961 9.84844 16.3497C9.81323 15.9034 9.79562 15.4535 9.79562 15C9.79562 14.5465 9.81323 14.0966 9.84844 13.6503C9.88385 13.2039 9.94083 12.7483 10.0194 12.2838H5.3725C5.25229 12.7083 5.16021 13.1498 5.09625 13.6081C5.03208 14.0665 5 14.5304 5 15C5 15.4696 5.03208 15.9335 5.09625 16.3919C5.16021 16.8502 5.25229 17.2917 5.3725 17.7163ZM11.8941 17.7163H18.1059C18.1843 17.2517 18.2411 16.8002 18.2766 16.3619C18.3118 15.9235 18.3294 15.4696 18.3294 15C18.3294 14.5304 18.3118 14.0765 18.2766 13.6381C18.2411 13.1998 18.1843 12.7483 18.1059 12.2838H11.8941C11.8157 12.7483 11.7589 13.1998 11.7234 13.6381C11.6882 14.0765 11.6706 14.5304 11.6706 15C11.6706 15.4696 11.6882 15.9235 11.7234 16.3619C11.7589 16.8002 11.8157 17.2517 11.8941 17.7163ZM19.9806 17.7163H24.6275C24.7477 17.2917 24.8398 16.8502 24.9038 16.3919C24.9679 15.9335 25 15.4696 25 15C25 14.5304 24.9679 14.0665 24.9038 13.6081C24.8398 13.1498 24.7477 12.7083 24.6275 12.2838H19.9806C20.0592 12.7483 20.1161 13.2039 20.1516 13.6503C20.1868 14.0966 20.2044 14.5465 20.2044 15C20.2044 15.4535 20.1868 15.9034 20.1516 16.3497C20.1161 16.7961 20.0592 17.2517 19.9806 17.7163ZM19.6009 10.4088H23.8412C23.1731 9.09458 22.2938 8.00396 21.2031 7.13688C20.1125 6.27 18.8517 5.67708 17.4206 5.35813C17.8998 6.08563 18.326 6.88135 18.6994 7.74531C19.0729 8.60906 19.3734 9.49688 19.6009 10.4088ZM12.3244 10.4088H17.6756C17.3854 9.36375 17.0204 8.40094 16.5806 7.52031C16.1406 6.63969 15.6137 5.80844 15 5.02656C14.3863 5.80844 13.8594 6.63969 13.4194 7.52031C12.9796 8.40094 12.6146 9.36375 12.3244 10.4088ZM6.15875 10.4088H10.3991C10.6266 9.49688 10.9271 8.60906 11.3006 7.74531C11.674 6.88135 12.1002 6.08563 12.5794 5.35813C11.1402 5.67708 9.8774 6.27208 8.79094 7.14313C7.70427 8.01396 6.82688 9.1025 6.15875 10.4088Z" fill="white"/>
</g>
</svg>
