<svg width="24" height="24" viewBox="0 0 24 24" fill="none" xmlns="http://www.w3.org/2000/svg">
<mask id="mask0_2059_11266" style="mask-type:alpha" maskUnits="userSpaceOnUse" x="0" y="0" width="24" height="24">
<rect width="24" height="24" fill="#D9D9D9"/>
</mask>
<g mask="url(#mask0_2059_11266)">
<path d="M21.2905 12.0005L17.2173 7.9275C17.0789 7.789 17.0081 7.61492 17.0048 7.40525C17.0016 7.19575 17.0724 7.0185 17.2173 6.8735C17.3623 6.72867 17.5379 6.65625 17.7442 6.65625C17.9506 6.65625 18.1262 6.72867 18.2712 6.8735L22.7655 11.3678C22.859 11.4614 22.925 11.5602 22.9635 11.664C23.002 11.7678 23.0213 11.88 23.0213 12.0005C23.0213 12.121 23.002 12.2332 22.9635 12.337C22.925 12.4408 22.859 12.5396 22.7655 12.6333L18.2712 17.1275C18.1327 17.2658 17.9587 17.3367 17.749 17.34C17.5395 17.3432 17.3623 17.2723 17.2173 17.1275C17.0724 16.9825 17 16.8068 17 16.6005C17 16.3942 17.0724 16.2185 17.2173 16.0735L21.2905 12.0005Z" fill="#52525B"/>
</g>
</svg>
