<svg width="32" height="32" viewBox="0 0 32 32" fill="none" xmlns="http://www.w3.org/2000/svg">
<path d="M22.8217 10.6902C21.974 10.6919 21.2848 10.0055 21.2831 9.1578C21.2815 8.3101 21.9678 7.62083 22.8159 7.61917C23.664 7.61751 24.3533 8.30429 24.355 9.15199C24.3562 9.99969 23.6698 10.6886 22.8217 10.6902Z" fill="white"/>
<path fill-rule="evenodd" clip-rule="evenodd" d="M16.0124 22.5717C12.3832 22.5787 9.43497 19.6425 9.42793 16.0124C9.42087 12.3831 12.3579 9.43442 15.9871 9.42737C19.6172 9.42032 22.5658 12.3582 22.5729 15.9871C22.58 19.6172 19.6421 22.5646 16.0124 22.5717ZM15.9917 11.7337C13.6361 11.7378 11.7292 13.6518 11.7333 16.0078C11.7379 18.3643 13.6523 20.2708 16.0079 20.2662C18.3643 20.2617 20.2712 18.3481 20.2666 15.9917C20.2621 13.6352 18.3477 11.7291 15.9917 11.7337Z" fill="white"/>
<path fill-rule="evenodd" clip-rule="evenodd" d="M7.59401 3.88953C8.40687 3.57102 9.33709 3.35287 10.699 3.28859C12.0643 3.22307 12.5002 3.20813 15.9755 3.2015C19.4517 3.19487 19.8876 3.20813 21.2528 3.26868C22.6152 3.32757 23.5459 3.5424 24.3604 3.8576C25.2031 4.18232 25.918 4.61945 26.6305 5.32905C27.343 6.03947 27.7818 6.75197 28.1107 7.59345C28.4288 8.40715 28.6469 9.33655 28.7116 10.6993C28.7763 12.0642 28.7921 12.4997 28.7987 15.9755C28.8053 19.4509 28.7912 19.8872 28.7315 21.2533C28.6722 22.6148 28.4578 23.5459 28.1426 24.36C27.817 25.2027 27.3808 25.9177 26.6712 26.6302C25.9616 27.3431 25.2483 27.7815 24.4068 28.1108C23.5931 28.4285 22.6637 28.6466 21.3018 28.7117C19.9365 28.7764 19.5007 28.7918 16.0241 28.7984C12.5491 28.805 12.1132 28.7918 10.748 28.7316C9.38561 28.6719 8.45456 28.4575 7.64046 28.1427C6.79776 27.8167 6.08278 27.3809 5.37028 26.6709C4.65738 25.9608 4.21821 25.2479 3.88975 24.4065C3.57124 23.5932 3.35391 22.6634 3.28881 21.3018C3.2237 19.9361 3.20836 19.4998 3.20173 16.0244C3.19507 12.5486 3.20877 12.1131 3.26848 10.7479C3.32862 9.38507 3.54221 8.45442 3.8574 7.63948C4.18295 6.79717 4.61923 6.0826 5.32965 5.36969C6.03924 4.65719 6.75255 4.21757 7.59401 3.88953ZM8.47117 25.9924C8.9228 26.1661 9.60044 26.3735 10.8483 26.4278C12.1987 26.4863 12.603 26.4992 16.0199 26.4925C19.438 26.4863 19.8424 26.4718 21.1923 26.4083C22.439 26.349 23.1166 26.1392 23.567 25.9633C24.1646 25.7298 24.5901 25.4507 25.0372 25.0032C25.4842 24.5541 25.7609 24.1273 25.9923 23.5297C26.1665 23.0777 26.3734 22.3996 26.4277 21.1517C26.487 19.8021 26.4995 19.3974 26.4928 15.9796C26.4866 12.5627 26.4721 12.1579 26.4078 10.808C26.3489 9.5609 26.1395 8.88324 25.9632 8.43326C25.7298 7.83482 25.4515 7.41014 25.0028 6.96265C24.554 6.51516 24.1273 6.23936 23.5288 6.00795C23.078 5.83335 22.3995 5.62681 21.1525 5.57249C19.8021 5.51318 19.3974 5.50115 15.9797 5.50779C12.5628 5.51442 12.1584 5.52811 10.8085 5.59198C9.56105 5.65128 8.88421 5.86072 8.43299 6.03698C7.83579 6.27047 7.41029 6.54792 6.96282 6.99707C6.51615 7.44621 6.23953 7.87214 6.00813 8.471C5.83479 8.92223 5.62616 9.60072 5.57268 10.8478C5.51377 12.1981 5.50134 12.6029 5.50798 16.0199C5.51421 19.4376 5.52871 19.8424 5.59217 21.1915C5.65064 22.4394 5.86172 23.1162 6.03716 23.5679C6.27065 24.1647 6.54893 24.5902 6.99724 25.0377C7.44639 25.4835 7.87313 25.7609 8.47117 25.9924Z" fill="white"/>
</svg>
