<svg width="30" height="30" viewBox="0 0 30 30" fill="none" xmlns="http://www.w3.org/2000/svg">
<mask id="mask0_2059_14681" style="mask-type:alpha" maskUnits="userSpaceOnUse" x="0" y="0" width="30" height="30">
<rect width="30" height="30" fill="#D9D9D9"/>
</mask>
<g mask="url(#mask0_2059_14681)">
<path d="M11.481 15.0003L20.8969 24.4163C21.1452 24.6646 21.2663 24.957 21.26 25.2935C21.2536 25.6301 21.1262 25.9226 20.8779 26.1709C20.6293 26.4193 20.3368 26.5435 20.0004 26.5435C19.6639 26.5435 19.3714 26.4193 19.1229 26.1709L9.5341 16.6013C9.30806 16.3752 9.14056 16.122 9.0316 15.8416C8.92264 15.5612 8.86816 15.2807 8.86816 15.0003C8.86816 14.7199 8.92264 14.4395 9.0316 14.1591C9.14056 13.8787 9.30806 13.6254 9.5341 13.3994L19.1229 3.81032C19.3714 3.56199 19.6671 3.44105 20.01 3.44751C20.353 3.45397 20.6486 3.58136 20.8969 3.8297C21.1452 4.07803 21.2694 4.37053 21.2694 4.7072C21.2694 5.04366 21.1452 5.33605 20.8969 5.58439L11.481 15.0003Z" fill="white"/>
</g>
</svg>
