<svg width="40" height="41" viewBox="0 0 40 41" fill="none" xmlns="http://www.w3.org/2000/svg">
<mask id="mask0_3_4822" style="mask-type:alpha" maskUnits="userSpaceOnUse" x="0" y="0" width="40" height="41">
<rect y="0.850342" width="40" height="40" fill="#D9D9D9"/>
</mask>
<g mask="url(#mask0_3_4822)">
<path d="M19.9995 22.6066L11.5445 31.062C11.3137 31.2926 11.0236 31.4106 10.6741 31.4162C10.3249 31.4215 10.0295 31.3034 9.78786 31.062C9.54648 30.8204 9.42578 30.5276 9.42578 30.1837C9.42578 29.8398 9.54648 29.547 9.78786 29.3054L18.2433 20.8504L9.78786 12.3954C9.55731 12.1645 9.43925 11.8744 9.4337 11.5249C9.42842 11.1758 9.54648 10.8804 9.78786 10.6387C10.0295 10.3973 10.3223 10.2766 10.6662 10.2766C11.0101 10.2766 11.3029 10.3973 11.5445 10.6387L19.9995 19.0941L28.4545 10.6387C28.6854 10.4081 28.9755 10.2901 29.3249 10.2845C29.6741 10.2793 29.9695 10.3973 30.2112 10.6387C30.4526 10.8804 30.5733 11.1731 30.5733 11.517C30.5733 11.8609 30.4526 12.1537 30.2112 12.3954L21.7558 20.8504L30.2112 29.3054C30.4418 29.5362 30.5598 29.8263 30.5654 30.1758C30.5706 30.5249 30.4526 30.8204 30.2112 31.062C29.9695 31.3034 29.6768 31.4241 29.3329 31.4241C28.989 31.4241 28.6962 31.3034 28.4545 31.062L19.9995 22.6066Z" fill="white"/>
</g>
</svg>
