<svg width="40" height="40" viewBox="0 0 40 40" fill="none" xmlns="http://www.w3.org/2000/svg">
<mask id="mask0_129_18804" style="mask-type:alpha" maskUnits="userSpaceOnUse" x="0" y="0" width="40" height="40">
<rect width="40" height="40" fill="#D9D9D9"/>
</mask>
<g mask="url(#mask0_129_18804)">
<path d="M19.9995 21.7558L11.5445 30.2112C11.3137 30.4418 11.0236 30.5598 10.6741 30.5654C10.3249 30.5706 10.0295 30.4526 9.78786 30.2112C9.54648 29.9695 9.42578 29.6768 9.42578 29.3329C9.42578 28.989 9.54648 28.6962 9.78786 28.4545L18.2433 19.9995L9.78786 11.5445C9.55731 11.3137 9.43925 11.0236 9.4337 10.6741C9.42842 10.3249 9.54648 10.0295 9.78786 9.78786C10.0295 9.54648 10.3223 9.42578 10.6662 9.42578C11.0101 9.42578 11.3029 9.54648 11.5445 9.78786L19.9995 18.2433L28.4545 9.78786C28.6854 9.55731 28.9755 9.43925 29.325 9.4337C29.6741 9.42842 29.9695 9.54648 30.2112 9.78786C30.4526 10.0295 30.5733 10.3223 30.5733 10.6662C30.5733 11.0101 30.4526 11.3029 30.2112 11.5445L21.7558 19.9995L30.2112 28.4545C30.4418 28.6854 30.5598 28.9755 30.5654 29.325C30.5706 29.6741 30.4526 29.9695 30.2112 30.2112C29.9695 30.4526 29.6768 30.5733 29.3329 30.5733C28.989 30.5733 28.6962 30.4526 28.4545 30.2112L19.9995 21.7558Z" fill="#71717A"/>
</g>
</svg>
