<svg width="48" height="48" viewBox="0 0 48 48" fill="none" xmlns="http://www.w3.org/2000/svg">
<mask id="mask0_3_7579" style="mask-type:alpha" maskUnits="userSpaceOnUse" x="0" y="0" width="48" height="48">
<rect x="48" width="48" height="48" transform="rotate(90 48 0)" fill="#D9D9D9"/>
</mask>
<g mask="url(#mask0_3_7579)">
<path d="M24 29.6615L39.0655 14.596C39.4628 14.1987 39.9358 14.0052 40.4845 14.0155C41.0332 14.0259 41.5063 14.2297 41.904 14.627C42.3013 15.0244 42.5 15.4974 42.5 16.046C42.5 16.5947 42.3013 17.0679 41.904 17.4655L26.5615 32.777C26.1998 33.1384 25.7947 33.4062 25.346 33.5805C24.8973 33.7552 24.4487 33.8425 24 33.8425C23.5513 33.8425 23.1027 33.7552 22.654 33.5805C22.2053 33.4062 21.8002 33.1384 21.4385 32.777L6.096 17.4345C5.69866 17.0372 5.50517 16.5694 5.5155 16.031C5.52583 15.4924 5.72967 15.0244 6.127 14.627C6.52433 14.2297 6.99733 14.031 7.546 14.031C8.09466 14.031 8.56783 14.2297 8.9655 14.627L24 29.6615Z" fill="white"/>
</g>
</svg>
