<svg width="27" height="27" viewBox="0 0 27 27" fill="none" xmlns="http://www.w3.org/2000/svg">
<rect width="27" height="27" rx="4.8" fill="black"/>
<g filter="url(#filter0_d_8_17683)">
<path d="M10.9365 17.8969C10.7395 17.6931 10.499 17.5362 10.2151 17.426C9.93124 17.3124 9.62731 17.2556 9.30335 17.2556C8.98272 17.2556 8.69216 17.3107 8.43165 17.4209C8.17114 17.5312 7.9457 17.6898 7.75533 17.8969C7.5683 18.1006 7.42302 18.3444 7.31948 18.6283C7.21929 18.9122 7.16919 19.2311 7.16919 19.5852C7.16919 19.9425 7.22263 20.2698 7.3295 20.5671C7.43638 20.861 7.58667 21.1148 7.78038 21.3286C7.97743 21.539 8.21122 21.7026 8.48175 21.8195C8.75228 21.9364 9.05286 21.9949 9.38351 21.9949C9.64401 21.9949 9.88114 21.9581 10.0949 21.8846C10.312 21.8078 10.5024 21.6993 10.666 21.559C10.833 21.4154 10.9716 21.2417 11.0818 21.038C11.1954 20.8343 11.2772 20.6038 11.3273 20.3467H9.33341V19.004H12.8753L12.9254 19.6753C12.9254 20.2465 12.8386 20.7691 12.6649 21.2434C12.4912 21.7143 12.2441 22.1218 11.9235 22.4658C11.6062 22.8064 11.2271 23.0703 10.7862 23.2573C10.3454 23.441 9.85609 23.5329 9.31838 23.5329C8.76063 23.5329 8.24128 23.4343 7.76034 23.2373C7.28274 23.0369 6.86359 22.7597 6.50289 22.4057C6.14553 22.0516 5.86665 21.6375 5.66626 21.1632C5.46587 20.6856 5.36567 20.168 5.36567 19.6102C5.36567 19.0625 5.4642 18.5532 5.66125 18.0822C5.8583 17.608 6.13217 17.1938 6.48285 16.8398C6.83688 16.4858 7.24935 16.2103 7.72026 16.0132C8.19452 15.8162 8.70719 15.7176 9.25826 15.7176C9.77594 15.7176 10.2786 15.8078 10.7662 15.9882C11.2538 16.1685 11.6913 16.4257 12.0788 16.7597L10.9365 17.8969ZM17.5544 23.5329C16.98 23.5329 16.4506 23.436 15.9663 23.2423C15.4854 23.0452 15.0663 22.7714 14.7089 22.4207C14.3515 22.0667 14.0743 21.6525 13.8773 21.1783C13.6802 20.704 13.5817 20.1863 13.5817 19.6252C13.5817 19.0642 13.6802 18.5465 13.8773 18.0722C14.0743 17.598 14.3499 17.1855 14.7039 16.8348C15.0612 16.4808 15.4821 16.2069 15.9663 16.0132C16.4506 15.8162 16.98 15.7176 17.5544 15.7176C18.1289 15.7176 18.6566 15.8162 19.1375 16.0132C19.6218 16.2069 20.0409 16.4808 20.395 16.8348C20.749 17.1855 21.0245 17.598 21.2216 18.0722C21.4186 18.5465 21.5172 19.0642 21.5172 19.6252C21.5172 20.1863 21.4186 20.704 21.2216 21.1783C21.0245 21.6525 20.749 22.0667 20.395 22.4207C20.0409 22.7714 19.6218 23.0452 19.1375 23.2423C18.6566 23.436 18.1289 23.5329 17.5544 23.5329ZM17.5544 21.9949C17.8617 21.9949 18.1456 21.9347 18.4061 21.8145C18.6699 21.6943 18.8987 21.5273 19.0924 21.3135C19.2895 21.0964 19.4414 20.8443 19.5483 20.5571C19.6585 20.2698 19.7136 19.9592 19.7136 19.6252C19.7136 19.2913 19.6585 18.9807 19.5483 18.6934C19.4414 18.4062 19.2912 18.154 19.0974 17.937C18.9037 17.7199 18.675 17.5529 18.4111 17.436C18.1473 17.3157 17.8617 17.2556 17.5544 17.2556C17.2472 17.2556 16.9599 17.3157 16.6928 17.436C16.4289 17.5529 16.1985 17.7199 16.0014 17.937C15.8077 18.154 15.6557 18.4062 15.5455 18.6934C15.4386 18.9807 15.3852 19.2913 15.3852 19.6252C15.3852 19.9592 15.4386 20.2698 15.5455 20.5571C15.6557 20.8443 15.8077 21.0964 16.0014 21.3135C16.1985 21.5306 16.4289 21.6993 16.6928 21.8195C16.9599 21.9364 17.2472 21.9949 17.5544 21.9949Z" fill="white"/>
<path d="M13.6366 5.17322L13.2532 5.17457H13.2195V5.21844L13.2168 6.14927V6.18842H13.2553L13.6724 6.18707C13.827 6.18707 13.9492 6.17019 14.0464 6.13644C14.2549 6.06422 14.3569 5.91234 14.3575 5.67272C14.3575 5.42972 14.2475 5.27987 14.02 5.21439C13.8904 5.17727 13.7392 5.17322 13.6366 5.17389V5.17322Z" fill="white"/>
<path d="M5.40039 4.05005V8.6036H21.5997V4.05005H5.40039ZM5.92149 7.03625H6.62889L6.30827 7.3481L5.92082 7.03625H5.92149ZM8.37579 5.42165H7.66839L7.98901 5.1098L8.37579 5.42165ZM8.03222 5.0099L8.02952 4.9991L8.02749 4.991L7.99711 4.91472L7.97417 4.9262L7.99374 4.90797C7.99036 4.90122 7.98699 4.89447 7.98294 4.88772L7.97957 4.88165C7.97687 4.87625 7.97349 4.87152 7.97079 4.86612L7.95121 4.83642L7.94109 4.82292L7.90262 4.77702L7.84659 4.72505C7.84119 4.72032 7.83512 4.7156 7.82972 4.71155L7.81959 4.70345C7.81284 4.69872 7.80609 4.694 7.79664 4.68725L7.78989 4.68252C7.78044 4.67645 7.77099 4.67105 7.76222 4.66565L7.75749 4.66295C7.74669 4.65687 7.73454 4.6508 7.72306 4.64472L7.71429 4.64067L7.70889 4.63797C7.70147 4.6346 7.69404 4.63055 7.68594 4.62717L7.67244 4.62177L7.66299 4.6454L7.66434 4.6184C7.65826 4.6157 7.65219 4.61367 7.64679 4.61165C7.64139 4.60962 7.63532 4.6076 7.62519 4.60422C7.61844 4.60152 7.61102 4.5995 7.60427 4.59747C7.59819 4.59545 7.59144 4.59342 7.58199 4.59072L7.55904 4.58465C7.55094 4.58262 7.54284 4.5806 7.53474 4.57925L7.51044 4.57452C7.50167 4.57317 7.49357 4.57115 7.48479 4.5698C7.47602 4.56845 7.46724 4.5671 7.45914 4.56575C7.45037 4.5644 7.44091 4.56305 7.43214 4.56237C7.42404 4.5617 7.41527 4.56035 7.40379 4.55967C7.39434 4.559 7.38489 4.55765 7.37544 4.55765L7.31604 4.55495C7.30929 4.55495 7.30254 4.55495 7.29512 4.55495H7.26879H7.26339H7.25259C7.23099 4.55495 7.20939 4.5563 7.18644 4.55765C7.15067 4.55967 7.11489 4.56372 7.07642 4.56912C7.06899 4.57047 7.06157 4.57182 7.05347 4.57317L7.02984 4.5779C7.01027 4.58127 6.99069 4.58465 6.97179 4.58937C6.96234 4.5914 6.95289 4.59477 6.94344 4.59747L6.91914 4.6049C6.90362 4.60895 6.88809 4.61367 6.87324 4.6184C6.86379 4.62177 6.85501 4.62515 6.84556 4.6292L6.82667 4.63662C6.81114 4.6427 6.79562 4.64877 6.78077 4.65552C6.77132 4.66025 6.76187 4.66497 6.75242 4.67037L6.74026 4.67645C6.72474 4.68455 6.70921 4.69265 6.69436 4.70142C6.68424 4.7075 6.67479 4.71425 6.66466 4.721L6.65184 4.72977C6.63969 4.73787 6.62687 4.74665 6.61539 4.75542C6.60662 4.76217 6.59852 4.76892 6.59042 4.77635L6.57692 4.78782C6.56544 4.79795 6.55464 4.8074 6.54317 4.8182C6.53439 4.82697 6.52629 4.83575 6.51751 4.8452L6.50739 4.856L6.50537 4.85465L6.48781 4.87557C6.47499 4.8911 6.46351 4.90595 6.45339 4.91945L6.44056 4.93835L6.43246 4.9505C6.42774 4.95792 6.42302 4.96467 6.41897 4.9721L6.40681 4.99167C6.40276 4.9991 6.39872 5.00585 6.39332 5.0153L6.38387 5.03285C6.37982 5.04027 6.37644 5.04702 6.37306 5.05445C6.37036 5.06052 6.36699 5.06727 6.36429 5.07335L6.34742 5.11317C6.34472 5.1206 6.34201 5.12735 6.33999 5.1341C6.33796 5.14017 6.33527 5.14625 6.33392 5.15165C6.33122 5.15907 6.32919 5.16582 6.32716 5.17325L6.32244 5.18945C6.32041 5.19552 6.31907 5.2016 6.31637 5.21037L6.29544 5.30825L6.32042 5.3123L6.29409 5.315L6.29139 5.3366L6.31637 5.34335H6.29072L6.28869 5.36697V5.37372L6.28599 5.43717C6.28127 5.88402 6.69032 6.1196 7.03389 6.23772C7.07169 6.25055 7.11017 6.26337 7.15202 6.27552C7.95527 6.5084 7.95729 7.13345 7.95729 7.15977C7.95459 7.3346 7.91949 7.48377 7.85199 7.60257C7.83512 7.63295 7.81487 7.6613 7.79327 7.6883C7.66569 7.84557 7.46656 7.92522 7.20061 7.9259C7.17766 7.9259 7.15472 7.9259 7.13379 7.92522L7.11084 7.92387C7.09667 7.92387 7.08249 7.92252 7.06899 7.92185L7.04199 7.91982C7.03052 7.91915 7.01972 7.91847 7.00959 7.91712L6.98056 7.91375C6.97111 7.9124 6.96167 7.91172 6.95289 7.91037L6.87594 7.89687C6.86716 7.89552 6.85906 7.8935 6.85029 7.89147C6.84421 7.89012 6.83747 7.88877 6.83139 7.88675L6.78279 7.87392C6.77536 7.8719 6.76794 7.8692 6.76052 7.86717C6.75377 7.86515 6.74769 7.86312 6.74094 7.86042C6.73419 7.85772 6.72676 7.8557 6.72001 7.853L6.70651 7.8476L6.63227 7.81317C6.62687 7.81047 6.62147 7.80777 6.61607 7.8044C6.61134 7.8017 6.60662 7.799 6.60054 7.79495L6.54586 7.75715L6.48309 7.69842L6.47364 7.68695L6.44259 7.6451L6.39939 7.5614L6.37172 7.44732H6.34607L6.37104 7.44125V7.4345L6.71259 7.10105C6.74094 7.33325 6.87054 7.5803 7.15944 7.5803C7.28702 7.5803 7.40852 7.52225 7.49222 7.42302L7.49694 7.41762C7.56039 7.33932 7.59482 7.24482 7.59617 7.14425C7.60022 6.85805 7.37342 6.75612 7.17294 6.66635L7.15674 6.6596C7.07034 6.6191 6.98597 6.58265 6.90632 6.5489L6.81047 6.50772C6.35822 6.314 5.89719 6.03185 5.90596 5.41355C5.90934 5.1719 5.99237 4.94712 6.14829 4.76082C6.16179 4.74395 6.18069 4.72302 6.20634 4.69805L6.21579 4.6886C6.22862 4.67645 6.24211 4.6643 6.25494 4.65282L6.27384 4.63325C6.29612 4.61367 6.32042 4.59477 6.34674 4.57452L6.36159 4.56372C6.60324 4.3889 6.92049 4.28832 7.23369 4.28832C7.55364 4.28832 7.98564 4.40172 8.23742 4.72032C8.40684 4.93902 8.45477 5.126 8.46894 5.36157L8.03289 5.01057L8.03222 5.0099ZM6.30556 7.6073L6.31232 7.6235L6.33594 7.6127L6.31569 7.62957L6.32447 7.64712L6.34742 7.63565L6.32852 7.65522L6.33797 7.6721L6.36024 7.65927L6.34134 7.67817L6.34742 7.6883C6.35012 7.69235 6.35281 7.6964 6.35619 7.7018L6.36429 7.71462L6.37509 7.72947L6.38251 7.7396C6.38589 7.74365 6.38926 7.7477 6.39466 7.75445L6.47836 7.83612L6.49322 7.8476L6.52427 7.8692C6.52967 7.87257 6.53507 7.87662 6.54114 7.88C6.54654 7.88337 6.55262 7.88675 6.55802 7.89012C6.56409 7.8935 6.57016 7.89687 6.57624 7.90025L6.63362 7.92927C6.64037 7.93265 6.64779 7.93535 6.65454 7.93805C6.66129 7.94075 6.66804 7.94345 6.67547 7.94615L6.69909 7.95492C6.70652 7.95762 6.71327 7.96032 6.72069 7.96235C6.72879 7.96505 6.73757 7.96775 6.74567 7.97045C6.75309 7.97247 6.76119 7.97517 6.76862 7.9772C6.77604 7.97922 6.78414 7.98125 6.79561 7.98395L6.81992 7.99002C6.82667 7.99205 6.83409 7.9934 6.84151 7.99475L6.93264 8.01095C6.94074 8.0123 6.94952 8.01297 6.95829 8.01432L6.97584 8.01635C6.98192 8.01702 6.98799 8.0177 6.99339 8.01837C7.00351 8.01972 7.01364 8.0204 7.02376 8.02107L7.05819 8.02377C7.07304 8.02512 7.08857 8.02512 7.10409 8.0258L7.12704 8.02715C7.14932 8.02782 7.17159 8.0285 7.19927 8.0285C7.23369 8.0285 7.26879 8.02715 7.30524 8.02445C7.31266 8.02445 7.31941 8.0231 7.32684 8.02175L7.34371 8.01972C7.36464 8.0177 7.38489 8.015 7.40514 8.01162C7.41324 8.01027 7.42134 8.00825 7.42944 8.00622L7.45306 8.00082C7.46859 7.99745 7.48412 7.99407 7.49829 7.99002C7.50774 7.98732 7.51651 7.98462 7.52529 7.98125L7.54149 7.97585C7.55634 7.97112 7.57119 7.9664 7.58537 7.961C7.59482 7.95695 7.60426 7.9529 7.61371 7.94817L7.62789 7.94142C7.64072 7.93535 7.65354 7.92995 7.66569 7.9232C7.67582 7.9178 7.68527 7.91172 7.69472 7.90565L7.70281 7.90092C7.71496 7.8935 7.72779 7.8854 7.73927 7.8773C7.74602 7.87257 7.75209 7.86717 7.76154 7.85975C7.85334 7.78415 7.93502 7.66062 7.94514 7.64577C8.02007 7.51145 8.05922 7.34675 8.06192 7.15707C8.06192 7.12737 8.06394 6.42672 7.18239 6.1709C7.14257 6.15942 7.10544 6.14727 7.06966 6.13512C6.75781 6.0278 6.38724 5.81855 6.39129 5.43447V5.42502C6.39129 5.41422 6.39129 5.39735 6.39332 5.3771C6.40007 5.29002 6.42977 5.12127 6.55262 4.96332C6.69504 4.77972 6.91036 4.6778 7.19184 4.66092C7.21209 4.65957 7.23166 4.6589 7.25124 4.65822H7.26204H7.26811H7.29781H7.30727C7.31807 4.65822 7.32752 4.65822 7.34169 4.65957H7.35992C7.37072 4.66092 7.38084 4.6616 7.39097 4.66295L7.40919 4.6643C7.41999 4.66565 7.43011 4.667 7.44024 4.66767L7.45509 4.6697C7.46589 4.67105 7.47602 4.67307 7.48614 4.67442L7.49762 4.67645C7.50842 4.67847 7.51854 4.6805 7.52867 4.6832L7.53474 4.65822L7.53677 4.68522C7.54757 4.68792 7.55837 4.69062 7.57254 4.69467C7.66569 4.72235 7.74466 4.76487 7.80744 4.82292L7.81014 4.82562C7.81554 4.83102 7.82162 4.83642 7.82702 4.8425C7.83242 4.8479 7.83714 4.8533 7.84254 4.85937C7.86684 4.88772 7.88777 4.91877 7.90397 4.95185L7.90667 4.95792L7.92961 4.94712L7.90936 4.96467L7.92422 5.00112L7.94852 4.99302L7.92624 5.00652L7.93029 5.0207L7.57659 5.36562C7.54284 5.21105 7.45914 5.03285 7.19049 5.03285C7.06899 5.03285 6.95086 5.08617 6.87526 5.17595C6.82194 5.2394 6.79291 5.31635 6.79156 5.3987C6.79089 5.4608 6.79494 5.53302 6.83274 5.5931C6.88741 5.68827 7.04739 5.79425 7.35317 5.93667C7.41729 5.96637 7.47737 5.99337 7.52799 6.01565C7.56377 6.03117 7.59414 6.04467 7.61709 6.05547C8.15642 6.31062 8.48919 6.58332 8.48109 7.151C8.47704 7.45475 8.39199 7.70787 8.22999 7.90295L8.21447 7.92252H8.21514C8.15507 7.9988 8.07744 8.05955 8.04909 8.08047L8.03762 8.08857C7.77167 8.28297 7.41324 8.32415 7.15742 8.32482C6.72812 8.32482 6.36227 8.1932 6.12669 7.95492C5.92082 7.74635 5.81889 7.46217 5.82429 7.11117V7.08957L6.26844 7.44732L6.28734 7.54857C6.29207 7.56612 6.29814 7.58367 6.30692 7.60527L6.30556 7.6073ZM9.32619 4.72572L8.94009 4.35987H9.71297L9.32552 4.72572H9.32619ZM9.36804 7.4129C9.38019 7.44057 9.39436 7.46825 9.41056 7.49795C9.41394 7.50402 9.41732 7.50942 9.42137 7.5155L9.42677 7.52427C9.43757 7.5425 9.44837 7.56072 9.46052 7.5776C9.46524 7.58435 9.46996 7.59042 9.47469 7.59717L9.48211 7.60662C9.49291 7.62147 9.50439 7.63632 9.51654 7.6505C9.52261 7.65792 9.52937 7.66467 9.53544 7.67142L9.55637 7.69437C9.57122 7.7099 9.58876 7.72745 9.60901 7.745C9.61509 7.74972 9.62117 7.75445 9.62724 7.75917L9.64344 7.772C9.65289 7.7801 9.66234 7.78752 9.67246 7.79495C9.68461 7.80372 9.69744 7.81182 9.70959 7.81992L9.72376 7.82937C9.73321 7.83545 9.74199 7.84152 9.75144 7.84692C9.76359 7.85435 9.77642 7.86042 9.78924 7.86717L9.80949 7.8773C9.81894 7.88202 9.82772 7.88675 9.83784 7.89147C9.85269 7.89822 9.86754 7.90362 9.88239 7.9097L9.89994 7.91645C9.91006 7.9205 9.91951 7.92455 9.92964 7.92792C9.94584 7.93332 9.96272 7.93805 9.97959 7.94277L9.99917 7.94817C10.0086 7.95087 10.0181 7.95357 10.0275 7.95627C10.0444 7.96032 10.0619 7.9637 10.0788 7.9664L10.1045 7.97112C10.1132 7.97315 10.122 7.9745 10.1315 7.97585C10.1531 7.97922 10.176 7.98125 10.1983 7.98327L10.2192 7.9853C10.2266 7.98597 10.2341 7.98732 10.2415 7.98732C10.3157 7.99272 10.394 7.99272 10.4737 7.98732C10.4818 7.98732 10.4899 7.98597 10.498 7.9853L10.5162 7.98327C10.5392 7.98125 10.5628 7.97922 10.5844 7.97585C10.5932 7.9745 10.6019 7.97315 10.6107 7.97112L10.637 7.9664C10.6546 7.96302 10.6728 7.96032 10.6897 7.95627C10.6991 7.95425 10.7079 7.95155 10.7167 7.94885L10.7403 7.94277C10.7565 7.93872 10.7734 7.934 10.7889 7.9286C10.799 7.92522 10.8085 7.92185 10.8179 7.9178L10.8389 7.9097C10.8537 7.9043 10.8679 7.8989 10.8821 7.89282C10.8915 7.88877 10.901 7.88405 10.9097 7.87932L10.9259 7.87122C10.9401 7.86447 10.9543 7.85705 10.9685 7.84962C10.9779 7.84422 10.9874 7.83882 10.9961 7.83275L11.009 7.82465C11.0225 7.81655 11.036 7.80777 11.0481 7.79832C11.0589 7.7909 11.069 7.7828 11.0819 7.772L11.0879 7.76727C11.1419 7.72002 11.2074 7.64847 11.2209 7.63295L11.2459 7.60055C11.2506 7.5938 11.256 7.58705 11.2607 7.5803C11.2722 7.56342 11.283 7.5452 11.2938 7.5263L11.2999 7.51617C11.3033 7.51077 11.3066 7.50537 11.3093 7.49997C11.3249 7.47162 11.339 7.4426 11.3512 7.41357C11.4281 7.23065 11.4403 7.05717 11.4403 6.9701L11.443 6.04265C11.445 5.51547 11.447 4.93902 11.447 4.82225L11.8669 4.4267L11.8622 6.73317C11.8622 6.97145 11.8487 7.2482 11.7535 7.49525C11.6907 7.6586 11.5982 7.799 11.4693 7.9259L11.4504 7.9448C11.4416 7.95357 11.4315 7.96302 11.4194 7.97382C11.4059 7.98597 11.3924 7.99745 11.3782 8.00892L11.3714 8.015L11.3654 8.01972C11.3478 8.0339 11.3316 8.04672 11.3215 8.05482H11.3208L11.3087 8.06292C11.0549 8.24922 10.7403 8.34372 10.3711 8.34372C9.97082 8.34372 9.61104 8.23302 9.35792 8.03322L9.34914 8.02782L9.32957 8.01095C9.31742 8.00015 9.30256 7.988 9.28906 7.97517L9.26409 7.95155H9.26341L9.24384 7.93062C9.10749 7.78752 9.01569 7.64847 8.95494 7.4939C8.87056 7.2779 8.85437 7.05042 8.85504 6.73047L8.85977 4.43007L9.27219 4.8209L9.26814 6.96875C9.26814 6.97752 9.26612 7.18475 9.36737 7.41357L9.36804 7.4129ZM9.80341 7.01532C9.82569 7.16652 9.87092 7.28262 9.94112 7.3697C10.037 7.4885 10.1794 7.54857 10.3643 7.54857C10.5547 7.54857 10.6924 7.4939 10.7862 7.38252C10.8578 7.29747 10.901 7.17867 10.9199 7.01937C10.9307 6.9242 10.9327 6.82092 10.9327 6.7325L10.9374 4.43952L11.3417 4.82292C11.3417 4.9424 11.3397 5.5148 11.3377 6.0386L11.335 6.8972V6.90597V6.97077C11.335 7.04975 11.3242 7.2077 11.254 7.37375C11.2074 7.48377 11.1419 7.57827 11.0596 7.65455C10.8935 7.80845 10.658 7.88607 10.3576 7.88607C10.0626 7.88607 9.82839 7.80642 9.66031 7.64982C9.57864 7.57355 9.51249 7.47972 9.46457 7.37037C9.37344 7.16382 9.37412 6.97077 9.37412 6.96875L9.37817 4.82022L9.78992 4.4321L9.78519 6.73047C9.78519 6.8405 9.79059 6.93297 9.80274 7.01465L9.80341 7.01532ZM11.3957 4.72775L11.0096 4.3619H11.7825L11.3951 4.72775H11.3957ZM14.3975 4.424C14.4164 4.4294 14.4339 4.4348 14.4508 4.43952L14.4697 4.44357C14.4913 4.451 14.5129 4.45842 14.5345 4.46652C14.5487 4.47125 14.5574 4.47462 14.5581 4.47462C14.6594 4.51512 14.7451 4.56507 14.8207 4.6265C15.1197 4.87355 15.2831 5.23805 15.2824 5.65317C15.281 6.05277 15.117 6.45237 14.8646 6.67242C14.7356 6.78312 14.5973 6.86345 14.4407 6.91677C14.2017 6.99912 13.9425 7.01127 13.6982 7.01195L13.1885 7.0133V7.0997L13.1858 8.25125L12.7943 7.86987L12.797 6.7379V6.6623L13.6448 6.65555C13.8183 6.65555 14.0444 6.64475 14.2557 6.57252C14.658 6.43347 14.8625 6.11555 14.8632 5.62752C14.8632 5.60255 14.8625 5.57825 14.8605 5.55462L14.8592 5.54045L14.8578 5.5256C14.8565 5.51142 14.8551 5.49792 14.8531 5.48442C14.8524 5.47835 14.8511 5.47295 14.8504 5.46687L14.8477 5.45067C14.8457 5.4392 14.8436 5.42705 14.8416 5.41557C14.8403 5.40882 14.8382 5.40275 14.8369 5.39667L14.8349 5.38857C14.8315 5.37575 14.8288 5.36292 14.8247 5.3501C14.8227 5.34402 14.8207 5.33795 14.8187 5.33255L14.8139 5.31972C14.8106 5.30892 14.8065 5.29812 14.8025 5.28732C14.7998 5.28057 14.7964 5.27382 14.7937 5.26707L14.7883 5.25492C14.7842 5.24547 14.7802 5.2367 14.7755 5.22725C14.7728 5.22117 14.7694 5.2151 14.766 5.2097L14.7586 5.1962C14.7539 5.18742 14.7491 5.17865 14.7437 5.16987C14.7404 5.1638 14.7363 5.15772 14.7323 5.15232L14.7255 5.1422C14.7194 5.13342 14.7134 5.12397 14.7073 5.11587C14.7026 5.1098 14.6978 5.10305 14.6924 5.09697L14.6837 5.0855C14.6776 5.07807 14.6722 5.07065 14.6661 5.0639C14.6614 5.0585 14.6567 5.0531 14.6513 5.04837L14.6411 5.03757C14.6344 5.03015 14.627 5.02272 14.6195 5.0153C14.6148 5.01057 14.6094 5.00585 14.604 5.00112L14.5892 4.98762C14.5824 4.98155 14.5757 4.97547 14.5689 4.97007C14.5615 4.964 14.5541 4.95792 14.5433 4.94982C14.5338 4.9424 14.5244 4.93497 14.5142 4.92755C14.5075 4.92282 14.5001 4.91742 14.4926 4.9127L14.4859 4.90797C14.4758 4.90122 14.4656 4.89447 14.4548 4.88772C14.4447 4.88165 14.4346 4.87557 14.4238 4.87017C14.413 4.8641 14.4022 4.85802 14.3907 4.85195C14.3799 4.84655 14.3684 4.84115 14.3576 4.83575L14.3333 4.82427C14.2469 4.78647 14.1538 4.75745 14.1491 4.7561L14.0532 4.73112L13.7893 4.68995C13.7825 4.68995 13.7765 4.6886 13.7711 4.6886L13.6907 4.68455V4.7102L13.6853 4.68455H13.657L12.7484 4.68725H12.687V7.87257L12.2861 8.2634L12.2962 4.39902V4.35177L12.7842 4.3538L13.6239 4.3511C13.8075 4.3511 14.0222 4.35582 14.2314 4.38957C14.2652 4.3943 14.3063 4.4024 14.3543 4.41522L14.3664 4.41792L14.3968 4.4267L14.3975 4.424ZM14.7579 5.62617C14.7566 6.06492 14.5763 6.3491 14.222 6.47195C14.0262 6.53945 13.8116 6.5489 13.6455 6.5489L12.8875 6.557H12.7984L12.8031 4.78985L13.6523 4.78715H13.6597C13.7063 4.78715 13.952 4.79187 14.1997 4.88097C14.5709 5.01462 14.7593 5.26572 14.7586 5.62617H14.7579ZM13.1163 8.3309L12.3644 8.33292L12.7417 7.96505L13.117 8.33022L13.1163 8.3309ZM17.7124 7.57287L17.711 8.2472L17.3411 7.9097L17.7124 7.57287ZM15.6131 4.35245L17.6442 4.35447L17.248 4.70817L16.0667 4.70682L16.0269 4.70817H15.8663V7.96167L17.2412 7.96302L17.6267 8.31537H15.5342V4.36055H15.6199L15.6125 4.35312L15.6131 4.35245ZM17.6773 5.9711L17.6759 6.62855L17.3094 6.29915L17.6773 5.97042V5.9711ZM16.7242 6.70347H16.6513V6.70415H16.438V6.86952L16.4366 6.86817L16.4353 7.45407C16.4353 7.4831 16.4596 7.5074 16.4886 7.5074L17.6253 7.50875L17.2419 7.85705L15.9736 7.8557L15.9763 6.4085V6.3518L17.2095 6.35315L17.601 6.70482H16.7242V6.70347ZM16.4393 5.16042V5.2367L16.4387 5.8442C16.4387 5.85837 16.4441 5.87187 16.4542 5.88132C16.4643 5.89145 16.4778 5.89685 16.492 5.89685L17.5997 5.8982L17.2095 6.2465L15.9763 6.24515L15.9783 5.04702L15.9763 4.81347H16.0708H17.2473L17.6327 5.15975H16.4387L16.4393 5.16042ZM17.7185 4.43007L17.7171 5.09292L17.3479 4.76082L17.7185 4.4294V4.43007ZM20.2382 8.27015L20.4374 7.90295L21.1245 8.27082H20.2376L20.2382 8.27015ZM18.8889 8.26407L18.1511 8.2661L18.521 7.90565L18.8889 8.26407ZM20.1498 4.42265C20.168 4.42805 20.1856 4.43277 20.2025 4.43817L20.2227 4.44222C20.3597 4.4861 20.4725 4.54482 20.567 4.62245C20.8606 4.86545 21.0219 5.22387 21.0206 5.63157C21.0192 6.02442 20.8586 6.41727 20.6102 6.63327C20.4833 6.74195 20.3469 6.82092 20.1937 6.87357C20.1694 6.88167 20.1451 6.8891 20.1215 6.89517L20.1154 6.89652H20.1147C20.0594 6.9134 20.0006 6.92352 20 6.92352L19.9439 6.93297L20.0398 7.00992L21.0793 8.1257L20.4488 7.7882L19.3675 6.72035C19.3385 6.69335 19.2926 6.6488 19.2622 6.61707H19.3877L19.3844 6.61572H19.4114C19.5821 6.61505 19.8049 6.60492 20.0121 6.53337C20.4077 6.39702 20.6088 6.08382 20.6102 5.60322C20.6102 5.57892 20.6095 5.55462 20.6081 5.53167L20.6068 5.5175L20.6054 5.50265C20.6041 5.48915 20.6027 5.47565 20.6014 5.46215C20.6007 5.45675 20.5994 5.45067 20.5987 5.44527L20.596 5.42907C20.594 5.4176 20.5919 5.40612 20.5899 5.39465C20.5886 5.38857 20.5872 5.3825 20.5852 5.37642L20.5825 5.36697C20.5798 5.35482 20.5764 5.342 20.5724 5.32985C20.5703 5.32377 20.5683 5.31837 20.5663 5.3123L20.5616 5.29812C20.5582 5.288 20.5548 5.27787 20.5508 5.26775C20.5481 5.261 20.5454 5.25425 20.542 5.24817L20.5366 5.23602C20.5325 5.22657 20.5285 5.2178 20.5238 5.20835C20.5211 5.20227 20.5177 5.1962 20.5143 5.19012L20.5076 5.17797C20.5028 5.1692 20.4981 5.15975 20.4927 5.15165C20.4893 5.14557 20.4853 5.14017 20.4812 5.1341L20.4738 5.12262C20.4684 5.11452 20.463 5.10575 20.4569 5.09765C20.4522 5.0909 20.4468 5.08482 20.4387 5.07402L20.4333 5.06727C20.4279 5.06052 20.4225 5.0531 20.4164 5.04635C20.4117 5.04095 20.407 5.03555 20.4023 5.03082L20.3915 5.01935C20.3847 5.0126 20.3786 5.00585 20.3712 4.99842C20.3665 4.9937 20.3611 4.98897 20.3557 4.98425L20.3415 4.97142C20.3348 4.96535 20.328 4.95927 20.3213 4.9532C20.3132 4.94645 20.3051 4.94037 20.2936 4.9316C20.2848 4.92485 20.276 4.9181 20.2666 4.91135C20.2592 4.90595 20.2517 4.90122 20.2443 4.8965L20.2389 4.89312C20.2288 4.88637 20.2187 4.87962 20.2085 4.87355C20.1998 4.86815 20.1903 4.86275 20.1815 4.85802L20.1755 4.85465C20.166 4.84925 20.1559 4.84385 20.1458 4.83845C20.135 4.83305 20.1242 4.82765 20.1127 4.82225L20.0891 4.81145C20.004 4.77432 19.9122 4.74597 19.9075 4.74462L19.7009 4.69805L19.4566 4.67442V4.70007L19.4512 4.67442H19.4235L18.5305 4.67712H18.4778V4.86207L18.4704 7.8098L18.0776 8.1932L18.087 4.44087V4.34772H18.218L18.2213 4.3511L19.3925 4.34772C19.5727 4.34772 19.784 4.35245 19.9898 4.38552C20.0229 4.39025 20.0634 4.39835 20.1107 4.4105L20.1215 4.4132L20.1512 4.42197L20.1498 4.42265ZM18.9611 6.96402V7.24145L18.9584 8.18442L18.5737 7.8098L18.5764 6.7028L18.5784 6.70482L18.5764 6.42605L18.5811 4.77905H18.6581L18.6527 4.78175L19.4147 4.77972H19.4222C19.4681 4.77972 19.7097 4.78377 19.9527 4.87152C20.3179 5.00315 20.5028 5.24952 20.5015 5.6039C20.5001 6.03522 20.3233 6.31467 19.975 6.43482C19.7826 6.50097 19.5713 6.51042 19.4087 6.5111L19.0124 6.51515L19.14 6.64677L20.3489 7.84085L20.1363 8.23167L18.9591 6.96335L18.9611 6.96402Z" fill="white"/>
<path d="M19.0268 6.15745L19.4365 6.1561C19.5884 6.1561 19.7085 6.13922 19.8037 6.10615C20.0089 6.03527 20.1088 5.8861 20.1095 5.64985C20.1095 5.4109 20.0015 5.26307 19.7774 5.19895C19.6505 5.1625 19.5013 5.15845 19.4007 5.15912L19.0241 5.16047H18.991V5.20367L18.9883 6.11897V6.15745H19.0261H19.0268Z" fill="white"/>
<path d="M6.7603 12.0582L6.89125 12.1142C6.99925 12.1601 7.114 12.2094 7.23212 12.2648L7.25372 12.2742C7.5271 12.3964 7.83625 12.5348 7.83017 12.9256C7.82815 13.0626 7.78157 13.1915 7.69517 13.2982L7.68842 13.3056C7.57502 13.4413 7.40897 13.5203 7.23482 13.5203C6.84197 13.5203 6.66512 13.1868 6.6253 12.8709L6.16427 13.3205V13.3245L6.15752 13.3265L6.15145 13.3326L6.14875 13.3299L6.1285 13.3367L6.16562 13.3326L6.17102 13.3724L6.13592 13.3859L6.17237 13.3792L6.17912 13.4109C6.18047 13.417 6.18182 13.4217 6.18317 13.4271L6.18587 13.4379C6.18722 13.4433 6.18857 13.448 6.1906 13.4534L6.21085 13.5088L6.21625 13.5209L6.23042 13.55L6.23852 13.5655L6.24392 13.5749C6.24865 13.5837 6.25202 13.5884 6.2554 13.5938L6.29522 13.6505L6.30602 13.6634C6.31007 13.6688 6.3148 13.6735 6.31885 13.6782L6.331 13.6917L6.35867 13.7194C6.3634 13.7241 6.3688 13.7288 6.3742 13.7336C6.3796 13.7383 6.38432 13.7423 6.38905 13.7464L6.40525 13.7592L6.38702 13.7923L6.40997 13.7633L6.45925 13.7984C6.46532 13.8024 6.47207 13.8065 6.47882 13.8105C6.48625 13.8152 6.493 13.8193 6.49907 13.8227C6.50582 13.8267 6.51257 13.8301 6.52 13.8341L6.5902 13.8686C6.5983 13.8719 6.6064 13.8753 6.61517 13.8787L6.62057 13.8807C6.62732 13.8834 6.6334 13.8861 6.64015 13.8888C6.6496 13.8922 6.65905 13.8956 6.6685 13.8989C6.67795 13.9023 6.68672 13.905 6.69482 13.9084C6.70292 13.9111 6.71102 13.9138 6.7198 13.9158L6.75422 13.9259C6.76232 13.928 6.7711 13.93 6.77987 13.9327L6.79337 13.9361C6.8008 13.9381 6.8089 13.9401 6.81632 13.9415C6.82847 13.9442 6.83995 13.9462 6.8521 13.9489L6.86357 13.9516C6.87032 13.9529 6.87707 13.9543 6.88382 13.9556L6.95605 13.9671C6.96752 13.9685 6.979 13.9698 6.99115 13.9712L7.033 13.9759C7.04582 13.9772 7.05932 13.9779 7.0735 13.9793L7.114 13.9826C7.13222 13.984 7.15112 13.9847 7.17002 13.9853L7.2004 13.9867C7.22942 13.9874 7.2598 13.988 7.29152 13.988C7.65197 13.988 7.92197 13.8794 8.09477 13.6661C8.12447 13.6296 8.1508 13.5905 8.17375 13.55C8.26555 13.388 8.31347 13.1855 8.31685 12.9485C8.31685 12.9128 8.31617 12.065 7.22402 11.7484C7.1734 11.7335 7.12075 11.7167 7.06337 11.6971C6.59492 11.5358 6.03805 11.2151 6.0448 10.6063L6.04817 10.5199V10.5118L6.05357 10.4679C6.05425 10.4618 6.05492 10.4558 6.05627 10.449L6.0583 10.4342C6.05965 10.4254 6.061 10.4166 6.06235 10.4085L6.08125 10.3187C6.08327 10.3113 6.0853 10.3046 6.08732 10.2971C6.09002 10.2863 6.09272 10.2782 6.09475 10.2695L6.1015 10.2479C6.10487 10.2371 6.10757 10.2283 6.11095 10.2188C6.11365 10.2114 6.11635 10.2026 6.11972 10.1952C6.1231 10.1864 6.12647 10.177 6.13052 10.1669L6.14065 10.1419C6.1447 10.1324 6.14875 10.123 6.1528 10.1129C6.15685 10.1041 6.1609 10.0953 6.16495 10.0872C6.16967 10.0778 6.1744 10.0676 6.17912 10.0582L6.19262 10.0325C6.19802 10.0224 6.20342 10.013 6.2095 10.0028C6.2149 9.99407 6.2203 9.9853 6.2257 9.97585C6.23177 9.9664 6.23785 9.95627 6.2446 9.94682C6.24932 9.94007 6.25405 9.93265 6.25945 9.92522C6.31547 9.84827 6.38972 9.772 6.4039 9.75715C6.41875 9.74365 6.43225 9.73082 6.44642 9.71867L6.4579 9.70855C6.46937 9.6991 6.48017 9.68897 6.49232 9.6802C6.50852 9.66805 6.52472 9.65657 6.54227 9.6451L6.55915 9.63362C6.57265 9.62417 6.58547 9.6154 6.59965 9.60662C6.61922 9.59447 6.64015 9.58367 6.66107 9.57287L6.6793 9.56342C6.69145 9.55667 6.70427 9.54992 6.7171 9.54385C6.73735 9.5344 6.75827 9.5263 6.7792 9.5182L6.80552 9.5074C6.81767 9.502 6.8305 9.49727 6.84332 9.49255C6.86357 9.4858 6.8845 9.47972 6.90542 9.47365L6.93917 9.4642C6.952 9.46015 6.96482 9.45677 6.97832 9.4534C7.0033 9.44732 7.02962 9.4426 7.05595 9.43787L7.0708 9.43517C7.07755 9.43382 7.08362 9.43247 7.0897 9.4318C7.09982 9.42977 7.10995 9.42775 7.12075 9.4264C7.17137 9.41897 7.22132 9.41357 7.2706 9.41087C7.30165 9.40885 7.33135 9.4075 7.36105 9.4075H7.3759H7.38737H7.41775C7.42787 9.4075 7.43732 9.4075 7.44677 9.4075C7.4542 9.4075 7.4623 9.4075 7.46972 9.40817L7.49672 9.40952C7.50685 9.40952 7.51697 9.4102 7.5271 9.41087C7.53992 9.41155 7.55275 9.4129 7.56557 9.41425C7.5784 9.4156 7.59122 9.41627 7.60405 9.4183C7.61687 9.41965 7.62902 9.421 7.64117 9.42302C7.65265 9.42437 7.6648 9.4264 7.67627 9.42842C7.68775 9.43045 7.6999 9.43247 7.71137 9.4345C7.72285 9.43652 7.73365 9.43922 7.74445 9.44125C7.75525 9.44395 7.76672 9.44597 7.77752 9.44867C7.78832 9.45137 7.79845 9.45407 7.80925 9.45677C7.8214 9.46015 7.83085 9.46285 7.8403 9.46555C7.84975 9.46825 7.8592 9.47162 7.86865 9.475L7.87607 9.4777C7.8835 9.4804 7.89092 9.48242 7.89767 9.48512C7.9051 9.48782 7.9132 9.4912 7.92062 9.4939L7.93345 9.49862C7.93953 9.50132 7.9456 9.50335 7.95167 9.50605C7.96247 9.51077 7.9726 9.5155 7.98205 9.52022L7.99015 9.52427L8.0023 9.53035C8.01782 9.53777 8.03402 9.54655 8.04887 9.55465L8.05427 9.55802C8.06777 9.56612 8.0806 9.57355 8.09342 9.58165L8.10287 9.58772C8.1157 9.5965 8.12515 9.60257 8.13392 9.60932L8.1481 9.62012C8.15552 9.62552 8.16362 9.63227 8.17105 9.63835L8.18387 9.64915C8.1913 9.65522 8.19805 9.6613 8.2048 9.66737L8.27432 9.74027L8.28647 9.75512L8.2993 9.772C8.30335 9.7774 8.30875 9.78415 8.3128 9.7909L8.32022 9.8017C8.32495 9.80845 8.329 9.81452 8.33305 9.82127L8.33912 9.83072C8.34385 9.83815 8.3479 9.8449 8.35195 9.85232L8.35667 9.86042C8.36207 9.86987 8.3668 9.87865 8.37152 9.8881L8.41337 9.988L8.41472 10.019L8.42417 10.0271L8.42755 10.0406L8.42552 10.0278L9.0121 10.501C8.99252 10.1831 8.92705 9.93062 8.69822 9.63565C8.35667 9.20297 7.7701 9.04907 7.3354 9.04907C6.86762 9.04907 6.40592 9.20972 6.06707 9.48782L6.06235 9.4912C6.04885 9.502 6.03265 9.51617 6.01645 9.53102L6.00497 9.54182C5.98472 9.56005 5.9665 9.57827 5.95232 9.59177L5.93072 9.61337C5.67422 9.87865 5.53585 10.2121 5.53045 10.5773C5.5183 11.417 6.1447 11.799 6.75895 12.0629L6.7603 12.0582Z" fill="white"/>
<path d="M7.8547 11.4508C7.82365 11.4359 7.7818 11.4177 7.73388 11.3961C7.66503 11.3657 7.58267 11.3286 7.4956 11.2881C7.0798 11.0944 6.86178 10.9506 6.78753 10.8203C6.73555 10.7386 6.72947 10.6408 6.73082 10.555C6.73217 10.443 6.772 10.3377 6.8449 10.2513C6.94817 10.1291 7.10883 10.0562 7.27488 10.0562C7.64005 10.0562 7.7548 10.2965 7.80138 10.5064L8.2786 10.0414L8.26375 9.99749L8.2597 9.98737L8.24418 9.95294C8.22055 9.90569 8.1922 9.86384 8.15913 9.82537C8.15238 9.81794 8.1463 9.81052 8.13888 9.80309C8.13078 9.79432 8.12335 9.78689 8.11525 9.78014L8.11187 9.77745C8.02817 9.69915 7.92085 9.64042 7.79328 9.60329L7.798 9.56617L7.78788 9.60194C7.7737 9.59789 7.75952 9.59452 7.74467 9.59047L7.73388 9.58777C7.72038 9.58439 7.7062 9.5817 7.69135 9.579L7.67717 9.57629C7.66165 9.57359 7.64815 9.57089 7.6333 9.56887L7.61238 9.56617C7.59955 9.56482 7.58537 9.56279 7.57052 9.56144L7.54622 9.55942C7.53272 9.55807 7.51855 9.55739 7.5037 9.55604C7.49425 9.55604 7.4848 9.55537 7.47535 9.55469C7.4605 9.55469 7.44632 9.55334 7.43215 9.55334H7.41932H7.3876H7.3687H7.35587C7.32955 9.55334 7.30322 9.55537 7.27555 9.55672C6.89282 9.58034 6.60055 9.71805 6.4075 9.96712C6.24145 10.1811 6.20095 10.4106 6.1915 10.5287C6.18947 10.5564 6.1888 10.5787 6.1888 10.5935V10.6063C6.18273 11.1281 6.68628 11.4116 7.1095 11.5574C7.16418 11.5763 7.21412 11.5925 7.26272 11.6067C8.46152 11.9543 8.46085 12.9094 8.46018 12.9499C8.45613 13.2125 8.40145 13.4386 8.2975 13.6229C8.28872 13.6384 8.27928 13.654 8.26915 13.6688L8.26578 13.6735C8.25565 13.6891 8.24553 13.7039 8.23473 13.7181L8.23203 13.7221C8.21515 13.7451 8.19827 13.7674 8.17937 13.789L8.1544 13.818L8.15238 13.816L8.14832 13.82L8.1409 13.8281C8.13077 13.8382 8.12132 13.8484 8.11052 13.8578C8.09567 13.8713 8.08015 13.8841 8.06462 13.8963L8.05315 13.9051C8.04235 13.9138 8.03088 13.9226 8.0194 13.9307C8.00388 13.9422 7.987 13.9523 7.97013 13.9624L7.95865 13.9699C7.94582 13.978 7.933 13.9861 7.92018 13.9928C7.9033 14.0023 7.88575 14.0104 7.86753 14.0185L7.8493 14.0266C7.83647 14.0326 7.82432 14.0387 7.81082 14.0441C7.79125 14.0515 7.771 14.0583 7.75143 14.0644L7.72848 14.0718C7.71633 14.0758 7.70485 14.0799 7.6927 14.0833C7.67312 14.0887 7.65288 14.0927 7.63195 14.0974L7.59888 14.1049C7.58808 14.1076 7.57795 14.1096 7.56647 14.1116C7.53745 14.1163 7.50775 14.1197 7.47805 14.1231L7.4605 14.1251C7.45105 14.1265 7.44093 14.1278 7.4308 14.1285C7.34373 14.1352 7.26138 14.1352 7.18848 14.1325L7.15742 14.1312C7.1365 14.1305 7.11557 14.1292 7.09465 14.1278C7.08587 14.1278 7.0771 14.1265 7.069 14.1258L7.04875 14.1244C7.03457 14.1231 7.0204 14.1224 7.00622 14.1204C6.9988 14.1204 6.9907 14.1184 6.9826 14.1177L6.96168 14.115C6.94885 14.1136 6.93535 14.1116 6.9232 14.1103L6.8773 14.1028C6.86583 14.1008 6.85503 14.0995 6.84423 14.0974C6.83545 14.0961 6.82668 14.0941 6.81858 14.092L6.80103 14.0887C6.79023 14.0866 6.7801 14.0846 6.7693 14.0819C6.75917 14.0792 6.74838 14.0772 6.73825 14.0745L6.7315 14.0731C6.7207 14.0704 6.7099 14.0677 6.6991 14.065C6.6883 14.0617 6.6775 14.059 6.66738 14.0556C6.6559 14.0522 6.6451 14.0488 6.63363 14.0448C6.6235 14.0414 6.61338 14.038 6.60325 14.0347L6.59717 14.0326C6.5884 14.0293 6.5803 14.0266 6.57152 14.0232C6.56207 14.0191 6.55263 14.0158 6.54318 14.0117C6.53305 14.0077 6.5236 14.0036 6.51415 13.9996L6.50807 13.9969C6.50132 13.9935 6.49457 13.9908 6.48782 13.9874C6.47905 13.9834 6.47027 13.9786 6.4615 13.9746C6.45272 13.9699 6.44395 13.9658 6.43585 13.9611C6.42775 13.9564 6.41965 13.9523 6.41155 13.9476C6.4021 13.9422 6.39535 13.9381 6.38793 13.9334C6.3805 13.9287 6.3724 13.924 6.36497 13.9186C6.35755 13.9138 6.3508 13.9091 6.34337 13.9037L6.3238 13.8895C6.3157 13.8835 6.30895 13.8787 6.3022 13.8727L6.26508 13.8416C6.259 13.8355 6.25293 13.8308 6.24753 13.8254C6.24213 13.8207 6.23673 13.8153 6.23133 13.8099L6.21715 13.795L6.2401 13.7653L6.2131 13.7903L6.20027 13.7761L6.18407 13.7572C6.18002 13.7525 6.17598 13.7471 6.17193 13.7417L6.1618 13.7282L6.14763 13.708C6.14425 13.7026 6.14087 13.6978 6.1375 13.6924L6.1645 13.6668L6.13345 13.687C6.13007 13.6823 6.1267 13.6776 6.124 13.6722C6.1213 13.6675 6.11793 13.6614 6.11455 13.656L6.0781 13.5831L6.07203 13.5696L6.06663 13.5554C6.05718 13.5318 6.04975 13.5082 6.04233 13.4832C6.0403 13.4764 6.03962 13.4737 6.03895 13.4704L6.03152 13.4407L6.02883 13.4272L6.06393 13.413L6.02747 13.4204L6.02342 13.3968L6.05853 13.3833L6.02207 13.3894L6.01668 13.3455L5.41728 12.8629V12.8872C5.40985 13.3637 5.54823 13.7491 5.82768 14.0326C6.14695 14.3566 6.64443 14.5355 7.22763 14.5355V14.5726L7.23032 14.5355C7.57255 14.5355 8.05653 14.4802 8.41698 14.2203L8.44128 14.2027L8.44263 14.2041C8.48515 14.1757 8.581 14.1035 8.67078 13.982C8.90163 13.712 9.01975 13.363 9.02582 12.9418C9.03662 12.171 8.58505 11.8018 7.852 11.4548L7.8547 11.4508Z" fill="white"/>
<path d="M7.93262 10.5828L8.88301 10.5821L8.36327 10.1636L7.93262 10.5828Z" fill="white"/>
<path d="M5.55859 12.7819L6.07834 13.1997L6.50832 12.7805L5.55859 12.7819Z" fill="white"/>
<path d="M12.1543 14.3668L13.2343 14.3654L12.7699 13.8727L12.1543 14.3668Z" fill="white"/>
<path d="M15.9912 14.3627L17.0516 14.362L16.4185 13.8693L15.9912 14.3627Z" fill="white"/>
<path d="M15.4288 12.8042L15.4302 12.8055H16.0134L15.8554 12.3296L14.9705 9.63232H14.3711L14.2766 9.89558L13.3404 12.4451L13.2061 12.8048H13.5091H13.5085L15.4288 12.8035V12.8042ZM14.5426 10.7643C14.5426 10.7643 14.5864 10.6421 14.6276 10.526L14.6647 10.4207L15.2918 12.4491H13.9843L14.5412 10.7643H14.5426Z" fill="white"/>
<path d="M15.3283 9.05322H14.0782L14.0283 9.19295L12.1133 14.2116L12.7154 13.7276L14.2699 9.4859L15.0765 9.48522L15.1035 9.56825L16.4704 13.7235L17.111 14.2217L15.3594 9.13422L15.3283 9.05322Z" fill="white"/>
<path d="M16.0605 12.9513L13.1485 12.954L13.0972 13.1113L12.8623 13.7545L13.3753 14.2993L13.5238 13.8511L13.6251 13.5615L15.5832 13.5601C15.615 13.5601 15.6433 13.5811 15.6528 13.6114L15.8627 14.2898L16.3271 13.7525L16.0618 12.952L16.0605 12.9513Z" fill="white"/>
<path d="M18.0009 9.70859V9.46222H18.0758L19.2908 9.45884L19.4433 9.46492C19.4508 9.46492 19.4589 9.46627 19.4676 9.46694L19.7302 9.50272L19.9503 9.55537C19.9563 9.55739 20.0819 9.59654 20.1973 9.64649L20.2034 9.64919C20.2122 9.65324 20.2209 9.65729 20.2297 9.66134C20.2446 9.66809 20.2594 9.67551 20.2743 9.68294C20.2884 9.69036 20.3019 9.69846 20.3154 9.70589L20.3208 9.70927C20.3323 9.71534 20.3458 9.72344 20.36 9.73154C20.3742 9.74031 20.3883 9.74909 20.4018 9.75854L20.4093 9.76326C20.4201 9.77001 20.4302 9.77676 20.4403 9.78419C20.4538 9.79364 20.466 9.80377 20.4788 9.81322L20.4835 9.81659C20.4936 9.82469 20.5038 9.83279 20.5139 9.84089C20.5233 9.84899 20.5328 9.85709 20.5422 9.86519L20.5611 9.88207C20.5686 9.88882 20.5753 9.89489 20.5821 9.90164C20.5915 9.91109 20.601 9.92054 20.6097 9.92999L20.6246 9.94552C20.6313 9.95227 20.6381 9.95969 20.6442 9.96712C20.6523 9.97657 20.6597 9.98602 20.6678 9.99547L20.6793 10.0103C20.686 10.0191 20.6934 10.0279 20.6995 10.0366C20.7076 10.0474 20.715 10.0589 20.7225 10.0697L20.7333 10.0859C20.7387 10.094 20.7441 10.1014 20.7488 10.1095C20.7555 10.121 20.7623 10.1332 20.769 10.1453L20.7785 10.1622C20.7832 10.1703 20.7873 10.1784 20.7913 10.1865C20.7974 10.1986 20.8028 10.2115 20.8082 10.2236L20.8156 10.2405C20.8197 10.2493 20.8237 10.258 20.8271 10.2668C20.8325 10.2803 20.8372 10.2945 20.8419 10.3087L20.8487 10.3276C20.8514 10.3357 20.8541 10.3431 20.8568 10.3512C20.8615 10.3667 20.8656 10.3836 20.8696 10.3998L20.8737 10.4146C20.8757 10.4227 20.8784 10.4315 20.8804 10.4396C20.8838 10.4551 20.8865 10.4713 20.8892 10.4875L20.8926 10.5085C20.8939 10.5159 20.8953 10.524 20.8966 10.5314C20.8993 10.549 20.9007 10.5672 20.9027 10.5861L20.9047 10.607C20.9054 10.6138 20.9061 10.6198 20.9067 10.6266C20.9088 10.659 20.9101 10.6921 20.9101 10.7245C20.9088 11.3792 20.634 11.8058 20.0947 11.9921C19.8126 12.0893 19.5088 12.1028 19.2766 12.1035H19.2537L19.2584 12.1055H19.0795C19.1133 12.1406 19.1632 12.1899 19.2186 12.2419L20.6901 13.6951L21.5358 14.1481L20.1386 12.6442L20.1305 12.6394L19.9962 12.5321L20.0772 12.5179C20.0772 12.5179 20.1602 12.5031 20.2365 12.4808H20.2385C20.2783 12.4693 20.3107 12.4592 20.3404 12.4491C20.549 12.3775 20.7339 12.2702 20.9061 12.1224C21.2436 11.8288 21.4629 11.2942 21.4643 10.7609C21.4656 10.2067 21.2469 9.71939 20.8473 9.38932C20.7198 9.28469 20.5672 9.20504 20.3823 9.14564L20.3532 9.13957C20.331 9.13282 20.3067 9.12539 20.2817 9.11864L20.2263 9.10379C20.1622 9.08759 20.1075 9.07612 20.0623 9.07004H20.0569C19.7822 9.02414 19.4946 9.01807 19.2496 9.01807L17.6553 9.02279L17.6505 9.01807H17.4757V9.14227L17.4629 14.2439L17.9934 13.7269L18.0036 9.70859H18.0009Z" fill="white"/>
<path d="M17.5674 14.3458L18.5596 14.3424L18.0649 13.8605L17.5674 14.3458Z" fill="white"/>
<path d="M20.6749 13.8564L20.4062 14.3512L21.6003 14.3526L20.6749 13.8564Z" fill="white"/>
<path d="M18.9085 12.146L18.7309 11.9631L19.2757 11.9577C19.4971 11.957 19.7846 11.9448 20.0458 11.8544C20.519 11.691 20.7593 11.311 20.7614 10.7251C20.7627 10.2432 20.5116 9.90837 20.0155 9.73017C19.6841 9.61069 19.356 9.60461 19.2939 9.60461H19.2838L18.2308 9.60799L18.2382 9.60461H18.1511L18.1477 10.5638L18.1444 11.8476L18.1464 12.2304L18.1437 12.227L18.1396 13.7255L18.658 14.2304L18.6614 12.9452V12.5685L20.2652 14.2965L20.5521 13.7687L18.9078 12.1446L18.9085 12.146ZM18.6655 11.4258L18.6689 10.0839L19.2777 10.0825C19.4127 10.0825 19.6125 10.0886 19.7873 10.1385C20.1107 10.2317 20.2672 10.4436 20.2659 10.7879C20.2652 11.1267 20.1208 11.3414 19.8244 11.444C19.6908 11.4899 19.5234 11.5128 19.3121 11.5135L18.7539 11.5149H18.6648V11.4258H18.6655Z" fill="white"/>
<path d="M12.6488 9.21448L12.1095 9.7214L11.2326 9.72275L11.232 9.7214H11.0801V13.7809L11.6113 14.3013L11.6133 10.1912L12.6488 10.1905V9.21448Z" fill="white"/>
<path d="M12.0463 9.57427L12.5343 9.12L9.47656 9.12337L9.96459 9.5763L12.0463 9.57427Z" fill="white"/>
<path d="M10.9348 13.7808L10.9361 9.72274H9.93575C9.91753 9.72341 9.89998 9.71666 9.88648 9.70451L9.36133 9.21716V10.1939L10.3313 10.1932C10.3509 10.1932 10.3691 10.2006 10.3826 10.2148C10.3968 10.229 10.4042 10.2472 10.4042 10.2675L10.4029 14.3033L10.9348 13.7815V13.7808Z" fill="white"/>
<path d="M10.5098 14.4026L11.5047 14.4019L11.0072 13.9146L10.5098 14.4026Z" fill="white"/>
</g>
<defs>
<filter id="filter0_d_8_17683" x="3.84004" y="4.05005" width="19.3199" height="21.8828" filterUnits="userSpaceOnUse" color-interpolation-filters="sRGB">
<feFlood flood-opacity="0" result="BackgroundImageFix"/>
<feColorMatrix in="SourceAlpha" type="matrix" values="0 0 0 0 0 0 0 0 0 0 0 0 0 0 0 0 0 0 127 0" result="hardAlpha"/>
<feOffset dy="1.2"/>
<feGaussianBlur stdDeviation="0.6"/>
<feComposite in2="hardAlpha" operator="out"/>
<feColorMatrix type="matrix" values="0 0 0 0 0 0 0 0 0 0 0 0 0 0 0 0 0 0 0.25 0"/>
<feBlend mode="normal" in2="BackgroundImageFix" result="effect1_dropShadow_8_17683"/>
<feBlend mode="normal" in="SourceGraphic" in2="effect1_dropShadow_8_17683" result="shape"/>
</filter>
</defs>
</svg>
