<svg width="32" height="32" viewBox="0 0 32 32" fill="none" xmlns="http://www.w3.org/2000/svg">
<g clip-path="url(#clip0_2005_1834)">
<path fill-rule="evenodd" clip-rule="evenodd" d="M30.3287 6.4455C30.8252 6.94519 31.1817 7.56651 31.3627 8.24729C32.0317 10.76 32.0317 16 32.0317 16C32.0317 16 32.0317 21.24 31.3627 23.7527C31.1817 24.4335 30.8252 25.0549 30.3287 25.5545C29.8322 26.0542 29.2132 26.4147 28.5336 26.6C26.0317 27.2727 16.0317 27.2727 16.0317 27.2727C16.0317 27.2727 6.03174 27.2727 3.52992 26.6C2.85031 26.4147 2.23128 26.0542 1.73479 25.5545C1.23829 25.0549 0.881746 24.4335 0.700829 23.7527C0.0317384 21.24 0.0317383 16 0.0317383 16C0.0317383 16 0.0317384 10.76 0.700829 8.24729C0.881746 7.56651 1.23829 6.94519 1.73479 6.4455C2.23128 5.94582 2.85031 5.5853 3.52992 5.40002C6.03174 4.72729 16.0317 4.72729 16.0317 4.72729C16.0317 4.72729 26.0317 4.72729 28.5336 5.40002C29.2132 5.5853 29.8322 5.94582 30.3287 6.4455ZM21.1227 16.0001L12.759 11.2419V20.7582L21.1227 16.0001Z" fill="white"/>
</g>
<defs>
<clipPath id="clip0_2005_1834">
<rect width="32" height="32" fill="white"/>
</clipPath>
</defs>
</svg>
