<svg width="123" height="28" viewBox="0 0 123 28" fill="none" xmlns="http://www.w3.org/2000/svg">
<path d="M19.5718 14.0281C19.5389 11.0157 22.0364 9.54793 22.1569 9.4822C20.7438 7.42288 18.5531 7.13807 17.7863 7.11617C15.946 6.919 14.1606 8.21155 13.2295 8.21155C12.2984 8.21155 10.8306 7.12712 9.27513 7.15998C7.27057 7.19284 5.39746 8.35395 4.37875 10.1504C2.26465 13.8199 3.84201 19.2092 5.86848 22.1777C6.88719 23.6346 8.0702 25.2558 9.62565 25.19C11.1482 25.1243 11.7178 24.2261 13.5471 24.2261C15.3764 24.2261 15.8913 25.19 17.4796 25.1572C19.1117 25.1353 20.1414 23.7003 21.1163 22.2325C22.2883 20.5675 22.7593 18.9244 22.7813 18.8478C22.7484 18.8368 19.6156 17.6428 19.5827 14.0281H19.5718Z" fill="white"/>
<path d="M16.5812 5.16665C17.4027 4.14794 17.9614 2.7568 17.7971 1.34375C16.614 1.39852 15.1353 2.16529 14.2809 3.16209C13.5251 4.0384 12.8569 5.48431 13.0321 6.84259C14.3576 6.94118 15.7268 6.17441 16.5812 5.16665Z" fill="white"/>
<path d="M45.9747 15.3532H40.5807L39.2807 19.1848H37L42.1088 5.02148H44.4808L49.5896 19.1848H47.2633L45.9633 15.3532H45.9747ZM41.1395 13.5856H45.4159L43.3062 7.37064H43.2492L41.1395 13.5856Z" fill="white"/>
<path d="M60.6414 14.0185C60.6414 17.2229 58.9194 19.287 56.3308 19.287C54.8597 19.287 53.6965 18.6256 53.0808 17.4852H53.0351V22.594H50.9141V8.85263H52.9667V10.5746H53.0009C53.5939 9.46843 54.8483 8.75 56.2852 8.75C58.908 8.75 60.63 10.8255 60.63 14.0185H60.6414ZM58.4633 14.0185C58.4633 11.9316 57.3799 10.5518 55.7378 10.5518C54.0957 10.5518 53.0237 11.9544 53.0237 14.0185C53.0237 16.0825 54.1185 17.4966 55.7378 17.4966C57.3571 17.4966 58.4633 16.1282 58.4633 14.0185Z" fill="white"/>
<path d="M71.9988 14.0185C71.9988 17.2229 70.2768 19.287 67.6882 19.287C66.2171 19.287 65.054 18.6256 64.4382 17.4852H64.3926V22.594H62.2715V8.85263H64.3241V10.5746H64.3583C64.9513 9.46843 66.2057 8.75 67.6426 8.75C70.2654 8.75 71.9874 10.8255 71.9874 14.0185H71.9988ZM69.8207 14.0185C69.8207 11.9316 68.7374 10.5518 67.0952 10.5518C65.4531 10.5518 64.3812 11.9544 64.3812 14.0185C64.3812 16.0825 65.4759 17.4966 67.0952 17.4966C68.7145 17.4966 69.8207 16.1282 69.8207 14.0185Z" fill="white"/>
<path d="M79.5104 15.2394C79.6701 16.642 81.0271 17.5657 82.8973 17.5657C84.7675 17.5657 85.9649 16.642 85.9649 15.3762C85.9649 14.2815 85.1895 13.6201 83.3535 13.1639L81.5175 12.7192C78.9175 12.092 77.7087 10.8718 77.7087 8.89894C77.7087 6.45856 79.8412 4.78223 82.8631 4.78223C85.8851 4.78223 87.9035 6.45856 87.9719 8.89894H85.8281C85.7026 7.48489 84.5281 6.62962 82.8289 6.62962C81.1298 6.62962 79.9552 7.49629 79.9552 8.7507C79.9552 9.75422 80.6964 10.3358 82.521 10.7919L84.0833 11.1797C86.9912 11.8639 88.2 13.0385 88.2 15.1025C88.2 17.7482 86.0904 19.4131 82.7377 19.4131C79.6017 19.4131 77.4806 17.7938 77.3438 15.228H79.5104V15.2394Z" fill="white"/>
<path d="M92.7862 6.41309V8.85347H94.7476V10.5298H92.7862V16.2202C92.7862 17.1097 93.1739 17.5202 94.0406 17.5202C94.2573 17.5202 94.5994 17.486 94.7362 17.4746V19.1396C94.4967 19.1966 94.0292 19.2422 93.5616 19.2422C91.4748 19.2422 90.6537 18.4553 90.6537 16.4597V10.5412H89.1484V8.86487H90.6537V6.42449H92.7862V6.41309Z" fill="white"/>
<path d="M95.8789 14.0188C95.8789 10.7688 97.7947 8.72754 100.771 8.72754C103.747 8.72754 105.663 10.7688 105.663 14.0188C105.663 17.2689 103.77 19.3101 100.771 19.3101C97.7719 19.3101 95.8789 17.2803 95.8789 14.0188ZM103.519 14.0188C103.519 11.7951 102.493 10.4723 100.782 10.4723C99.0719 10.4723 98.0456 11.7951 98.0456 14.0188C98.0456 16.2425 99.0605 17.5654 100.782 17.5654C102.504 17.5654 103.519 16.2653 103.519 14.0188Z" fill="white"/>
<path d="M107.43 8.85329H109.448V10.6095H109.494C109.813 9.44628 110.76 8.73926 111.98 8.73926C112.288 8.73926 112.539 8.78487 112.71 8.81908V10.8033C112.539 10.7349 112.174 10.6779 111.763 10.6779C110.395 10.6779 109.551 11.6016 109.551 13.0498V19.1736H107.43V8.85329Z" fill="white"/>
<path d="M122.471 16.1513C122.186 18.0215 120.361 19.3101 118.024 19.3101C115.025 19.3101 113.154 17.3031 113.154 14.0644C113.154 10.8258 115.024 8.72754 117.932 8.72754C120.84 8.72754 122.585 10.689 122.585 13.825V14.5548H115.298V14.6802C115.298 16.4478 116.404 17.5996 118.081 17.5996C119.255 17.5996 120.179 17.0408 120.464 16.1513H122.471ZM115.31 13.0609H120.475C120.43 11.4758 119.415 10.4381 117.944 10.4381C116.473 10.4381 115.424 11.4986 115.31 13.0609Z" fill="white"/>
</svg>
