<svg width="142" height="20" viewBox="0 0 142 20" fill="none" xmlns="http://www.w3.org/2000/svg">
<g clip-path="url(#clip0_2005_11710)">
<path d="M26.5449 4.31763C26.5449 4.14624 26.6834 3.98804 26.8547 3.98804H31.0406C34.3498 3.98804 37.0591 6.67756 37.0591 9.97353C37.0591 13.2695 34.3498 15.992 31.0406 15.992H26.8547C26.6834 15.992 26.5449 15.8404 26.5449 15.6624V4.31763ZM30.8692 13.4607C32.8073 13.4607 34.2114 11.9313 34.2114 9.98013C34.2114 8.02891 32.8073 6.51935 30.8692 6.51935H29.2213V13.4673H30.8692V13.4607Z" fill="#F4F4F5"/>
<path d="M37.4211 15.5503L42.7869 4.00782C42.8397 3.90235 42.9583 3.81665 43.077 3.81665H43.2484C43.367 3.81665 43.4923 3.90235 43.5384 4.00782L48.9043 15.5503C49.0098 15.7745 48.8713 15.9986 48.6142 15.9986H46.7092C46.3993 15.9986 46.2609 15.8931 46.1093 15.5701L45.4896 14.2122H40.8225L40.2029 15.5833C40.1172 15.7876 39.9326 15.992 39.5898 15.992H37.7045C37.4475 15.992 37.309 15.7679 37.4145 15.5437L37.4211 15.5503ZM44.4745 11.8852L43.1693 9.05066H43.1495L41.8641 11.8852H44.4745Z" fill="#F4F4F5"/>
<path d="M50.4414 4.31763C50.4414 4.14624 50.5798 3.98804 50.7644 3.98804H52.8079C52.9793 3.98804 53.1375 4.13965 53.1375 4.31763V13.4739H57.2179C57.4091 13.4739 57.5409 13.6321 57.5409 13.7969V15.6624C57.5409 15.8338 57.4025 15.992 57.2179 15.992H50.771C50.5798 15.992 50.448 15.8404 50.448 15.6624V4.31763H50.4414Z" fill="#F4F4F5"/>
<path d="M64.4816 3.82324C66.1955 3.82324 67.4678 4.35719 68.6345 5.4185C68.7927 5.55693 68.7927 5.76128 68.6477 5.89971L67.3095 7.29061C67.1843 7.40927 66.9997 7.40927 66.8811 7.29061C66.2417 6.7237 65.4045 6.41388 64.5673 6.41388C62.6293 6.41388 61.2054 8.02891 61.2054 9.94717C61.2054 11.8654 62.649 13.4277 64.5805 13.4277C65.3847 13.4277 66.2614 13.1377 66.8811 12.6037C66.9997 12.4983 67.2239 12.4983 67.3227 12.6235L68.6609 14.0474C68.7796 14.166 68.7598 14.3901 68.6411 14.5088C67.4743 15.6426 65.9977 16.1766 64.475 16.1766C61.0472 16.1766 58.2852 13.4475 58.2852 10.0197C58.2852 6.59186 61.0472 3.82983 64.475 3.82983L64.4816 3.82324Z" fill="#F4F4F5"/>
<path d="M75.9049 3.82324C79.3328 3.82324 82.0816 6.58527 82.0816 10.0131C82.0816 13.4409 79.3393 16.17 75.9049 16.17C72.4705 16.17 69.748 13.4409 69.748 10.0131C69.748 6.58527 72.4771 3.82324 75.9049 3.82324ZM75.9049 13.4277C77.7902 13.4277 79.3328 11.8852 79.3328 10.0131C79.3328 8.14097 77.7902 6.5655 75.9049 6.5655C74.0196 6.5655 72.4903 8.12779 72.4903 10.0131C72.4903 11.8984 74.0328 13.4277 75.9049 13.4277Z" fill="#F4F4F5"/>
<path d="M85.2525 4.09351C85.2723 3.9419 85.4239 3.81665 85.5623 3.81665H85.8392C85.9249 3.81665 86.0765 3.88257 86.1292 3.98804L90.1108 11.3974H90.1437L94.1187 3.98804C94.1714 3.88257 94.323 3.81665 94.4087 3.81665H94.6856C94.824 3.81665 94.9756 3.93531 94.9954 4.09351L96.9334 15.6228C96.9664 15.847 96.8148 15.9986 96.6104 15.9986H94.5867C94.4285 15.9986 94.2769 15.8602 94.2637 15.7217L93.4924 10.4218H93.4595L90.5788 15.9788C90.526 16.0843 90.3744 16.17 90.2887 16.17H89.9789C89.8734 16.17 89.7416 16.0843 89.6889 15.9788L86.7884 10.4218H86.7554L86.004 15.7217C85.9842 15.8602 85.8524 15.9986 85.681 15.9986H83.6572C83.4529 15.9986 83.2947 15.847 83.3342 15.6228L85.2723 4.09351H85.2525Z" fill="#F4F4F5"/>
<path d="M100.922 14.3704L101.727 12.9465C101.865 12.7224 102.188 12.7553 102.307 12.841C102.373 12.874 103.612 13.7837 104.746 13.7837C105.431 13.7837 105.926 13.3552 105.926 12.7553C105.926 12.0368 105.326 11.4831 104.159 11.0217C102.682 10.4416 100.83 9.28798 100.83 7.23128C100.83 5.53715 102.148 3.81665 104.792 3.81665C106.578 3.81665 107.949 4.72634 108.464 5.10208C108.668 5.22074 108.635 5.53056 108.569 5.64921L107.692 6.96761C107.574 7.15877 107.264 7.31039 107.112 7.19173C106.954 7.10604 105.708 6.16339 104.66 6.16339C104.04 6.16339 103.579 6.57209 103.579 7.04012C103.579 7.67295 104.093 8.15416 105.451 8.70788C106.789 9.24183 108.912 10.2834 108.912 12.6169C108.912 14.3836 107.382 16.17 104.864 16.17C102.636 16.17 101.404 15.2471 101.008 14.845C100.837 14.6736 100.784 14.6077 100.922 14.3638V14.3704Z" fill="#F4F4F5"/>
<path d="M116.21 3.82324C119.637 3.82324 122.386 6.58527 122.386 10.0131C122.386 13.4409 119.644 16.17 116.21 16.17C112.775 16.17 110.053 13.4409 110.053 10.0131C110.053 6.58527 112.782 3.82324 116.21 3.82324ZM116.21 13.4277C118.095 13.4277 119.637 11.8852 119.637 10.0131C119.637 8.14097 118.095 6.5655 116.21 6.5655C114.324 6.5655 112.795 8.12779 112.795 10.0131C112.795 11.8984 114.338 13.4277 116.21 13.4277Z" fill="#F4F4F5"/>
<path d="M124.297 4.31763C124.297 4.14624 124.435 3.98804 124.62 3.98804H131.719C131.911 3.98804 132.042 4.13965 132.042 4.31763V6.18975C132.042 6.36114 131.904 6.51276 131.719 6.51276H126.967V8.98474H130.876C131.047 8.98474 131.199 9.14295 131.199 9.31434V11.1865C131.199 11.3578 131.047 11.5095 130.876 11.5095H126.967V15.6756C126.967 15.847 126.815 16.0052 126.644 16.0052H124.62C124.429 16.0052 124.297 15.8536 124.297 15.6756V4.31763Z" fill="#F4F4F5"/>
<path d="M135.662 6.51276H133.21C133.019 6.51276 132.887 6.36114 132.887 6.18975V4.31763C132.887 4.14624 133.025 3.98804 133.21 3.98804H140.823C141.015 3.98804 141.146 4.13965 141.146 4.31763V6.18975C141.146 6.36114 141.008 6.51276 140.823 6.51276H138.371V15.669C138.371 15.8404 138.213 15.9986 138.048 15.9986H135.992C135.82 15.9986 135.669 15.847 135.669 15.669V6.51276H135.662Z" fill="#F4F4F5"/>
<path d="M2.12699 0C1.89627 0 1.71169 0.290046 1.92264 0.500989L6.73477 5.31312C7.05777 5.63612 7.65764 5.735 8.06634 5.53065L18.04 0.553724C18.3168 0.415293 18.1982 0 17.9081 0H2.12699Z" fill="#F4F4F5"/>
<path d="M9.00286 6.46666C8.59416 6.67101 8.52165 7.10608 8.84466 7.42908L12.4439 11.0283C12.7669 11.3513 13.2942 11.3513 13.6238 11.0283L20.0576 4.59454C20.3542 4.29131 20.5322 3.87602 20.5322 3.41458V1.52928C20.5322 1.06784 20.0905 0.916227 19.8137 1.05466L9.00286 6.46666Z" fill="#F4F4F5"/>
<path d="M14.5137 13.0916C14.1907 12.7686 14.1907 12.2346 14.5137 11.9116L20.0444 6.38099C20.2224 6.203 20.5388 6.31507 20.5454 6.58534V18.3058C20.5322 18.6486 20.1565 18.7211 19.9785 18.5431L14.5137 13.085V13.0916Z" fill="#F4F4F5"/>
<path d="M13.6303 13.9749C13.3073 13.6519 12.7734 13.6519 12.4504 13.9749L7.01201 19.4133C6.76811 19.6572 6.95268 20 7.22955 20H18.8446C19.1742 20 19.2665 19.611 19.0885 19.4331L13.6303 13.9749Z" fill="#F4F4F5"/>
<path d="M7.73089 8.07511L11.5674 11.9116C11.8904 12.2346 11.8904 12.7686 11.5674 13.0916L6.12904 18.53C5.80604 18.853 5.27868 18.853 4.94908 18.53L1.02687 14.6077C0.736821 14.3177 0.539062 13.8958 0.539062 13.4805V11.7402C0.539062 11.1206 0.888436 10.5405 1.44216 10.2636L6.26747 7.8378C6.6564 7.64004 7.24968 7.5939 7.73089 8.07511Z" fill="#F4F4F5"/>
<path d="M0.539062 1.58864C0.539062 1.35133 0.835701 1.17994 1.04005 1.38429L5.66761 6.00525C5.92469 6.26234 5.80604 6.66445 5.54236 6.79629L1.29055 8.9189C0.881844 9.12325 0.545654 8.80683 0.545654 8.49701V1.58864H0.539062Z" fill="#F4F4F5"/>
<path d="M1.04005 16.3876C0.842293 16.1898 0.539062 16.3415 0.539062 16.592V19.1694C0.539062 19.6243 0.914804 20 1.36965 20H3.9537C4.21738 20 4.33603 19.6836 4.16464 19.5122L1.04005 16.3876Z" fill="#F4F4F5"/>
</g>
<defs>
<clipPath id="clip0_2005_11710">
<rect width="140.606" height="20" fill="white" transform="translate(0.539062)"/>
</clipPath>
</defs>
</svg>
