<svg width="127" height="20" viewBox="0 0 127 20" fill="none" xmlns="http://www.w3.org/2000/svg">
<g clip-path="url(#clip0_3_15862)">
<path d="M85.547 4.34793L85.5769 4.37435L85.5881 4.41587L85.5806 4.37435L87.425 5.87652C87.3652 4.86501 87.1562 4.06486 86.4393 3.12506C85.3641 1.75122 83.5197 1.26056 82.1532 1.26056C80.6822 1.26056 79.2336 1.77009 78.1658 2.65327L78.1546 2.6646C78.1098 2.69857 78.0613 2.74386 78.009 2.79292L77.9716 2.82689C77.9082 2.88728 77.8522 2.9439 77.8074 2.98541L77.7402 3.05335C76.9337 3.89879 76.5006 4.9556 76.482 6.11808C76.4446 8.78651 78.4122 10.0018 80.3424 10.8397L80.7531 11.0171C81.0929 11.1643 81.455 11.3191 81.8247 11.4965L81.8919 11.5266C82.7506 11.9154 83.7213 12.357 83.7064 13.5987C83.6989 14.0328 83.5533 14.4442 83.2807 14.7839L83.2583 14.8065C82.9037 15.2368 82.381 15.4897 81.8321 15.4897C80.5963 15.4897 80.04 14.4291 79.9168 13.4289L78.4682 14.8556V14.8669L78.4495 14.8744L78.4309 14.8933L78.4234 14.8858L78.3599 14.9084L78.4757 14.8933L78.4943 15.0179L78.3823 15.0594L78.4981 15.0367L78.5205 15.1349L78.5317 15.1839L78.5429 15.2179L78.5578 15.267L78.6213 15.4406L78.6362 15.4783L78.681 15.5689L78.7072 15.618L78.7258 15.6482C78.7408 15.6746 78.752 15.6935 78.7594 15.7086L78.8864 15.8897L78.92 15.9313L78.961 15.9803L78.9984 16.0218L79.0432 16.0671L79.0842 16.1086L79.1328 16.1539L79.1813 16.1955L79.4016 16.3577L79.4613 16.3955C79.4875 16.4106 79.5061 16.4219 79.5248 16.4332L79.5883 16.4672L79.8123 16.5767C79.8384 16.588 79.8646 16.5993 79.8944 16.6106L79.9131 16.6182L79.9728 16.6408C80.0027 16.6521 80.0326 16.6635 80.0624 16.671C80.096 16.6823 80.1184 16.6937 80.1446 16.7012C80.1707 16.7088 80.1931 16.7163 80.2192 16.7239L80.3275 16.7578C80.3536 16.7654 80.3835 16.7729 80.4134 16.7805L80.4545 16.7918C80.4769 16.7993 80.4993 16.8031 80.5217 16.8069C80.5553 16.8144 80.5926 16.822 80.6262 16.8295L80.6673 16.8371C80.6897 16.8409 80.7121 16.8446 80.7345 16.8484L80.9622 16.8861C80.9995 16.8899 81.0369 16.8937 81.0742 16.9012L81.2049 16.9163C81.246 16.9201 81.287 16.9239 81.3318 16.9277L81.4588 16.939C81.5148 16.939 81.5745 16.9465 81.6342 16.9465H81.7313C81.8209 16.9541 81.918 16.9541 82.0151 16.9541C83.1463 16.9541 83.9976 16.6106 84.5427 15.9313C84.636 15.8142 84.7181 15.6935 84.7928 15.5614C85.0803 15.0481 85.2334 14.4027 85.2408 13.6516C85.2408 13.5383 85.2408 10.8435 81.806 9.83576C81.6454 9.79047 81.4849 9.73763 81.302 9.67347C79.8309 9.16016 78.0799 8.1411 78.0986 6.20866L78.1098 5.93314V5.90672L78.1247 5.76707L78.1322 5.70668L78.1397 5.66139C78.1434 5.63119 78.1471 5.60477 78.1546 5.57835L78.2143 5.29151C78.2218 5.26886 78.2255 5.24622 78.233 5.22357C78.2405 5.1896 78.2479 5.16318 78.2554 5.13299L78.2778 5.06505C78.289 5.03108 78.2965 5.00089 78.3077 4.97069C78.3151 4.94805 78.3263 4.92163 78.3338 4.89521C78.345 4.86879 78.3562 4.83482 78.3674 4.80462L78.401 4.72536C78.4122 4.69517 78.4271 4.66497 78.4421 4.63478C78.4533 4.60836 78.4682 4.57817 78.4794 4.55175C78.4943 4.52155 78.5093 4.49136 78.5242 4.45739L78.569 4.37435C78.5877 4.34416 78.6026 4.31019 78.6213 4.28C78.6362 4.25358 78.6549 4.22338 78.6736 4.19696C78.6922 4.16677 78.7109 4.13657 78.7333 4.10638C78.7482 4.08373 78.7632 4.06109 78.7781 4.04222C78.9573 3.79311 79.1888 3.55156 79.2336 3.50627C79.2784 3.46097 79.3232 3.42323 79.368 3.38549L79.4053 3.35529C79.4389 3.3251 79.4763 3.2949 79.5136 3.26471C79.5621 3.22697 79.6181 3.18922 79.6704 3.15148L79.7227 3.11374C79.7637 3.08354 79.8048 3.05335 79.8496 3.02693C79.9131 2.98919 79.9766 2.95522 80.0438 2.92125L80.0998 2.89106C80.1371 2.86841 80.1782 2.84954 80.2192 2.83067C80.2827 2.80047 80.3499 2.77405 80.4171 2.74763L80.4993 2.71366C80.5366 2.69857 80.5777 2.67969 80.6187 2.66837C80.6822 2.64573 80.7494 2.62685 80.8129 2.60798L80.9174 2.57779C80.9585 2.56647 80.9958 2.55514 81.0369 2.54382C81.1153 2.52495 81.1974 2.50985 81.2796 2.49475L81.3244 2.48721L81.3841 2.47588C81.4177 2.46833 81.4476 2.46456 81.4812 2.45701C81.638 2.43437 81.7985 2.41549 81.9516 2.40795C82.0487 2.4004 82.142 2.39662 82.2353 2.39662H82.2802H82.3138H82.4071C82.4407 2.39662 82.4743 2.39662 82.5042 2.39662C82.5303 2.39662 82.5527 2.39662 82.5788 2.39662L82.758 2.40417C82.7954 2.40417 82.8327 2.41172 82.8701 2.41172C82.9186 2.41549 82.9597 2.41927 83.0007 2.42304C83.0418 2.42682 83.0791 2.43437 83.1165 2.43814C83.1538 2.44191 83.1911 2.44946 83.2285 2.45324C83.2658 2.46079 83.3031 2.46456 83.3405 2.47211C83.3741 2.47966 83.4114 2.48721 83.445 2.49475C83.4786 2.5023 83.516 2.50985 83.5496 2.5174C83.5832 2.52495 83.6168 2.53627 83.6466 2.54382C83.684 2.55514 83.7138 2.56269 83.7437 2.57401C83.7736 2.58156 83.8034 2.59289 83.8333 2.60421L83.8632 2.61553C83.8856 2.62308 83.9042 2.63063 83.9266 2.63818C83.949 2.64573 83.9752 2.65705 84.0013 2.66837L84.0424 2.68347L84.0984 2.70611C84.132 2.72121 84.1619 2.73631 84.1955 2.75141L84.2216 2.76273L84.2589 2.7816C84.3075 2.80802 84.3597 2.83444 84.4045 2.86086L84.4195 2.87218C84.4605 2.8986 84.5016 2.92125 84.5427 2.94767L84.5725 2.97032C84.6099 2.99674 84.6397 3.01561 84.6696 3.03825L84.7144 3.07222C84.7368 3.09109 84.763 3.10996 84.7854 3.12884L84.8264 3.1628C84.8488 3.18168 84.8712 3.20055 84.8936 3.21942L85.028 3.35152C85.0504 3.37417 85.0654 3.39304 85.084 3.41191L85.1176 3.44965L85.155 3.49494L85.196 3.54778L85.2408 3.60817L85.267 3.64214L85.3081 3.70253L85.3267 3.73272C85.3416 3.75537 85.3528 3.77801 85.3678 3.80066L85.3827 3.82708C85.3977 3.85728 85.4126 3.88747 85.4275 3.91389L85.5582 4.23093V4.25358L85.4611 4.30642L85.5619 4.27622V4.32906L85.547 4.34793Z" fill="white"/>
<path d="M83.441 2.99304L83.4074 2.98549C83.3626 2.97417 83.3178 2.96662 83.273 2.9553L83.2282 2.94775C83.1796 2.9402 83.1348 2.93265 83.09 2.9251L83.0266 2.91755C82.9855 2.91378 82.9407 2.90623 82.8959 2.90246L82.8175 2.89491C82.7727 2.89113 82.7279 2.88736 82.6831 2.88359C82.6532 2.88359 82.6233 2.88359 82.5935 2.87981H82.5711C82.5337 2.87981 82.4964 2.87604 82.4591 2.87604H82.418H82.3209H82.2612H82.2201C82.138 2.87604 82.0521 2.88359 81.9662 2.88736C80.764 2.96285 79.8456 3.40066 79.237 4.19327C78.7143 4.87264 78.5874 5.60485 78.5575 5.97851C78.55 6.06532 78.55 6.13703 78.55 6.1861V6.22761C78.5314 7.88453 80.1144 8.78659 81.4435 9.25082C81.6153 9.31121 81.7721 9.36028 81.9252 9.40557C85.6923 10.5114 85.6923 13.546 85.6886 13.6743C85.6774 14.5084 85.5056 15.2293 85.1771 15.8106C85.1509 15.8596 85.1211 15.9087 85.0875 15.9578L85.0763 15.9728C85.0427 16.0219 85.0128 16.0672 84.9792 16.1163L84.9717 16.1276C84.9195 16.1993 84.8672 16.271 84.8074 16.339L84.729 16.4295L84.7216 16.422L84.7104 16.4333L84.688 16.456C84.6581 16.4899 84.6245 16.5239 84.5909 16.5541C84.5461 16.5956 84.4976 16.6371 84.449 16.6749L84.4117 16.7051C84.3781 16.7315 84.3445 16.7617 84.3072 16.7881C84.2586 16.8221 84.2064 16.856 84.1503 16.89L84.1167 16.9126C84.0757 16.9391 84.0346 16.9655 83.9935 16.9881C83.9413 17.0183 83.8853 17.0447 83.8293 17.0674L83.7733 17.0938C83.7322 17.1127 83.6949 17.1316 83.6538 17.1504C83.5903 17.1768 83.5268 17.1957 83.4634 17.2184L83.3962 17.241C83.3588 17.2523 83.3215 17.2674 83.2842 17.2788C83.2244 17.2976 83.1572 17.309 83.0938 17.324L82.9892 17.3467C82.9556 17.3542 82.922 17.3618 82.8884 17.3693C82.7988 17.3844 82.7055 17.3958 82.6121 17.4033L82.5599 17.4109C82.53 17.4146 82.4964 17.4184 82.4665 17.4222C82.194 17.4448 81.9326 17.4448 81.7049 17.4373H81.6078C81.5406 17.4297 81.4734 17.426 81.4099 17.4222C81.3838 17.4222 81.3539 17.4184 81.3278 17.4146H81.2643C81.2195 17.4071 81.1747 17.4033 81.1299 17.3958C81.1038 17.3958 81.0776 17.392 81.0552 17.3882L80.988 17.3807C80.947 17.3769 80.9059 17.3693 80.8686 17.3656L80.6222 17.324C80.596 17.3203 80.5699 17.3127 80.54 17.3089L80.484 17.2976C80.4504 17.2901 80.4168 17.2825 80.3869 17.275C80.3533 17.2674 80.3197 17.2599 80.2824 17.2486C80.2413 17.2372 80.204 17.2297 80.1667 17.2184C80.1331 17.207 80.0995 17.1995 80.0659 17.1882C80.0323 17.1768 79.9949 17.1655 79.9613 17.1542C79.9352 17.1467 79.9053 17.1353 79.8792 17.124L79.8418 17.1127C79.8157 17.1051 79.7933 17.0938 79.7672 17.0863C79.7373 17.0749 79.7074 17.0636 79.6776 17.0485C79.6477 17.0372 79.6178 17.0221 79.588 17.0108L79.5693 17.0032C79.5469 16.9919 79.5245 16.9844 79.5058 16.973C79.4834 16.9617 79.4573 16.9504 79.4312 16.9353C79.3938 16.9164 79.3677 16.9013 79.3415 16.8862C79.3154 16.8711 79.2893 16.856 79.2631 16.8409C79.2333 16.8221 79.2109 16.8107 79.1885 16.7956C79.1661 16.7805 79.1399 16.7655 79.1175 16.7504C79.0951 16.7353 79.0727 16.7202 79.0503 16.7051L78.9943 16.6635C78.9645 16.6409 78.9421 16.6258 78.9197 16.6069L78.8039 16.5088L78.7479 16.456L78.6956 16.4069L78.6508 16.3578L78.7218 16.2635L78.6359 16.3427L78.5948 16.2974L78.5463 16.237L78.509 16.188L78.4754 16.1427L78.4306 16.0785L78.397 16.0295L78.4828 15.9464L78.3858 16.0106L78.3559 15.9653L78.326 15.9125L78.2103 15.6822L78.1916 15.6369L78.173 15.5916C78.1431 15.5162 78.1207 15.4407 78.0983 15.3614L78.0871 15.3199L78.0759 15.2708L78.0647 15.2255L78.0572 15.1802L78.1655 15.135L78.0535 15.1576L78.0385 15.0821L78.1506 15.0368L78.0348 15.0557L78.0161 14.916L76.1307 13.3837V13.4629C76.1083 14.9764 76.5414 16.2031 77.4188 17.1014C78.4231 18.1317 79.9875 18.6979 81.8206 18.6979V18.8149L81.8281 18.6979C82.9033 18.6979 84.4266 18.5205 85.5579 17.6939L85.6288 17.6411H85.6326C85.7632 17.5581 86.0694 17.3278 86.3531 16.9353C87.0774 16.0785 87.4508 14.9689 87.4695 13.629C87.5031 11.1795 86.0843 10.0057 83.7807 8.90359C83.6837 8.8583 83.553 8.79791 83.3999 8.72997C83.1834 8.63184 82.9257 8.51484 82.6532 8.38651C81.3465 7.7713 80.6595 7.31461 80.428 6.89944C80.2637 6.63901 80.2451 6.32952 80.2488 6.05777C80.2525 5.69921 80.3795 5.36707 80.6072 5.09155C80.932 4.7028 81.4361 4.47257 81.9588 4.47257C83.1087 4.47257 83.4671 5.23497 83.6165 5.90302L85.1173 4.4235L85.0725 4.28385L85.0576 4.24988L85.0091 4.1442C84.9344 3.99323 84.8448 3.86113 84.7402 3.73658C84.7216 3.71016 84.6992 3.68751 84.6768 3.66487C84.6506 3.63845 84.6282 3.6158 84.6021 3.59315L84.5909 3.58183C84.3258 3.33273 83.9898 3.14779 83.5903 3.03078L83.6052 2.91378L83.5716 3.02701C83.5268 3.01569 83.482 3.00059 83.4372 2.98927L83.441 2.99304Z" fill="white"/>
<path d="M87.0173 6.14813L85.3857 4.81958L84.0342 6.15191L87.0173 6.14813Z" fill="white"/>
<path d="M76.5674 13.1382L78.2027 14.4705L79.5542 13.1382H76.5674Z" fill="white"/>
<path d="M97.3037 18.177L100.697 18.1733L99.2377 16.6069L97.3037 18.177Z" fill="white"/>
<path d="M112.7 18.1621L110.707 16.5995L109.366 18.1659L112.7 18.1621Z" fill="white"/>
<path d="M109.437 13.2174L108.941 11.7077L106.159 3.13629H104.274L103.975 3.97041L101.033 12.0738L100.611 13.2174H109.437ZM104.812 6.72942C104.812 6.72942 104.95 6.34067 105.08 5.97079L105.196 5.63488L107.317 12.5683H103.214H102.896L104.808 6.72565L104.812 6.72942Z" fill="white"/>
<path d="M106.492 2.66462L106.578 2.92882L110.871 16.1351L112.887 17.7165L107.381 1.54742L107.283 1.29077H103.352L103.195 1.73236L97.1768 17.6825L99.0697 16.1464L103.957 2.66462H106.492Z" fill="white"/>
<path d="M100.428 13.6894L99.5283 16.2332L101.141 17.9656L101.608 16.539L101.925 15.618H108.082C108.183 15.6143 108.269 15.6784 108.298 15.7766L108.959 17.9317L110.419 16.2257L109.583 13.6818L100.428 13.6894Z" fill="white"/>
<path d="M120.299 2.6043L121.124 2.71753L121.815 2.88737C121.815 2.88737 122.229 3.01947 122.591 3.17799C122.632 3.19686 122.662 3.21196 122.692 3.22706C122.737 3.2497 122.785 3.27235 122.834 3.29499C122.879 3.32141 122.923 3.34406 122.968 3.37048C123.017 3.3969 123.062 3.42332 123.103 3.44974C123.147 3.47616 123.192 3.50635 123.233 3.53655L123.256 3.55165C123.289 3.57429 123.323 3.59694 123.353 3.61958C123.394 3.64978 123.435 3.67997 123.476 3.71394C123.521 3.74791 123.554 3.77433 123.588 3.80075C123.618 3.82717 123.648 3.85359 123.678 3.88001L123.737 3.93285C123.76 3.95172 123.782 3.97437 123.805 3.99324C123.834 4.02343 123.864 4.05363 123.89 4.08382L123.935 4.12911C123.958 4.15176 123.976 4.1744 123.999 4.19705C124.025 4.22724 124.047 4.25744 124.073 4.28763L124.111 4.33292C124.133 4.35934 124.156 4.38954 124.174 4.41596C124.2 4.44993 124.223 4.48767 124.245 4.52164L124.279 4.57448C124.294 4.6009 124.312 4.62355 124.327 4.64997C124.35 4.68771 124.368 4.72545 124.391 4.76319L124.421 4.81981C124.436 4.84623 124.447 4.86887 124.462 4.89529C124.48 4.93304 124.499 4.97456 124.514 5.01607L124.536 5.06891C124.548 5.09533 124.562 5.12553 124.574 5.15195C124.592 5.19724 124.607 5.23876 124.622 5.28405L124.641 5.34444C124.648 5.37086 124.66 5.3935 124.667 5.41992C124.682 5.46899 124.697 5.52183 124.708 5.57467L124.719 5.61996C124.727 5.64638 124.734 5.6728 124.738 5.69922C124.749 5.74829 124.757 5.80113 124.764 5.85019L124.775 5.91813C124.779 5.94078 124.783 5.9672 124.786 5.99362C124.794 6.05023 124.801 6.11062 124.805 6.17478L124.813 6.23517V6.29556C124.824 6.39747 124.828 6.50315 124.828 6.60505C124.824 8.68846 123.961 10.0434 122.266 10.6322C121.378 10.9417 120.426 10.9832 119.694 10.987H119.623L119.638 10.9946H119.074C119.179 11.1078 119.336 11.2625 119.511 11.4286L124.137 16.0483L126.795 17.4864L122.401 12.7081L122.375 12.693L121.953 12.3533L122.207 12.308C122.207 12.308 122.46 12.2627 122.696 12.1948H122.703L122.733 12.1835C122.826 12.157 122.931 12.1268 123.035 12.0891C123.689 11.8626 124.271 11.5192 124.816 11.0512C125.877 10.1189 126.567 8.42049 126.571 6.72205C126.575 4.95946 125.888 3.412 124.633 2.36274C124.23 2.0306 123.752 1.77773 123.17 1.58901L123.077 1.57014C123.006 1.54749 122.931 1.52485 122.852 1.5022L122.677 1.45314C122.475 1.4003 122.304 1.36633 122.162 1.34368H122.143C121.281 1.20026 120.377 1.17761 119.604 1.17761L114.59 1.19271L114.575 1.17761H114.026V1.57391L113.985 17.7883L115.654 16.1427L115.688 3.37425V2.5892H115.923L119.742 2.57788L120.22 2.59675C120.243 2.59675 120.269 2.59675 120.295 2.6043H120.299Z" fill="white"/>
<path d="M114.321 18.1092L117.443 18.1017L115.886 16.5693L114.321 18.1092Z" fill="white"/>
<path d="M127 18.1317L124.088 16.5579L123.244 18.128L127 18.1317Z" fill="white"/>
<path d="M117.98 10.5377L119.693 10.5188C120.388 10.5188 121.291 10.4773 122.116 10.1904C123.602 9.67337 124.36 8.4656 124.364 6.60109C124.364 5.06873 123.58 4.00815 122.019 3.43823C120.978 3.0608 119.947 3.04193 119.749 3.04193H119.719L116.378 3.05325L116.404 3.04193H116.161L116.15 6.09156L116.139 10.1716L116.146 11.3869L116.135 11.3756L116.124 16.1387L117.756 17.7428L117.767 13.6666V12.4626L122.811 17.9542L123.711 16.2784L118.543 11.1189L117.983 10.5377H117.98ZM117.771 8.8317L117.782 4.56675H119.697C120.123 4.56297 120.75 4.58184 121.299 4.74036C122.314 5.03476 122.807 5.71036 122.803 6.80491C122.803 7.88058 122.348 8.56373 121.414 8.88832C120.996 9.03551 120.47 9.10723 119.805 9.111H118.051L117.771 9.11477V8.8317Z" fill="white"/>
<path d="M98.857 1.8042L97.1619 3.41582L94.4066 3.4196V3.41582H93.9287V16.3164L95.5976 17.9695L95.6051 4.90667H98.857V1.8042Z" fill="white"/>
<path d="M96.9641 2.94788L98.4986 1.50232L88.8848 1.51364L90.4192 2.95542L96.9641 2.94788Z" fill="white"/>
<path d="M88.5262 1.81158V4.91406H91.5765C91.6362 4.91406 91.696 4.9367 91.737 4.98199C91.7818 5.02729 91.8042 5.0839 91.8042 5.14806V17.9769L93.4694 16.32V3.41944H90.3295C90.2698 3.41944 90.2175 3.39679 90.1727 3.35905L88.5225 1.81158H88.5262Z" fill="white"/>
<path d="M95.2617 18.2904L93.6973 16.7429L92.1367 18.2942L95.2617 18.2904Z" fill="white"/>
<path d="M59.6955 9.31485H61.454C62.1037 9.3073 62.6226 9.23559 63.0296 9.09594C63.9107 8.78644 64.3363 8.14104 64.34 7.11821C64.34 6.08405 63.8771 5.44242 62.9176 5.16312C62.3725 5.0046 61.734 4.9895 61.3009 4.9895H59.6843L59.5425 4.99328V5.18199L59.5312 9.14878V9.31485H59.6955Z" fill="white"/>
<path d="M34.961 9.44704H36.7493C37.4102 9.4395 37.9366 9.36778 38.351 9.22436C39.2471 8.91109 39.6802 8.25437 39.6839 7.21266C39.6839 6.15963 39.2135 5.51045 38.2353 5.22738C37.679 5.06509 37.0331 5.04999 36.5925 5.04999H34.9498L34.8042 5.05376V5.24625L34.793 9.28097V9.45082H34.9572L34.961 9.44704Z" fill="white"/>
<path d="M0 0V20H71.5794V0H0ZM28.6437 1.53991L26.9823 3.12134L25.3283 1.53614H28.64L28.6437 1.53991ZM20.1611 13.0326C20.2544 13.6894 20.4486 14.1914 20.751 14.5688C21.1617 15.0821 21.7703 15.3425 22.5655 15.3463C23.3794 15.3463 23.973 15.1123 24.3725 14.6254C24.6787 14.2555 24.8654 13.7422 24.9475 13.0515C24.996 12.6363 25.0035 12.191 25.0035 11.8098L25.0222 1.87583L26.7545 3.53652C26.7545 4.05359 26.7433 6.53331 26.7359 8.80543L26.7247 12.5269V12.5646V12.8439C26.7247 13.1874 26.6761 13.8705 26.3774 14.5914C26.1796 15.067 25.8995 15.4784 25.5449 15.8105C24.8318 16.4748 23.8237 16.8145 22.5356 16.8145C21.2737 16.8145 20.2694 16.4673 19.5488 15.7879C19.1978 15.4557 18.9141 15.0519 18.7088 14.5801C18.3167 13.6856 18.3205 12.8477 18.3205 12.8402L18.3391 3.53274L20.1051 1.84941L20.0864 11.8098C20.0864 12.2853 20.1088 12.6854 20.1611 13.0402V13.0326ZM19.7765 1.52859L18.1189 3.11002L16.4649 1.52482H19.7765V1.52859ZM4.48771 3.26099C4.54371 3.18551 4.62585 3.09492 4.73413 2.98924L4.77519 2.94773C4.8312 2.89489 4.8872 2.84205 4.9432 2.79298L5.02534 2.70617C5.11868 2.62314 5.22322 2.5401 5.33522 2.45329L5.39869 2.408C6.43662 1.64937 7.79563 1.21532 9.13597 1.21532C10.5099 1.21532 12.358 1.70598 13.437 3.08738C14.1613 4.03472 14.3667 4.84242 14.4264 5.86526L12.5596 4.34422L12.5484 4.29892L12.5372 4.26496L12.3916 3.90262C12.3767 3.87243 12.3617 3.84601 12.3468 3.81581L12.3319 3.78939C12.3207 3.76675 12.3057 3.7441 12.2945 3.72146L12.2087 3.59313L12.1639 3.53274L12.1303 3.48745L12.0855 3.43461L11.8652 3.2006C11.8428 3.18173 11.8204 3.16286 11.798 3.14021L11.7569 3.10625C11.7345 3.08737 11.7084 3.06473 11.6822 3.04963L11.6374 3.01566C11.6076 2.99302 11.5777 2.97415 11.5366 2.94773L11.5068 2.92885C11.4657 2.90243 11.4246 2.87979 11.3873 2.85714L11.3686 2.84582C11.3201 2.8194 11.2715 2.79298 11.223 2.76656L11.167 2.74014C11.1334 2.72504 11.0998 2.70617 11.0625 2.69107L11.0027 2.66843L10.9691 2.65333C10.943 2.64201 10.9169 2.63446 10.8945 2.62314C10.8721 2.61559 10.8497 2.60804 10.8273 2.60049L10.8049 2.59294C10.775 2.58162 10.7414 2.5703 10.7115 2.56275C10.6854 2.5552 10.6592 2.54765 10.6144 2.53633L10.5136 2.50991C10.48 2.50236 10.4464 2.49481 10.4091 2.48726L10.3046 2.46462C10.2672 2.45707 10.2299 2.44952 10.1926 2.44574C10.1552 2.4382 10.1179 2.43442 10.0806 2.42687C10.0432 2.4231 10.0021 2.41555 9.96481 2.41178C9.92748 2.408 9.89014 2.40423 9.84534 2.40045C9.80427 2.39668 9.7632 2.3929 9.72213 2.38913L9.46825 2.37781C9.43838 2.37781 9.41225 2.37781 9.38238 2.37781H9.26664H9.24424H9.19944C9.1061 2.37781 9.01276 2.38536 8.91569 2.38913C8.76261 2.39668 8.6058 2.41555 8.44526 2.4382C8.41166 2.44197 8.38179 2.44952 8.34819 2.45707L8.23992 2.47594C8.15778 2.49104 8.07564 2.50613 7.99724 2.525C7.95617 2.53633 7.9151 2.54765 7.87776 2.55897L7.76949 2.58917C7.70229 2.60804 7.63882 2.62691 7.57535 2.64956C7.53428 2.66465 7.49694 2.67975 7.45587 2.69485L7.37747 2.72882C7.31027 2.75524 7.24306 2.78166 7.17959 2.81185C7.13852 2.83072 7.10119 2.85337 7.06012 2.87224L7.00785 2.90243C6.94065 2.9364 6.87344 2.97415 6.80997 3.01189C6.76517 3.03831 6.7241 3.0685 6.68303 3.0987L6.62703 3.13644C6.57476 3.17418 6.52249 3.20815 6.47022 3.24967C6.43288 3.27986 6.39928 3.31006 6.36195 3.34025L6.30594 3.38932C6.25741 3.43084 6.20887 3.47613 6.16407 3.52142C6.12673 3.55916 6.0894 3.60068 6.0558 3.63842L6.01473 3.68371L6.00726 3.67617L5.92886 3.77052C5.87285 3.83846 5.82432 3.90262 5.78325 3.96301L5.73098 4.04605L5.69738 4.09889C5.67871 4.12908 5.65631 4.15928 5.63764 4.18947C5.61897 4.21966 5.60404 4.24608 5.58537 4.27628C5.5667 4.30647 5.55177 4.33667 5.5331 4.37064L5.4883 4.45367C5.47337 4.48386 5.45843 4.51783 5.4435 4.54803L5.33149 4.80091C5.32029 4.8311 5.30909 4.86129 5.29789 4.89149C5.28669 4.91791 5.27922 4.94433 5.27175 4.96697C5.26055 4.99717 5.25309 5.02736 5.23442 5.0802L5.21948 5.12927C5.21202 5.15569 5.20455 5.18211 5.19335 5.21985L5.10375 5.64257L5.21202 5.66145L5.10001 5.67277L5.08881 5.76713L5.19708 5.79732H5.08508L5.07388 5.89923V5.92942L5.06268 6.20494C5.04028 8.14116 6.79504 9.16022 8.26978 9.67352C8.43033 9.73014 8.59834 9.78298 8.77381 9.83582C12.2161 10.8436 12.2273 13.5535 12.2236 13.6667C12.2124 14.4216 12.0593 15.0708 11.7718 15.5878C11.6972 15.7199 11.615 15.8445 11.5217 15.9577C10.9766 16.6371 10.1216 16.9843 8.98289 16.9881C8.88208 16.9881 8.78875 16.9881 8.69541 16.9843H8.59834C8.5386 16.9768 8.47886 16.973 8.41913 16.9692L8.30339 16.9617C8.25485 16.9617 8.20631 16.9541 8.16151 16.9504L8.03831 16.9353C7.99724 16.9315 7.95617 16.9277 7.91883 16.9202L7.58281 16.8598C7.54921 16.8522 7.51188 16.8485 7.47828 16.8371C7.45214 16.8296 7.42601 16.8258 7.39614 16.8183L7.09372 16.7315C7.06759 16.7239 7.03772 16.7126 7.01158 16.7013C6.98171 16.6899 6.95185 16.6786 6.92198 16.6673L6.86597 16.6446L6.54862 16.4937C6.52622 16.4824 6.50382 16.4673 6.47769 16.4559C6.45902 16.4446 6.43662 16.4333 6.40675 16.4106L6.179 16.2483L5.91019 15.9917L5.86912 15.9426L5.83552 15.9011L5.73471 15.7615L5.54804 15.3991L5.42856 14.9047H5.31656L5.42483 14.8783V14.8481L6.88838 13.4025C7.00785 14.4103 7.56415 15.4784 8.80368 15.4784C9.35251 15.4784 9.87147 15.2293 10.2299 14.7952L10.2523 14.7726C10.5248 14.4329 10.6704 14.0253 10.6779 13.5875C10.6966 12.3457 9.72213 11.9079 8.86342 11.5192L8.79621 11.489C8.42659 11.3153 8.06444 11.1568 7.72096 11.0096L7.31027 10.8322C5.37256 9.99056 3.39379 8.77147 3.43485 6.09172C3.44979 5.04623 3.80821 4.07247 4.47278 3.26477L4.48771 3.26099ZM14.0418 6.12568H11.0102L12.3841 4.77449L14.0418 6.12568ZM5.18215 14.4744L3.52446 13.1232H6.55609L5.18215 14.4744ZM13.4146 16.8862L13.3474 16.973C13.0972 17.2938 12.7724 17.5543 12.6455 17.6486L12.5858 17.6901C11.447 18.5356 9.90881 18.713 8.81115 18.713C6.97051 18.713 5.40243 18.143 4.39437 17.1089C3.51326 16.2031 3.07643 14.9764 3.09884 13.4516V13.3572L5.00294 14.9085L5.08508 15.3463C5.10748 15.4218 5.12988 15.4973 5.16722 15.5954L5.19708 15.6671L5.29789 15.6218L5.21202 15.6973L5.24562 15.7728L5.34269 15.7237L5.26429 15.8105L5.30162 15.8822L5.39496 15.8256L5.31282 15.9011L5.34269 15.9502C5.35389 15.969 5.36509 15.9879 5.38003 16.0106L5.41363 16.0634L5.45843 16.1276L5.49203 16.1729C5.49203 16.1729 5.51817 16.2068 5.5443 16.237L5.90272 16.5918L5.96619 16.6409L6.1006 16.7352C6.123 16.7503 6.14914 16.7654 6.17154 16.7843C6.19394 16.7994 6.22007 16.8145 6.24621 16.8296C6.27234 16.8447 6.29848 16.8598 6.32461 16.8749C6.35075 16.89 6.37688 16.9051 6.41422 16.9239L6.66436 17.041C6.69423 17.0523 6.7241 17.0674 6.75397 17.0787L6.85477 17.1164C6.88464 17.1278 6.91451 17.1391 6.94811 17.1504C6.98171 17.1617 7.01905 17.1731 7.05639 17.1844C7.08999 17.1957 7.12359 17.2032 7.15719 17.2146C7.19453 17.2259 7.23186 17.2334 7.27666 17.2448C7.31027 17.2523 7.34387 17.2599 7.37374 17.2674C7.4036 17.275 7.43347 17.2825 7.46707 17.2863L7.8591 17.358C7.89643 17.3618 7.93003 17.3655 7.96737 17.3731L8.04577 17.3844C8.07191 17.3844 8.09804 17.392 8.12044 17.392C8.16151 17.3957 8.20631 17.3995 8.25112 17.4033L8.40046 17.4146C8.4602 17.4184 8.52367 17.4222 8.59834 17.4259H8.69541C8.78875 17.4335 8.88582 17.4373 9.00529 17.4373C9.15463 17.4373 9.30397 17.4297 9.46078 17.4184C9.49065 17.4184 9.52052 17.4108 9.55039 17.4071L9.62133 17.3995C9.71093 17.3882 9.7968 17.3806 9.88267 17.3655C9.92001 17.358 9.95361 17.3504 9.98721 17.3429L10.0843 17.3202C10.1515 17.3052 10.2187 17.2901 10.2784 17.275C10.3195 17.2636 10.3531 17.2523 10.3904 17.2372L10.4576 17.2146C10.5211 17.1919 10.5846 17.1731 10.648 17.1466C10.6891 17.1315 10.7302 17.1127 10.7675 17.0938L10.831 17.0636C10.887 17.0372 10.9393 17.0145 10.9915 16.9843C11.0326 16.9617 11.0737 16.9353 11.1147 16.9089L11.1483 16.8862C11.2006 16.8522 11.2566 16.8183 11.3052 16.7843C11.335 16.7654 11.3612 16.7428 11.4022 16.7088C11.7942 16.3804 12.1489 15.8483 12.19 15.7803C12.5111 15.1991 12.6791 14.4858 12.6903 13.663C12.6903 13.5346 12.6978 10.4963 8.91942 9.39045C8.74768 9.34138 8.59087 9.28854 8.43406 9.2357C7.09745 8.77147 5.50697 7.86563 5.52564 6.1974V6.15588C5.52564 6.10681 5.52563 6.0351 5.5331 5.94829C5.56297 5.57086 5.68991 4.83865 6.21634 4.1555C6.82491 3.35912 7.74709 2.91753 8.95676 2.84582C9.04263 2.84205 9.1285 2.83827 9.21064 2.8345H9.26291H9.30771H9.41598H9.45332C9.49812 2.8345 9.54292 2.8345 9.60266 2.83827H9.68106C9.72586 2.84582 9.77067 2.84959 9.81547 2.85337L9.89387 2.86092C9.93868 2.86469 9.98348 2.87224 10.0245 2.87601L10.088 2.88356C10.1328 2.89111 10.1776 2.89866 10.2224 2.90621L10.2747 2.91753C10.3195 2.92508 10.3643 2.9364 10.4091 2.94773L10.4427 2.95527C10.4875 2.9666 10.536 2.97792 10.5958 2.99679C11.0027 3.11757 11.3462 3.30628 11.615 3.56294C11.6412 3.58558 11.6636 3.60823 11.6897 3.63842C11.7121 3.66107 11.7345 3.68371 11.7569 3.71013C11.8614 3.83091 11.9511 3.96679 12.022 4.11398L12.0332 4.13663L12.0481 4.16682L12.1377 4.40838L10.6219 5.903C10.4763 5.23118 10.1179 4.46122 8.96422 4.46122C8.44153 4.46122 7.9375 4.69523 7.61268 5.0802C7.38494 5.35573 7.258 5.68787 7.25426 6.04265C7.25053 6.3144 7.2692 6.62389 7.42974 6.88432C7.66495 7.29949 8.35192 7.75618 9.65866 8.37139C9.93121 8.49972 10.1926 8.61672 10.4091 8.71485C10.5622 8.78279 10.6929 8.84318 10.7899 8.88847C13.101 9.99434 14.5272 11.1757 14.4936 13.6328C14.4749 14.95 14.1128 16.0483 13.4183 16.89L13.4146 16.8862ZM28.9909 11.8098C28.9909 12.8402 28.9312 14.0404 28.5242 15.1123C28.2554 15.8181 27.8597 16.4295 27.3071 16.9768L27.225 17.056C27.1876 17.0938 27.1428 17.1315 27.0905 17.1806C27.0345 17.2334 26.9748 17.2825 26.9151 17.3316L26.8852 17.358L26.8628 17.3769C26.7844 17.441 26.7172 17.4939 26.6724 17.5278H26.6687L26.6201 17.5618C25.5337 18.3695 24.1821 18.7809 22.6028 18.7809C20.8854 18.7809 19.3435 18.3016 18.2607 17.4335L18.2234 17.4108L18.1375 17.3391C18.0853 17.2938 18.0218 17.2372 17.962 17.1844L17.8538 17.0825L17.7754 17.1617L17.8314 17.0636L17.7642 16.9919C17.178 16.3691 16.786 15.769 16.5284 15.101C16.1662 14.1649 16.0953 13.1798 16.099 11.7947L16.1177 1.82676L17.8836 3.52142L17.865 12.8251C17.865 12.8628 17.8575 13.7611 18.2906 14.7537C18.3429 14.8707 18.4026 14.9915 18.4735 15.1236C18.4885 15.15 18.5034 15.1727 18.5183 15.1991L18.5407 15.2368C18.5855 15.3161 18.6341 15.3954 18.6864 15.4671C18.705 15.4973 18.7274 15.5237 18.7461 15.5501L18.7797 15.5916C18.8282 15.6558 18.8768 15.7199 18.9253 15.7841C18.9514 15.8143 18.9813 15.8445 19.0074 15.8747L19.097 15.9766C19.1605 16.0445 19.2352 16.12 19.3211 16.1955C19.3472 16.2182 19.3733 16.237 19.3995 16.2597L19.4667 16.3125C19.5077 16.3465 19.5488 16.3804 19.5936 16.4106C19.6459 16.4484 19.6981 16.4824 19.7541 16.5201L19.8176 16.5616C19.8587 16.588 19.896 16.6145 19.9371 16.6371C19.9894 16.6673 20.0454 16.6975 20.0976 16.7239L20.1872 16.7692C20.2246 16.7881 20.2656 16.8107 20.3067 16.8296C20.3702 16.856 20.4336 16.8824 20.4971 16.9089L20.5718 16.939C20.6129 16.9541 20.6577 16.973 20.6987 16.9881C20.7697 17.0108 20.8406 17.0334 20.9115 17.0523L20.9974 17.0749C21.0385 17.0862 21.0796 17.0976 21.1206 17.1089C21.1916 17.1278 21.2662 17.1391 21.3372 17.1542L21.4492 17.1768C21.4865 17.1844 21.5238 17.1919 21.5612 17.1995C21.6545 17.2146 21.7479 17.2221 21.8449 17.2334L21.9345 17.2448C21.9681 17.2485 21.998 17.2523 22.0316 17.2561C22.3452 17.2787 22.685 17.2825 23.0247 17.2561C23.0583 17.2561 23.0957 17.2485 23.1293 17.2448L23.2077 17.2372C23.3085 17.2297 23.4055 17.2183 23.4989 17.2032C23.5362 17.1995 23.5736 17.1919 23.6109 17.1844L23.7229 17.1655C23.7976 17.1504 23.876 17.1391 23.9469 17.1202C23.988 17.1127 24.0253 17.1013 24.0626 17.09L24.156 17.0636C24.2307 17.0447 24.3016 17.0259 24.3725 17.0032C24.4136 16.9881 24.4547 16.973 24.4957 16.9579L24.5853 16.9239C24.6488 16.9013 24.7123 16.8749 24.772 16.8485C24.8131 16.8296 24.8504 16.8107 24.8915 16.7918L24.9624 16.7579C25.0222 16.7277 25.0856 16.6975 25.1416 16.6635C25.1827 16.6409 25.22 16.6145 25.2611 16.5918L25.3171 16.5578C25.3731 16.5201 25.4329 16.4861 25.4851 16.4446C25.5299 16.4106 25.571 16.3767 25.6307 16.3314L25.6569 16.3125C25.8883 16.1087 26.1684 15.7954 26.2281 15.7313L26.258 15.6935L26.3065 15.6294L26.3364 15.5878C26.3588 15.5577 26.3812 15.5312 26.3998 15.501C26.4484 15.4256 26.4969 15.3501 26.5417 15.267L26.5679 15.2255C26.5828 15.2029 26.5977 15.1802 26.6089 15.1538C26.6761 15.033 26.7359 14.9047 26.7881 14.7801C27.1204 13.9875 27.1689 13.2365 27.1689 12.859L27.1802 8.8394C27.1876 6.55595 27.1951 4.05737 27.1988 3.55161L28.9984 1.83808L28.9797 11.8324L28.9909 11.8098ZM31.1377 18.7432L32.7543 17.1504L34.3635 18.7318L31.1377 18.7432ZM41.853 11.5456C41.3004 12.0249 40.7068 12.3721 40.0385 12.6062C39.0117 12.9609 37.9029 13.0138 36.8575 13.0176L34.6734 13.0251V13.3988L34.6622 18.3884L32.9821 16.7352L32.9933 11.8437V11.5041L36.6297 11.4739C37.3727 11.4739 38.3434 11.4286 39.2469 11.1115C40.9718 10.5114 41.8455 9.1338 41.853 7.01642C41.853 6.90696 41.853 6.80128 41.8418 6.69938L41.8343 6.63521L41.8268 6.57105C41.8231 6.51066 41.8156 6.45027 41.8082 6.39366C41.8082 6.36724 41.8007 6.34082 41.7969 6.31817L41.7857 6.24646C41.7783 6.1974 41.7671 6.14456 41.7596 6.09549C41.7521 6.06907 41.7447 6.03888 41.7372 6.01246L41.726 5.97849C41.7111 5.92187 41.6999 5.86526 41.6812 5.81242C41.6737 5.786 41.6663 5.76335 41.6551 5.73693L41.6364 5.68032C41.6215 5.63503 41.6065 5.58596 41.5879 5.54067C41.5767 5.51047 41.5617 5.48028 41.5505 5.45386L41.5281 5.40102C41.5095 5.3595 41.4945 5.32176 41.4759 5.28024C41.4647 5.25382 41.4497 5.2274 41.4348 5.20476L41.4012 5.14437C41.3788 5.10662 41.3601 5.06888 41.3377 5.03114C41.3228 5.00472 41.3041 4.9783 41.2892 4.95565L41.2593 4.91036C41.2332 4.87262 41.2071 4.8311 41.1809 4.79336C41.1622 4.76694 41.1398 4.73674 41.1174 4.71032L41.0801 4.66126C41.054 4.63106 41.0316 4.59709 41.0054 4.5669C40.983 4.54425 40.9644 4.51783 40.942 4.49519L40.8972 4.44612C40.8673 4.41593 40.8412 4.38573 40.8076 4.35554C40.7852 4.33289 40.7628 4.31402 40.7404 4.29138L40.6769 4.23099C40.6508 4.20457 40.6209 4.18192 40.591 4.1555C40.5574 4.12908 40.5238 4.10266 40.479 4.06869C40.4379 4.0385 40.3969 4.00453 40.3558 3.97433C40.3259 3.95169 40.2923 3.93282 40.2625 3.91017L40.2363 3.8913C40.1915 3.86111 40.1467 3.83091 40.1019 3.80449C40.0571 3.77807 40.0123 3.75165 39.9712 3.72901C39.9264 3.70259 39.8779 3.67617 39.8294 3.64975C39.7846 3.6271 39.736 3.60068 39.6875 3.57803L39.583 3.52897C39.2133 3.36667 38.8139 3.23835 38.7952 3.23457L38.3845 3.12512L37.2532 2.94773C37.2271 2.94773 37.201 2.94395 37.1636 2.94018L36.8313 2.92131V3.03076L36.8089 2.91753H36.6895L32.7954 2.92885H32.534V16.7315L30.8166 18.4223L30.8577 1.67956V1.47575L32.9485 1.48707L36.5476 1.47575C37.3316 1.47575 38.2538 1.49462 39.1499 1.64182C39.2955 1.66069 39.471 1.69843 39.6763 1.75127L39.7286 1.7626L39.8555 1.80034C39.9339 1.82299 40.0123 1.84563 40.0833 1.86828L40.1654 1.88337C40.2587 1.91357 40.3483 1.94754 40.4417 1.98528C40.5014 2.00415 40.5387 2.01925 40.5425 2.02302C40.9756 2.19664 41.3452 2.41178 41.67 2.67975C42.9506 3.75165 43.6525 5.32931 43.6488 7.12587C43.6451 8.8545 42.9431 10.5907 41.8567 11.5418L41.853 11.5456ZM32.997 11.0285L33.0157 3.38554L36.6559 3.37422H36.6895C36.8911 3.37422 37.9439 3.39309 39.0043 3.77807C40.5985 4.35554 41.4012 5.44254 41.3975 7.00887C41.3937 8.91111 40.6209 10.1415 39.1013 10.6737C38.2613 10.9681 37.3391 11.0058 36.6335 11.0096L33.3853 11.0436H33.0007V11.0285H32.997ZM44.724 18.6639V1.52482H45.0899L45.0601 1.49085L53.7667 1.4984L52.0679 3.03076H47.0052H46.8335H46.1428V17.1278H52.0343L53.6883 18.6601H44.7203L44.724 18.6639ZM49.5104 11.6852H48.5957V12.4023L48.5883 12.3948V14.9349C48.5845 15.0632 48.6853 15.1651 48.8123 15.1651H53.6845L52.0418 16.6786H46.6057L46.6169 10.402V10.1566H51.8999L53.5763 11.6852H49.8203H49.5067H49.5104ZM52.333 9.93395L53.9085 8.51104L53.9011 11.3606L52.3293 9.93395H52.333ZM48.6032 5.32931V7.95622C48.5995 8.01661 48.6219 8.077 48.6667 8.11851C48.7077 8.16003 48.7675 8.18645 48.8272 8.18645H53.5763L51.9036 9.69994H46.6169L46.6281 4.50274L46.6207 3.49122H47.0351H52.0716L53.7219 4.99339H48.6032V5.32931ZM54.0542 18.3733L52.4674 16.9089L54.0579 15.4482L54.0504 18.3695L54.0542 18.3733ZM54.0803 4.70277L52.4973 3.26477L54.0878 1.83053L54.0803 4.70277ZM55.6558 1.8796V1.47575H56.2159L56.2308 1.49085L61.2524 1.47575C62.0253 1.47575 62.9288 1.49462 63.8136 1.64182C63.9555 1.66069 64.131 1.69843 64.3326 1.75127L64.5081 1.80034C64.5865 1.82299 64.6611 1.84563 64.7321 1.86828L64.8179 1.88715C65.4041 2.07586 65.8857 2.33252 66.2927 2.66843C67.5509 3.72146 68.2416 5.27269 68.2379 7.04284C68.2341 8.74505 67.5434 10.4473 66.4794 11.3833C65.9343 11.8551 65.3518 12.1948 64.6947 12.425C64.5902 12.4627 64.4857 12.4929 64.3848 12.5193L64.3587 12.5269H64.355C64.116 12.5986 63.8659 12.6439 63.8622 12.6439L63.6232 12.6854L64.0339 13.0176L68.4917 17.8524L65.7887 16.388L61.1553 11.7607C61.0321 11.6437 60.8343 11.4512 60.7036 11.3153H61.2412L61.2263 11.3078H61.342C62.0738 11.3078 63.0296 11.2625 63.9182 10.953C65.6132 10.3604 66.4756 9.00547 66.4794 6.92206C66.4794 6.81638 66.4794 6.7107 66.4682 6.61257V6.54841L66.457 6.48424C66.4532 6.42385 66.4458 6.36724 66.4383 6.31062C66.4383 6.2842 66.4308 6.26156 66.4271 6.23514L66.4159 6.1672C66.4084 6.11814 66.401 6.06907 66.3898 6.02C66.3823 5.99358 66.3786 5.96716 66.3711 5.94074L66.3599 5.89545C66.3487 5.84261 66.3338 5.78977 66.3188 5.73693C66.3114 5.71051 66.3039 5.68787 66.2927 5.66522L66.2703 5.60106C66.2554 5.55577 66.2404 5.51425 66.2255 5.46896C66.2143 5.43876 66.2031 5.41234 66.1881 5.38215L66.1657 5.32931C66.1471 5.29156 66.1321 5.25005 66.1135 5.2123C66.1023 5.18588 66.0873 5.16324 66.0724 5.13682L66.0425 5.08398C66.0201 5.04624 66.0015 5.00472 65.9791 4.97075C65.9641 4.94433 65.9455 4.91791 65.9305 4.89526L65.8969 4.8462C65.8745 4.80845 65.8484 4.77449 65.8223 4.73674C65.7999 4.70655 65.7812 4.68013 65.7588 4.65371L65.7252 4.60842C65.6991 4.57822 65.6767 4.54803 65.6505 4.51406C65.6318 4.49141 65.6094 4.46877 65.587 4.44612L65.5422 4.39706C65.5161 4.36686 65.4862 4.33667 65.4564 4.30647C65.434 4.28383 65.4116 4.26496 65.3892 4.24608L65.3294 4.19324C65.2996 4.16682 65.2734 4.1404 65.2398 4.11398C65.2062 4.08756 65.1726 4.06114 65.1316 4.02717L65.1092 4.01208C65.0756 3.98566 65.0419 3.95924 65.0083 3.93659C64.9785 3.91395 64.9486 3.89507 64.9187 3.8762L64.8889 3.85733C64.8441 3.82714 64.803 3.80072 64.7582 3.7743C64.7209 3.75165 64.6798 3.72901 64.6425 3.70636L64.6201 3.68371H64.6014C64.5641 3.66107 64.5267 3.6422 64.4857 3.61955C64.4409 3.59691 64.3923 3.57048 64.3438 3.55161L64.243 3.50255C63.8808 3.34403 63.4851 3.21948 63.4664 3.21193L62.589 3.01189L61.5324 2.90621V3.01566L61.51 2.90243H61.3905L57.5599 2.91376H57.3322V3.71391L57.2986 16.4861L55.6148 18.1468L55.6558 1.88715V1.8796ZM55.9396 18.4525L57.5263 16.89L59.1019 18.4412L55.9396 18.4525ZM59.4118 12.81V14.0215L59.4006 18.0978L57.7541 16.4748L57.7653 11.6814L57.7765 11.6928L57.769 10.4925L57.7914 3.34403H58.12L58.0976 3.35535L61.3644 3.34403H61.3943C61.5922 3.34403 62.6264 3.3629 63.668 3.7441C65.2324 4.31402 66.0239 5.38215 66.0201 6.91829C66.0164 8.78656 65.2548 9.99811 63.7613 10.519C62.9362 10.8058 62.029 10.8473 61.3345 10.8473L59.6358 10.8662L60.1846 11.4361L65.3668 16.6107L64.4558 18.3053L59.4118 12.81ZM64.8851 18.4714L65.7401 16.8787L68.6859 18.4752H64.8851V18.4714Z" fill="white"/>
</g>
<defs>
<clipPath id="clip0_3_15862">
<rect width="127" height="20" fill="white"/>
</clipPath>
</defs>
</svg>
