<svg width="240" height="155" viewBox="0 0 240 155" fill="none" xmlns="http://www.w3.org/2000/svg">
<g clip-path="url(#clip0_3_7573)">
<path d="M122.024 16.5488L116.351 16.5657H115.851V17.2141L115.817 30.933V31.5056H116.393L122.574 31.4888C124.86 31.4888 126.672 31.2361 128.111 30.7477C131.202 29.6866 132.709 27.4464 132.717 23.9093C132.726 20.3301 131.091 18.1153 127.713 17.1552C125.8 16.6078 123.556 16.5488 122.032 16.5572L122.024 16.5488Z" fill="white"/>
<path d="M0 0V67.1035H239.992V0H0ZM7.71326 44.003H18.1952L13.4453 48.6012L7.70479 44.003H7.71326ZM44.0866 20.2119H33.6047L38.3546 15.6137L44.0866 20.2119ZM38.9981 14.1399L38.9558 13.9799L38.9219 13.862L38.4732 12.7419L38.1345 12.9103L38.4224 12.6409C38.3716 12.5398 38.3208 12.4472 38.2615 12.3461L38.2107 12.2619C38.1684 12.1861 38.126 12.1103 38.0752 12.0345L37.7789 11.5966L37.6265 11.3945L37.0592 10.7207L36.2379 9.94594C36.1533 9.87857 36.0686 9.81119 35.9839 9.74382L35.8315 9.62592C35.7299 9.55012 35.6283 9.48275 35.4928 9.39011L35.3912 9.32274C35.2558 9.23852 35.1118 9.14588 34.9764 9.07009L34.9086 9.02798C34.7478 8.93534 34.57 8.84271 34.4006 8.75849L34.2652 8.69112L34.1805 8.65743C34.0704 8.6069 33.9603 8.55637 33.8418 8.50584L33.6386 8.42162L33.5031 8.77533L33.5201 8.37952C33.4354 8.34583 33.3423 8.31214 33.2576 8.27846C33.1729 8.24477 33.0883 8.21951 32.9359 8.16898C32.8343 8.13529 32.7242 8.1016 32.6226 8.06792C32.5295 8.04265 32.4363 8.00896 32.2924 7.97528L31.9452 7.89106C31.8267 7.8658 31.7082 7.83211 31.5896 7.80685L31.2256 7.73105C31.0986 7.70579 30.9716 7.68052 30.8446 7.66368C30.7176 7.64684 30.5906 7.62157 30.4636 7.60473C30.3281 7.58788 30.1926 7.57104 30.0572 7.5542C29.9302 7.53735 29.8116 7.52893 29.6423 7.51209C29.5068 7.49525 29.3629 7.48682 29.2189 7.4784L28.3384 7.43629C28.2368 7.43629 28.1352 7.43629 28.0336 7.43629H27.6441H27.5679H27.4155C27.0938 7.43629 26.772 7.45314 26.4334 7.4784C25.9 7.51209 25.3665 7.56262 24.7993 7.64683C24.6807 7.66368 24.5707 7.68894 24.4606 7.70579L24.105 7.77316C23.8171 7.82369 23.5208 7.87422 23.2498 7.94159C23.1059 7.97528 22.962 8.01739 22.8265 8.05949L22.4624 8.16055C22.2338 8.22793 22.0052 8.28688 21.7851 8.36267C21.6411 8.4132 21.5141 8.46373 21.3787 8.52268L21.0993 8.63216C20.8707 8.7248 20.6336 8.80902 20.4135 8.9185C20.2695 8.98587 20.1341 9.06167 19.9986 9.12904L19.8208 9.22168C19.5922 9.33958 19.3636 9.45748 19.1434 9.59223C18.991 9.68487 18.8471 9.78593 18.7032 9.87856L18.5169 10.0049C18.3306 10.1312 18.1528 10.2491 17.975 10.3839C17.848 10.4849 17.7295 10.586 17.6025 10.687L17.3993 10.8555C17.2299 10.9986 17.0606 11.1418 16.8997 11.3018C16.7727 11.4281 16.6457 11.5629 16.5187 11.6976L16.3663 11.8576L16.3409 11.8324L16.0785 12.144C15.8837 12.3714 15.7144 12.5987 15.5705 12.7924L15.3842 13.0704L15.2656 13.2472C15.1979 13.3567 15.1302 13.4578 15.0624 13.5588L14.8846 13.8452C14.8254 13.9546 14.7661 14.0557 14.6899 14.1904L14.5544 14.4431C14.4952 14.5526 14.4444 14.6536 14.3936 14.7547C14.3512 14.8473 14.3004 14.94 14.2581 15.0326L14.0126 15.6137C13.9702 15.7148 13.9364 15.8242 13.894 15.9169C13.8602 16.0011 13.8263 16.0937 13.8009 16.1779C13.767 16.2874 13.7332 16.3885 13.6993 16.4895L13.6231 16.7253C13.5977 16.818 13.5723 16.9022 13.5384 17.0285L13.2251 18.4686L13.5977 18.5276L13.2082 18.5697L13.1659 18.8813L13.5384 18.9823L13.1574 18.9992L13.1235 19.336V19.4371L13.0812 20.3719C13.005 26.9576 19.0672 30.4273 24.1643 32.1706C24.7231 32.3643 25.2988 32.5496 25.9084 32.7264C37.8127 36.1625 37.8381 45.3673 37.8381 45.7631C37.8043 48.3317 37.2709 50.5297 36.2718 52.2899C36.0178 52.7362 35.7299 53.1573 35.4082 53.5531C33.5201 55.8691 30.5652 57.0481 26.6366 57.0481C26.2979 57.0481 25.9592 57.0481 25.6459 57.0312L25.3073 57.0144C25.0956 57.0144 24.8924 56.9976 24.6892 56.9891L24.2913 56.9554C24.1219 56.947 23.9611 56.9302 23.8087 56.9133L23.3768 56.8628C23.2414 56.846 23.0974 56.8291 22.962 56.8123L21.819 56.6186C21.692 56.5933 21.5649 56.568 21.4379 56.5428C21.3448 56.5259 21.2517 56.5007 21.1585 56.4754L20.4389 56.2817C20.3288 56.248 20.2187 56.2143 20.1087 56.1807C20.0155 56.147 19.9224 56.1217 19.8208 56.0796C19.7192 56.0459 19.6091 56.0122 19.5075 55.9701L19.3043 55.8943L18.2036 55.3806C18.1274 55.3385 18.0428 55.2964 17.9666 55.2543C17.8988 55.2122 17.8311 55.1701 17.738 55.1195L16.9251 54.5637L15.9938 53.6963L15.8499 53.5278L15.3842 52.9131L14.7492 51.6751L14.3343 49.9908H13.9533L14.3258 49.9065V49.8055L19.3805 44.8957C19.7954 48.3149 21.7174 51.9614 26.0016 51.9614C27.8981 51.9614 29.6931 51.1108 30.9292 49.6455L31.0054 49.5697C31.9452 48.4159 32.4533 47.0264 32.4702 45.5441C32.5295 41.3249 29.1681 39.8259 26.2048 38.5037L25.9677 38.4026C24.6892 37.8047 23.4361 37.2741 22.2592 36.7688L20.8368 36.1625C14.1396 33.2991 7.30685 29.1472 7.43385 20.035C7.48465 16.4811 8.72081 13.163 11.0238 10.4175C11.2185 10.1649 11.5064 9.8533 11.8789 9.49117L12.0229 9.35642C12.2091 9.17957 12.4123 9.00272 12.5986 8.82586L12.8865 8.53953C13.2167 8.25319 13.5723 7.97528 13.9702 7.68052L14.1904 7.52051C17.7718 4.94349 22.4794 3.46129 27.1107 3.46129C31.8521 3.46129 38.253 5.13719 41.9784 9.82804C44.4846 13.0535 45.1958 15.799 45.4075 19.2771L38.9473 14.0978L38.9981 14.1399ZM13.4029 52.4246L13.5046 52.6688L13.8517 52.5172L13.5469 52.7699L13.6739 53.031L14.0126 52.8625L13.7332 53.1489L13.8686 53.4015L14.1988 53.2162L13.9194 53.4942L14.0126 53.6457C14.0464 53.7047 14.0888 53.7721 14.1396 53.8394L14.2666 54.0247L14.419 54.2353L14.529 54.3869C14.5714 54.4458 14.6222 54.5047 14.7068 54.6058L15.943 55.8101L16.1631 55.9785L16.6203 56.2986C16.6965 56.3491 16.7812 56.408 16.8659 56.4586C16.9505 56.5091 17.0352 56.5596 17.1199 56.6102C17.2045 56.6607 17.2977 56.7112 17.3908 56.7617L18.246 57.1828C18.3476 57.2249 18.4576 57.2755 18.5592 57.3176C18.6608 57.3597 18.7624 57.4018 18.864 57.4439L19.2112 57.5702C19.3128 57.6039 19.4228 57.646 19.5329 57.6797C19.6515 57.7218 19.7785 57.7555 19.897 57.7976C20.0071 57.8313 20.1256 57.865 20.2441 57.8987C20.3542 57.9324 20.4727 57.9576 20.6421 57.9997L20.9977 58.0839C21.0993 58.1092 21.2093 58.1345 21.3194 58.1513L22.6656 58.3871C22.7926 58.404 22.9196 58.4208 23.0466 58.4377L23.3091 58.4713C23.4022 58.4798 23.4869 58.4966 23.5716 58.505C23.7155 58.5219 23.8679 58.5303 24.0203 58.5471L24.5283 58.5892C24.7485 58.6061 24.9771 58.6145 25.2141 58.6229L25.5528 58.6398C25.883 58.6482 26.2132 58.6566 26.6196 58.6566C27.1361 58.6566 27.6441 58.6398 28.1945 58.5977C28.3045 58.5892 28.4061 58.5724 28.5077 58.564L28.7533 58.5303C29.0581 58.4966 29.3629 58.4629 29.6592 58.4124C29.7862 58.3871 29.8963 58.3619 30.0148 58.3366L30.362 58.2608C30.5906 58.2103 30.8192 58.1682 31.0308 58.1092C31.1663 58.0755 31.3018 58.025 31.4288 57.9829L31.6658 57.8987C31.886 57.8313 32.1061 57.7555 32.3178 57.6713C32.4617 57.6123 32.5972 57.5534 32.7327 57.486L32.9443 57.3849C33.1306 57.3007 33.3253 57.2165 33.5031 57.1155C33.6471 57.0397 33.791 56.947 33.9349 56.8628L34.0535 56.787C34.2398 56.6775 34.426 56.5596 34.5954 56.4417C34.697 56.3744 34.7901 56.2986 34.9256 56.1807C36.2803 55.0606 37.4995 53.2499 37.6519 53.0225C38.761 51.0435 39.3368 48.618 39.3791 45.8221C39.3791 45.3841 39.4045 35.0592 26.3487 31.2863C25.756 31.1179 25.2057 30.941 24.6723 30.7558C20.0494 29.1725 14.5544 26.0986 14.6222 20.4224V20.2877C14.6222 20.1277 14.6222 19.8835 14.656 19.5803C14.7576 18.3002 15.1979 15.8074 17.0183 13.483C19.1265 10.7797 22.3185 9.28063 26.4926 9.02798C26.789 9.01114 27.0853 8.9943 27.3732 8.9943H27.5256H27.6102H28.0505H28.1945C28.3469 8.9943 28.4993 9.00272 28.7025 9.01114H28.9734C29.1343 9.0364 29.2867 9.04482 29.4391 9.06167L29.7015 9.08693C29.8624 9.10378 30.0148 9.12062 30.1588 9.13746L30.3789 9.17115C30.5398 9.19641 30.6922 9.22168 30.8361 9.24694L31.0139 9.28063C31.1748 9.3059 31.3272 9.33958 31.4796 9.38169L31.5642 9.01114L31.5981 9.40695C31.759 9.44906 31.9114 9.48275 32.1315 9.55012C33.5201 9.95436 34.68 10.586 35.6114 11.4366L35.6537 11.4703C35.7384 11.546 35.823 11.6303 35.9077 11.7229C35.9839 11.8071 36.0601 11.8829 36.1363 11.9755C36.5004 12.3882 36.8052 12.8514 37.0507 13.3314L37.0931 13.4156L37.4317 13.2556L37.1354 13.5167L37.3555 14.0557L37.7111 13.9378L37.3809 14.1315L37.4487 14.342L32.2077 19.4203C31.7082 17.138 30.472 14.5105 26.4842 14.5105C24.6807 14.5105 22.9366 15.3021 21.819 16.6159C21.0231 17.5507 20.5997 18.6792 20.5828 19.8919C20.5659 20.8098 20.6336 21.871 21.1924 22.7552C21.9968 24.1616 24.3759 25.7196 28.8972 27.8166C29.8455 28.2545 30.743 28.6504 31.488 28.9872C32.013 29.2146 32.4702 29.4167 32.8089 29.5767C40.8015 33.3412 45.7292 37.3499 45.6107 45.7126C45.5429 50.1929 44.2983 53.9237 41.8937 56.7954L41.6651 57.0902H41.6736C40.7846 58.2103 39.6331 59.1114 39.2098 59.4146H39.2013L39.032 59.5325C35.0949 62.4042 29.7777 63.0106 25.9846 63.0106C19.6261 63.0106 14.1988 61.0736 10.719 57.5534C7.67092 54.4795 6.16383 50.2939 6.24003 45.1231V44.803L12.8272 50.075L13.1066 51.574C13.1743 51.8267 13.2675 52.0877 13.3945 52.4162L13.4029 52.4246ZM58.1669 9.95436L52.4518 4.56452H63.9074L58.1754 9.95436H58.1669ZM58.7765 49.5528C58.9544 49.9571 59.1576 50.3697 59.4031 50.8077C59.4539 50.8919 59.5047 50.9761 59.5555 51.0603L59.6317 51.1866C59.7926 51.4561 59.9534 51.7256 60.1312 51.9698C60.199 52.0709 60.2752 52.1635 60.3429 52.2562L60.453 52.3993C60.6138 52.6183 60.7832 52.8373 60.961 53.0478C61.0541 53.1573 61.1473 53.2584 61.2489 53.3594L61.5621 53.6963C61.7823 53.9237 62.0447 54.1847 62.3411 54.4458C62.4257 54.5216 62.5189 54.589 62.612 54.6563L62.8491 54.8416C62.993 54.9595 63.137 55.069 63.2809 55.1785C63.4587 55.3048 63.645 55.4311 63.8312 55.549L64.0429 55.6838C64.1784 55.7764 64.3138 55.8606 64.4578 55.9449C64.6356 56.0459 64.8303 56.147 65.0166 56.2396L65.3214 56.3912C65.4569 56.4586 65.5923 56.5344 65.7363 56.5933C65.9479 56.686 66.1765 56.7702 66.3967 56.8544L66.6591 56.9554C66.8031 57.0144 66.947 57.0733 67.0994 57.1239C67.3365 57.2081 67.5905 57.2755 67.836 57.3428L68.1324 57.4271C68.2678 57.4692 68.4118 57.5113 68.5557 57.545C68.8012 57.6039 69.0637 57.6544 69.3177 57.6965L69.6903 57.7639C69.8257 57.7892 69.9527 57.8145 70.0882 57.8397C70.4099 57.8902 70.7486 57.9239 71.0788 57.9492L71.3836 57.9829C71.4937 57.9997 71.6038 58.0081 71.7138 58.0166C72.8145 58.0924 73.9745 58.1008 75.1513 58.0166C75.2699 58.0166 75.3884 57.9913 75.507 57.9829L75.7779 57.9576C76.125 57.9239 76.4637 57.8987 76.7939 57.8481C76.9294 57.8313 77.0564 57.806 77.1834 57.7808L77.5729 57.7134C77.8353 57.6629 78.0978 57.6208 78.3518 57.5618C78.4873 57.5281 78.6143 57.4944 78.7497 57.4607L79.0969 57.3681C79.3424 57.3007 79.5879 57.2418 79.8166 57.166C79.9605 57.1155 80.1044 57.0649 80.2399 57.0144L80.5447 56.8965C80.7648 56.8123 80.9765 56.7365 81.1882 56.6438C81.3321 56.5849 81.4676 56.5175 81.603 56.4501L81.8401 56.3322C82.0518 56.2312 82.2635 56.1217 82.4667 56.0122C82.6106 55.9364 82.7461 55.8522 82.8731 55.7596L83.0678 55.6417C83.2625 55.5153 83.4658 55.3974 83.652 55.2543C83.8044 55.1448 83.9568 55.0185 84.1516 54.8669L84.2447 54.7995C85.0406 54.1089 86.0143 53.0478 86.2175 52.8204L86.59 52.3404C86.6662 52.2393 86.7424 52.1467 86.8101 52.0456C86.9879 51.793 87.1403 51.5235 87.3012 51.254L87.3943 51.1108C87.4451 51.035 87.4959 50.9508 87.5383 50.8666C87.7669 50.454 87.9701 50.0244 88.1564 49.5949C89.2994 46.9 89.4772 44.3399 89.4772 43.0598L89.5195 29.3915C89.5449 21.6183 89.5788 13.1293 89.5788 11.4029L95.8019 5.56669L95.7341 39.5479C95.7341 43.0598 95.5309 47.1358 94.1255 50.7824C93.1941 53.1826 91.8225 55.2627 89.9174 57.1323L89.6381 57.4102C89.511 57.5365 89.3586 57.6713 89.1808 57.8313C88.9861 58.0081 88.7744 58.1766 88.5712 58.345L88.4696 58.4377L88.385 58.505C88.1225 58.7156 87.8854 58.9008 87.733 59.0187H87.7161L87.5383 59.1451C83.779 61.8905 79.1138 63.2885 73.6527 63.2885C67.7175 63.2885 62.3919 61.6547 58.6411 58.7156L58.5141 58.6314L58.2177 58.3871C58.0315 58.2355 57.8198 58.0418 57.6166 57.865L57.2441 57.5113H57.2356L56.9393 57.2081C54.9157 55.0943 53.561 53.0478 52.6635 50.774C51.4104 47.5906 51.1734 44.2388 51.1818 39.5227L51.2496 5.61722L57.3626 11.3776L57.3033 43.0261C57.3033 43.1524 57.2779 46.2095 58.7681 49.5781L58.7765 49.5528ZM65.2367 43.6914C65.5669 45.9231 66.2358 47.6327 67.2772 48.9128C68.6996 50.6645 70.7994 51.5488 73.5511 51.5488C76.3706 51.5488 78.4111 50.7487 79.7996 49.0981C80.858 47.8432 81.5014 46.0915 81.7809 43.7419C81.9417 42.3355 81.9671 40.8196 81.9756 39.5143L82.0433 5.7267L88.0294 11.3692C88.0294 13.1293 87.9955 21.5594 87.9701 29.282L87.9278 41.9397V42.0744V43.0261C87.9278 44.1967 87.7669 46.5126 86.7255 48.9633C86.0397 50.5803 85.066 51.9783 83.8468 53.1068C81.3829 55.3722 77.8946 56.5175 73.4495 56.5175C69.0806 56.5175 65.6093 55.3385 63.12 53.031C61.9093 51.9025 60.9356 50.5213 60.2244 48.9212C58.8697 45.881 58.8866 43.0345 58.8866 43.0008L58.9459 11.3439L65.042 5.62564L64.9742 39.4974C64.9742 41.1144 65.0589 42.4871 65.2283 43.683L65.2367 43.6914ZM88.8168 9.97963L83.1017 4.58979H94.5573L88.8168 9.97963ZM133.293 5.50774C133.572 5.58354 133.835 5.65933 134.08 5.73513L134.36 5.79408C134.681 5.90356 134.995 6.01304 135.316 6.13936C135.52 6.20674 135.655 6.25727 135.672 6.26569C137.171 6.86362 138.449 7.59631 139.567 8.50584C143.995 12.1524 146.425 17.5254 146.408 23.6311C146.391 29.5178 143.961 35.4129 140.219 38.6468C138.305 40.2806 136.256 41.4597 133.945 42.2513C130.397 43.464 126.562 43.6409 122.946 43.6493L115.403 43.6745V44.9462L115.369 61.9158L109.56 56.2901L109.603 39.6069V38.4952L122.168 38.3942C124.741 38.3942 128.094 38.2426 131.219 37.1646C137.179 35.1182 140.202 30.4358 140.219 23.2353C140.219 22.8731 140.21 22.511 140.185 22.1573L140.168 21.9468L140.143 21.7278C140.126 21.5257 140.109 21.3151 140.075 21.1214C140.066 21.0372 140.049 20.9446 140.032 20.8604L139.99 20.6246C139.965 20.4561 139.931 20.2793 139.897 20.1108C139.872 20.0182 139.846 19.9256 139.821 19.8245L139.787 19.7066C139.745 19.5213 139.694 19.3276 139.635 19.1424C139.609 19.0581 139.575 18.9655 139.541 18.8813L139.474 18.6876C139.423 18.5276 139.364 18.3676 139.304 18.216C139.262 18.1149 139.22 18.0139 139.177 17.9128L139.093 17.7275C139.033 17.5928 138.974 17.458 138.906 17.3233C138.864 17.2391 138.813 17.1464 138.762 17.0622L138.652 16.8601C138.585 16.7253 138.508 16.599 138.432 16.4727C138.381 16.3801 138.322 16.2958 138.263 16.2116L138.161 16.06C138.077 15.9253 137.983 15.799 137.89 15.6726C137.823 15.58 137.746 15.4874 137.679 15.3947L137.543 15.2263C137.459 15.1168 137.374 15.0158 137.281 14.9063C137.213 14.8305 137.137 14.7547 137.069 14.6789L136.917 14.5189C136.815 14.4094 136.713 14.2999 136.603 14.1904C136.527 14.1146 136.451 14.0473 136.375 13.9799L136.155 13.7862C136.053 13.702 135.96 13.6093 135.85 13.5251C135.74 13.4325 135.63 13.3483 135.469 13.2219C135.325 13.1125 135.189 13.003 135.037 12.9019C134.935 12.8261 134.825 12.7588 134.715 12.683L134.614 12.6156C134.461 12.5145 134.309 12.4135 134.148 12.3208C133.996 12.2282 133.843 12.144 133.691 12.0598C133.53 11.9671 133.369 11.8745 133.2 11.7903C133.039 11.7061 132.87 11.6303 132.709 11.546L132.353 11.3776C131.075 10.8218 129.686 10.3923 129.627 10.3754L128.204 10.0049L124.293 9.39853C124.2 9.39011 124.106 9.38169 124.022 9.38169L122.836 9.32274V9.70171L122.752 9.32274H122.337L108.883 9.35642H107.977V56.2901L102.042 62.0505L102.186 5.1035V4.40451L109.416 4.4382L121.863 4.40451C124.581 4.40451 127.764 4.47188 130.863 4.97718C131.362 5.04455 131.972 5.17088 132.683 5.34773L132.861 5.38984L133.31 5.51616L133.293 5.50774ZM138.635 23.2268C138.619 29.6946 135.943 33.8802 130.694 35.6908C127.789 36.6846 124.606 36.8193 122.159 36.8278L110.924 36.9457H109.603L109.671 10.8976L122.252 10.8639H122.362C123.057 10.8639 126.689 10.9313 130.363 12.245C135.867 14.2157 138.652 17.9128 138.635 23.2268ZM114.31 63.078L103.168 63.1117L108.756 57.6965L114.31 63.078ZM182.409 51.9193L182.392 61.8568L176.914 56.8797L182.417 51.9193H182.409ZM151.302 4.45504L181.393 4.4803L175.525 9.69329L158.024 9.67645L157.44 9.69329H155.061V57.6376L175.432 57.6544L181.147 62.8422H150.142V4.5561H151.412L151.302 4.44662V4.45504ZM181.884 28.3135L181.867 38.0068L176.44 33.1559L181.884 28.3135ZM167.761 39.1016H166.686V39.1184H163.519V41.5523L163.494 41.527L163.477 50.1592C163.477 50.5887 163.833 50.9424 164.264 50.9424L181.105 50.9592L175.424 56.088L156.636 56.0712L156.678 34.7476V33.9139L174.941 33.9307L180.741 39.1184L167.753 39.1016H167.761ZM163.545 16.3632V17.4833L163.528 26.4355C163.528 26.646 163.604 26.8397 163.756 26.9829C163.909 27.1345 164.104 27.2103 164.315 27.2103L180.724 27.2271L174.95 32.3643L156.678 32.3475L156.712 14.6873L156.678 11.2429H158.075L175.508 11.2513L181.215 16.3548H163.528L163.545 16.3632ZM182.493 5.60038L182.477 15.3695L177.007 10.4765L182.502 5.60038H182.493ZM219.824 62.1937L222.779 56.7786L232.964 62.2021H219.824V62.1937ZM199.833 62.0926L188.903 62.1263L194.381 56.8123L199.833 62.0926ZM218.511 5.48248C218.782 5.55827 219.045 5.63407 219.29 5.70986L219.587 5.76881C221.619 6.41728 223.287 7.28471 224.684 8.42162C229.035 12.0008 231.423 17.2812 231.406 23.2942C231.389 29.0799 229.002 34.8739 225.319 38.0573C223.439 39.6658 221.424 40.8196 219.146 41.6028C218.791 41.7291 218.427 41.8302 218.079 41.9228L217.986 41.9397H217.969C217.148 42.1839 216.276 42.3439 216.268 42.3439L215.438 42.4871L216.86 43.6156L232.261 60.063L222.922 55.0858L206.903 39.3542C206.471 38.9584 205.794 38.3015 205.345 37.8384H207.2L207.149 37.8131H207.547C210.078 37.8047 213.372 37.6531 216.445 36.6004C222.304 34.5876 225.285 29.981 225.302 22.8984C225.302 22.5363 225.293 22.1826 225.268 21.8373L225.251 21.6267L225.225 21.4078C225.209 21.2057 225.192 21.0035 225.158 20.8183C225.149 20.734 225.132 20.6498 225.115 20.5656L225.073 20.3214C225.048 20.1529 225.014 19.9845 224.98 19.8161C224.963 19.7234 224.938 19.6392 224.912 19.5466L224.878 19.4118C224.836 19.235 224.785 19.0497 224.734 18.8644C224.709 18.7802 224.675 18.696 224.65 18.6118L224.573 18.4012C224.523 18.2497 224.472 18.0981 224.413 17.9549C224.37 17.8538 224.328 17.7612 224.286 17.6601L224.209 17.4833C224.15 17.3485 224.091 17.2138 224.023 17.0706C223.981 16.978 223.93 16.8938 223.879 16.8096L223.778 16.6327C223.71 16.498 223.634 16.3716 223.557 16.2453C223.507 16.1611 223.447 16.0685 223.388 15.9842L223.278 15.8158C223.193 15.6895 223.117 15.5716 223.024 15.4453C222.948 15.3442 222.872 15.2516 222.753 15.1L222.677 15.0073C222.592 14.9063 222.516 14.8052 222.423 14.7042C222.355 14.6284 222.279 14.5441 222.211 14.4684L222.05 14.2999C221.957 14.1989 221.856 14.0978 221.754 13.9967C221.678 13.9294 221.602 13.8536 221.525 13.7862L221.322 13.6009C221.221 13.5167 221.128 13.4241 221.017 13.3399C220.899 13.2388 220.772 13.1462 220.611 13.0198C220.484 12.9188 220.349 12.8177 220.213 12.7251C220.103 12.6493 219.993 12.5735 219.883 12.5061L219.798 12.4556C219.646 12.3545 219.502 12.2619 219.341 12.1608C219.206 12.085 219.079 12.0092 218.943 11.9334L218.85 11.8829C218.706 11.7987 218.562 11.7229 218.41 11.6387C218.249 11.5545 218.088 11.4787 217.927 11.4029L217.58 11.2429C216.318 10.6955 214.955 10.2744 214.896 10.2575L211.831 9.56696L208.207 9.21326V9.59223L208.122 9.21326H207.716L194.482 9.24694H193.704V11.9755L193.593 55.4059L187.768 61.0568L187.912 5.76039V4.39609H189.851L189.902 4.44662L207.259 4.39609C209.926 4.39609 213.059 4.46346 216.107 4.96034C216.598 5.02771 217.199 5.15403 217.893 5.33089L218.054 5.36457L218.494 5.4909L218.511 5.48248ZM200.909 42.9419V47.0264L200.875 60.922L195.177 55.4059L195.219 39.0932L195.253 39.1269L195.228 35.0171L195.304 10.746H196.447L196.371 10.7797L207.657 10.746H207.767C208.444 10.746 212.026 10.8134 215.633 12.1019C221.043 14.0388 223.778 17.6686 223.769 22.8984C223.752 29.2567 221.128 33.3749 215.963 35.1434C213.109 36.1203 209.977 36.2551 207.572 36.2635L201.696 36.3225L203.584 38.2679L221.492 55.8606L218.342 61.621L200.9 42.9334L200.909 42.9419Z" fill="white"/>
<path d="M201.883 31.0506L207.953 31.0337C210.206 31.0337 211.984 30.7895 213.398 30.301C216.437 29.2568 217.919 27.0587 217.927 23.5806C217.936 20.0603 216.327 17.8876 213.008 16.9359C211.12 16.3969 208.919 16.338 207.42 16.3464L201.84 16.3633H201.349V17.0033L201.315 30.4947V31.059H201.883V31.0506Z" fill="white"/>
<path d="M20.1514 118.003L22.0903 118.82C23.6906 119.494 25.3924 120.227 27.1366 121.035L27.4583 121.178C31.5054 122.981 36.086 125.019 36.0013 130.779C35.9759 132.8 35.2816 134.695 33.9947 136.27L33.8931 136.379C32.2166 138.375 29.7528 139.538 27.1704 139.538C21.3537 139.538 18.729 134.619 18.1448 129.971L11.3206 136.59V136.649L11.2274 136.683L11.1428 136.767L11.1004 136.725L10.7956 136.826L11.3375 136.758L11.4222 137.348L10.8972 137.542L11.4391 137.441L11.5407 137.904C11.5576 137.996 11.583 138.064 11.6 138.14L11.6423 138.3C11.6677 138.375 11.6846 138.451 11.71 138.527L12.0064 139.344L12.0826 139.521L12.2858 139.95L12.4043 140.178L12.4805 140.321C12.5567 140.455 12.5991 140.523 12.6499 140.599L13.2425 141.432L13.4034 141.626C13.4711 141.702 13.5304 141.778 13.5981 141.845L13.7759 142.039L14.1823 142.443C14.2586 142.51 14.3348 142.578 14.411 142.645C14.4872 142.712 14.5634 142.78 14.6311 142.839L14.8682 143.032L14.5972 143.513L14.9359 143.083L15.664 143.597C15.7572 143.656 15.8503 143.715 15.9519 143.774C16.0704 143.841 16.1551 143.9 16.2567 143.959C16.3583 144.018 16.4599 144.068 16.5615 144.127L17.6029 144.633C17.7215 144.683 17.8485 144.734 17.9755 144.784L18.0601 144.818C18.1533 144.86 18.2549 144.894 18.3565 144.936C18.5004 144.986 18.6359 145.037 18.7798 145.087C18.9238 145.138 19.0423 145.18 19.1693 145.222C19.2878 145.264 19.4148 145.298 19.5334 145.332L20.0414 145.483C20.1599 145.517 20.2954 145.551 20.4224 145.576L20.6256 145.626C20.7357 145.652 20.8542 145.685 20.9643 145.711C21.1421 145.753 21.3199 145.786 21.4892 145.82L21.6585 145.854C21.7601 145.871 21.8617 145.896 21.9633 145.913L23.0302 146.081C23.1995 146.106 23.3773 146.123 23.5466 146.14L24.1732 146.216C24.3594 146.233 24.5711 146.25 24.7743 146.266L25.3755 146.317C25.6464 146.334 25.9258 146.342 26.2137 146.351L26.6709 146.376C27.1027 146.384 27.5514 146.393 28.0171 146.393C33.3512 146.393 37.356 144.793 39.9214 141.651C40.3532 141.112 40.7512 140.54 41.0983 139.942C42.453 137.558 43.1642 134.577 43.215 131.082C43.215 130.552 43.1981 118.062 27.0265 113.397C26.2729 113.178 25.494 112.934 24.6473 112.639C17.713 110.264 9.45787 105.539 9.55947 96.562L9.61028 95.2903V95.1724L9.68648 94.5239C9.69494 94.4313 9.71188 94.3387 9.72034 94.246L9.75421 94.0271C9.77114 93.8923 9.79654 93.7744 9.81348 93.6481L10.1013 92.3175C10.1268 92.208 10.1606 92.1069 10.186 91.9974C10.2284 91.8458 10.2622 91.7111 10.3046 91.5848L10.4062 91.2648C10.457 91.1047 10.4993 90.97 10.5501 90.8353C10.584 90.7258 10.6348 90.5995 10.6771 90.4815C10.7279 90.3468 10.7787 90.2121 10.8295 90.0689L10.9819 89.6983C11.0412 89.5552 11.1004 89.4204 11.1682 89.2688C11.2274 89.1425 11.2867 89.0162 11.346 88.8899C11.4137 88.7467 11.4814 88.6035 11.5576 88.4604L11.7608 88.0814C11.8455 87.9298 11.9217 87.7866 12.0064 87.6435C12.0826 87.5171 12.1672 87.3824 12.2435 87.2476C12.3281 87.1045 12.4213 86.9613 12.5229 86.8181C12.5906 86.7171 12.6668 86.6076 12.743 86.4981C13.5727 85.3612 14.6734 84.2411 14.8851 84.0222C15.1052 83.82 15.3084 83.6348 15.5201 83.4579L15.6894 83.3147C15.8588 83.1716 16.0196 83.0284 16.1974 82.8937C16.4345 82.7084 16.6801 82.54 16.9341 82.3715L17.1881 82.1947C17.3828 82.0599 17.586 81.9252 17.7892 81.7988C18.0771 81.622 18.3903 81.462 18.6952 81.302L18.9576 81.1588C19.1439 81.0577 19.3217 80.9567 19.5164 80.8725C19.8128 80.7377 20.126 80.6114 20.4308 80.4935L20.8203 80.3419C21.0066 80.2661 21.1844 80.1903 21.3791 80.1229C21.6755 80.0219 21.9887 79.9377 22.2935 79.845L22.7931 79.7019C22.9794 79.6429 23.1741 79.5924 23.3688 79.5419C23.7414 79.4492 24.1308 79.3818 24.5203 79.3145L24.7405 79.2724C24.8421 79.2555 24.9352 79.2387 25.0199 79.2218C25.1723 79.1881 25.3247 79.1629 25.4771 79.1376C26.2221 79.0281 26.9757 78.9523 27.6954 78.9102C28.1526 78.885 28.6013 78.8681 29.0331 78.8597H29.2533H29.4226H29.8713C30.0153 78.8597 30.1592 78.8597 30.3031 78.8597C30.4132 78.8597 30.5317 78.8597 30.6503 78.8681L31.0482 78.885C31.2006 78.885 31.353 78.9018 31.497 78.9102C31.6917 78.9187 31.878 78.9355 32.0727 78.9608C32.259 78.9776 32.4537 78.9945 32.64 79.0197C32.8262 79.045 33.0041 79.0618 33.1903 79.0871C33.3597 79.1124 33.5375 79.1376 33.7153 79.1629C33.8931 79.1881 34.0624 79.2218 34.2402 79.2555C34.4095 79.2892 34.5704 79.3229 34.7313 79.3566C34.8921 79.3903 35.0615 79.4324 35.2224 79.4661C35.3748 79.5082 35.5356 79.5419 35.688 79.584C35.8743 79.6345 36.0098 79.6766 36.1452 79.7187C36.2807 79.7608 36.4246 79.8029 36.5686 79.8535L36.6786 79.8871C36.7887 79.9208 36.8988 79.9629 37.0004 79.9966C37.1105 80.0387 37.229 80.0808 37.3475 80.1314L37.5338 80.2072C37.6269 80.2408 37.7201 80.2745 37.8047 80.3166C37.9571 80.384 38.1095 80.4514 38.2619 80.5188L38.3805 80.5777L38.5667 80.6619C38.7953 80.7714 39.0324 80.8977 39.2526 81.0241L39.3288 81.0746C39.5235 81.1925 39.7182 81.302 39.9045 81.4283L40.04 81.5209C40.2262 81.6473 40.3702 81.7399 40.5056 81.841L40.7173 82.001C40.8274 82.0852 40.9459 82.1778 41.056 82.2705L41.2507 82.4305C41.3608 82.5231 41.4624 82.6157 41.564 82.7L42.5969 83.7779L42.7747 83.9969L42.9695 84.2411C43.0372 84.3253 43.105 84.4264 43.1727 84.519L43.2912 84.679C43.359 84.7801 43.4182 84.8727 43.4775 84.9654L43.5706 85.1085C43.6384 85.218 43.6976 85.3191 43.7569 85.4201L43.8246 85.5381C43.9008 85.6728 43.977 85.8075 44.0363 85.9423L44.6544 87.4161L44.6798 87.8708L44.8237 87.9887L44.8745 88.1824L44.8406 87.9972L53.5361 94.9619C53.2482 90.2794 52.2745 86.5571 48.8878 82.2115C43.8246 75.8363 35.1377 73.5625 28.6944 73.5625C21.7686 73.5625 14.9274 75.929 9.90661 80.0303L9.83888 80.0808C9.63568 80.2408 9.3986 80.4514 9.16153 80.6704L8.9922 80.8304C8.69586 81.0999 8.42492 81.3693 8.21325 81.563L7.89998 81.8831C4.09839 85.7991 2.04942 90.7089 1.97322 96.0903C1.79542 108.462 11.075 114.096 20.1684 117.978L20.1514 118.003Z" fill="white"/>
<path d="M36.3736 109.06C35.9079 108.85 35.2898 108.572 34.5786 108.26C33.5541 107.805 32.3349 107.266 31.048 106.669C24.8926 103.822 21.6583 101.691 20.5576 99.7712C19.7871 98.5669 19.7024 97.1184 19.7194 95.8636C19.7448 94.2045 20.329 92.6549 21.4127 91.3833C22.9368 89.581 25.3244 88.5115 27.7798 88.5031C33.1901 88.5031 34.8919 92.0402 35.5862 95.1393L42.6559 88.2841L42.4358 87.6356L42.3765 87.484L42.1479 86.9788C41.8008 86.2798 41.3859 85.665 40.8864 85.1007V85.0923C40.7932 84.9828 40.6916 84.8733 40.59 84.7639C40.4715 84.6375 40.3614 84.5281 40.2429 84.4186L40.2006 84.3765C38.9559 83.2227 37.3727 82.3637 35.4761 81.8079L35.5438 81.2605L35.3914 81.7826C35.1882 81.7237 34.9681 81.6647 34.7564 81.6142L34.5955 81.5805C34.3923 81.53 34.1807 81.4879 33.969 81.4457L33.7573 81.4036C33.5287 81.3615 33.3255 81.3278 33.1139 81.2942L32.809 81.2521C32.6143 81.2268 32.4026 81.2015 32.191 81.1763L31.8269 81.1426C31.6237 81.1257 31.412 81.1089 31.2004 81.092C31.0649 81.092 30.921 81.0752 30.7855 81.0752C30.5653 81.0668 30.3537 81.0583 30.142 81.0499H29.9557H29.4901H29.2107H29.0244C28.6349 81.0583 28.2454 81.0752 27.8306 81.1005C22.1578 81.4457 17.8313 83.4754 14.978 87.1472C12.5141 90.2969 11.913 93.6824 11.7775 95.4172C11.7436 95.8215 11.7352 96.1499 11.7352 96.3773V96.5626C11.6505 104.252 19.1098 108.429 25.3752 110.576C26.1795 110.854 26.9246 111.09 27.6443 111.3C45.3992 116.421 45.3907 130.493 45.3822 131.091C45.323 134.957 44.5186 138.292 42.9692 141.003C42.8422 141.231 42.6983 141.458 42.5543 141.677L42.512 141.745C42.3596 141.972 42.2072 142.191 42.0463 142.401L42.0125 142.46C41.7669 142.797 41.5129 143.126 41.2335 143.446L40.861 143.875L40.8271 143.842L40.7678 143.901L40.6578 144.018C40.5138 144.17 40.3614 144.322 40.209 144.465C39.9974 144.667 39.7603 144.852 39.5232 145.037L39.3539 145.172C39.193 145.307 39.0237 145.433 38.8543 145.551C38.6257 145.72 38.3717 145.871 38.1262 146.023L37.9569 146.132C37.7706 146.25 37.5759 146.368 37.3811 146.478C37.1271 146.612 36.8646 146.73 36.6022 146.848L36.3312 146.974C36.145 147.059 35.9587 147.151 35.764 147.227C35.4761 147.337 35.1798 147.438 34.8834 147.53L34.5447 147.64C34.3669 147.699 34.1976 147.758 34.0113 147.808C33.7235 147.884 33.4187 147.951 33.1139 148.019L32.6228 148.128C32.4619 148.162 32.3095 148.204 32.1402 148.229C31.7168 148.297 31.2681 148.347 30.8363 148.398L30.5823 148.431C30.4383 148.448 30.2944 148.473 30.142 148.482C28.8551 148.583 27.6358 148.583 26.5521 148.549L26.0949 148.524C25.7901 148.516 25.4683 148.499 25.1635 148.482C25.0365 148.482 24.9095 148.465 24.7825 148.448L24.4862 148.423C24.2745 148.406 24.0628 148.389 23.8596 148.364C23.7496 148.356 23.631 148.339 23.5125 148.322L23.1992 148.28C23.0045 148.255 22.8098 148.238 22.6235 148.212L21.9461 148.103C21.7768 148.078 21.6159 148.052 21.4551 148.019C21.3281 147.993 21.2011 147.968 21.0741 147.943L20.8116 147.892C20.6507 147.859 20.4983 147.825 20.3459 147.791C20.1935 147.758 20.0411 147.716 19.8887 147.682L19.7956 147.657C19.6347 147.614 19.4738 147.572 19.3214 147.53C19.1606 147.488 19.0082 147.438 18.8473 147.395C18.678 147.345 18.5171 147.294 18.3477 147.235C18.1953 147.185 18.0514 147.134 17.899 147.084L17.8143 147.05C17.6873 147.008 17.5603 146.958 17.4333 146.915C17.2894 146.857 17.1539 146.806 17.0185 146.747C16.8745 146.688 16.7306 146.629 16.5867 146.562L16.4935 146.52C16.3919 146.469 16.2903 146.427 16.1887 146.376C16.0617 146.318 15.9262 146.25 15.7992 146.183C15.6638 146.115 15.5452 146.048 15.4267 145.981C15.3082 145.913 15.1812 145.846 15.0626 145.779C14.9272 145.694 14.8171 145.635 14.7155 145.568C14.597 145.492 14.4869 145.425 14.3768 145.349C14.2667 145.282 14.1651 145.206 14.0635 145.13L13.7757 144.92C13.6571 144.835 13.5555 144.76 13.4539 144.675L12.9036 144.212C12.8105 144.128 12.7258 144.052 12.6411 143.968C12.5649 143.892 12.4803 143.816 12.4041 143.74L12.1924 143.522L12.5311 143.084L12.1331 143.454L11.9384 143.244L11.7013 142.966C11.642 142.89 11.5743 142.814 11.515 142.738L11.3626 142.536L11.151 142.241C11.1002 142.166 11.0494 142.09 10.9986 142.014L11.405 141.635L10.9478 141.938C10.897 141.862 10.8546 141.795 10.8123 141.719C10.77 141.644 10.7192 141.559 10.6684 141.475L10.1265 140.406L10.0333 140.203L9.94868 140.001C9.81321 139.656 9.69468 139.302 9.59307 138.932C9.56767 138.839 9.55074 138.789 9.54227 138.746L9.4322 138.3L9.38987 138.098L9.90635 137.887L9.37294 137.997L9.31367 137.652L9.83861 137.45L9.29674 137.542L9.21207 136.894L0.304991 129.811V130.173C0.194922 137.197 2.24389 142.873 6.38416 147.05C11.1171 151.825 18.4832 154.461 27.1194 154.461V155.009L27.1617 154.461C32.2333 154.461 39.3962 153.644 44.7388 149.812L45.0944 149.551L45.1198 149.577C45.7463 149.164 47.1687 148.094 48.498 146.301C51.9186 142.317 53.6713 137.18 53.7644 130.973C53.9253 119.621 47.228 114.172 36.3736 109.06Z" fill="white"/>
<path d="M37.5244 96.2674L51.5962 96.2506L43.8999 90.0859L37.5244 96.2674Z" fill="white"/>
<path d="M2.3457 128.665L10.0505 134.83L16.4175 128.649L2.3457 128.665Z" fill="white"/>
<path d="M100.069 152.027L116.063 152.01L109.18 144.743L100.069 152.027Z" fill="white"/>
<path d="M156.907 151.968L172.613 151.952L163.232 144.701L156.907 151.968Z" fill="white"/>
<path d="M148.575 129.003L148.601 129.028H157.246L154.909 122.021L141.802 82.2794H132.92L131.523 86.1534L117.655 123.722L115.665 129.028H120.152H120.136L148.584 129.003H148.575ZM135.443 98.9374C135.443 98.9374 136.095 97.1436 136.705 95.4256L137.255 93.876L146.552 123.764H127.188L135.443 98.9374Z" fill="white"/>
<path d="M147.086 73.7229H128.577L127.832 75.7778L99.46 149.736L108.376 142.603L131.405 80.1065L143.36 80.0896L143.758 81.3108V81.3192L164.011 142.553L173.511 149.888L147.551 74.9188L147.086 73.7229Z" fill="white"/>
<path d="M157.931 131.167L114.785 131.209L114.022 133.525L110.534 142.999L118.137 151.033L120.33 144.422L121.837 140.153L150.845 140.127C151.319 140.127 151.734 140.431 151.869 140.885L154.976 150.882L161.86 142.965L157.923 131.167H157.931Z" fill="white"/>
<path d="M186.684 83.3824V79.7443H187.794L205.794 79.6938L208.055 79.7864C208.165 79.7864 208.283 79.8032 208.419 79.8117L212.313 80.3338L215.573 81.1086C215.658 81.1338 217.52 81.7149 219.231 82.456L219.315 82.4982C219.442 82.5571 219.578 82.6161 219.705 82.675C219.925 82.7761 220.145 82.8856 220.365 82.995C220.577 83.1045 220.78 83.2224 220.983 83.3319L221.068 83.3824C221.237 83.4751 221.441 83.593 221.644 83.7109C221.856 83.8372 222.059 83.9719 222.262 84.1067L222.372 84.1741C222.524 84.2751 222.685 84.3762 222.829 84.4772C223.024 84.6204 223.21 84.7636 223.405 84.9067L223.473 84.9573C223.625 85.0752 223.777 85.1931 223.921 85.311C224.065 85.4289 224.201 85.5468 224.336 85.6731L224.616 85.9173C224.717 86.01 224.827 86.111 224.929 86.2037C225.073 86.3468 225.208 86.4816 225.335 86.6248L225.547 86.8521C225.649 86.9532 225.742 87.0627 225.843 87.1722C225.962 87.3069 226.08 87.4501 226.191 87.5932L226.36 87.8038C226.461 87.9301 226.563 88.0564 226.665 88.1912C226.783 88.3512 226.893 88.5196 227.003 88.6796L227.164 88.9239C227.24 89.0418 227.317 89.1512 227.393 89.2691C227.494 89.4376 227.596 89.6144 227.689 89.7913L227.833 90.0439C227.901 90.1618 227.969 90.2797 228.028 90.3976C228.121 90.5829 228.197 90.7682 228.282 90.945L228.392 91.1977C228.451 91.324 228.51 91.4588 228.561 91.5851C228.646 91.7872 228.714 91.9977 228.781 92.2083L228.874 92.4862C228.917 92.6041 228.959 92.722 228.993 92.8399C229.061 93.0757 229.128 93.3199 229.188 93.5557L229.247 93.7663C229.281 93.8926 229.315 94.0105 229.34 94.1368C229.391 94.3726 229.433 94.6 229.467 94.8358L229.518 95.1474C229.543 95.2569 229.56 95.3748 229.577 95.4927C229.611 95.7538 229.636 96.0233 229.662 96.2928L229.696 96.6044C229.704 96.697 229.721 96.7981 229.721 96.8907C229.755 97.3707 229.772 97.8592 229.772 98.3308C229.747 107.982 225.682 114.273 217.698 117.01C213.516 118.442 209.02 118.644 205.574 118.652H205.235L205.303 118.686H202.653C203.152 119.208 203.889 119.924 204.71 120.69L226.512 142.106L239.035 148.785L218.333 126.627L218.206 126.552L216.217 124.968L217.41 124.758C217.41 124.758 218.638 124.539 219.773 124.21H219.798C220.391 124.042 220.873 123.899 221.314 123.747C224.404 122.686 227.147 121.111 229.696 118.93C234.7 114.61 237.942 106.727 237.968 98.8614C237.993 90.6924 234.742 83.5172 228.832 78.6495C226.944 77.1083 224.683 75.9293 221.94 75.0534L221.508 74.9608C221.178 74.8597 220.823 74.7587 220.45 74.6492L219.629 74.4302C218.68 74.186 217.868 74.0176 217.199 73.9334H217.114C213.05 73.2596 208.783 73.167 205.151 73.167L181.528 73.2344L181.46 73.167H178.87V74.9945L178.675 150.174L186.532 142.553L186.684 83.3403V83.3824Z" fill="white"/>
<path d="M180.258 151.716L194.965 151.674L187.632 144.566L180.258 151.716Z" fill="white"/>
<path d="M226.292 144.506L222.312 151.8L240 151.816L226.292 144.506Z" fill="white"/>
<path d="M200.122 119.301L197.488 116.598L205.557 116.522C208.834 116.513 213.093 116.328 216.971 114.997C223.981 112.589 227.546 106.997 227.571 98.3648C227.588 91.2654 223.871 86.3303 216.522 83.7027C211.619 81.9426 206.751 81.8584 205.828 81.8584H205.684L190.088 81.9089L190.198 81.8584H188.912L188.861 95.9899L188.81 114.905L188.844 120.547L188.801 120.497L188.742 142.587L196.43 150.031L196.481 131.1V125.55L220.239 151.008L224.489 143.227L200.13 119.301H200.122ZM196.523 108.681L196.574 88.9073L205.591 88.882C207.589 88.882 210.553 88.9662 213.135 89.7074C217.919 91.0801 220.239 94.2045 220.23 99.2743C220.213 104.268 218.08 107.426 213.694 108.942C211.713 109.624 209.232 109.961 206.108 109.97L197.844 109.995H196.523V108.681Z" fill="white"/>
<path d="M107.393 76.1063L99.4001 83.5763L86.412 83.5931L86.3951 83.5763H84.1514V143.395L92.0255 151.067L92.0509 90.4989L107.393 90.482V76.1063Z" fill="white"/>
<path d="M98.46 81.4032L105.699 74.7164L60.3848 74.7585L67.6239 81.4369L98.46 81.4032Z" fill="white"/>
<path d="M81.9924 143.395L82.0178 83.5932L67.2009 83.61C66.9299 83.61 66.6675 83.5089 66.4727 83.3237L58.7002 76.14V90.5326L73.0684 90.5157C73.3562 90.5157 73.6272 90.6252 73.8304 90.8273C74.0336 91.0294 74.1521 91.3074 74.1436 91.6021L74.1182 151.076L81.9924 143.387V143.395Z" fill="white"/>
<path d="M75.7021 152.558L90.4428 152.541L83.0767 145.366L75.7021 152.558Z" fill="white"/>
</g>
<defs>
<clipPath id="clip0_3_7573">
<rect width="240" height="155" fill="white"/>
</clipPath>
</defs>
</svg>
